%FSTAX24Y24*%
%MOIN*%
%SFA1B1*%

%IPPOS*%
%ADD55C,0.005000*%
%ADD56C,0.006670*%
%LNa3988_breakout-1*%
%LPD*%
G54D55*
X02105Y04195D02*
Y04235D01*
X02145*
Y04195*
X02105*
Y04295D02*
Y04335D01*
X02145*
Y04295*
X02105*
Y04585D02*
Y04625D01*
X02145*
Y04585*
X02105*
Y04485D02*
Y04525D01*
X02145*
Y04485*
X02105*
X04105Y04585D02*
Y04625D01*
X04145*
Y04585*
X04105*
Y04485D02*
Y04525D01*
X04145*
Y04485*
X04105*
Y04195D02*
Y04235D01*
X04145*
Y04195*
X04105*
Y04295D02*
Y04335D01*
X04145*
Y04295*
X04105*
X0404Y05105D02*
Y05145D01*
X0408*
Y05105*
X0404*
X0394D02*
Y05145D01*
X0398*
Y05105*
X0394*
X0384D02*
Y05145D01*
X0388*
Y05105*
X0384*
X0374D02*
Y05145D01*
X0378*
Y05105*
X0374*
X0358D02*
Y05145D01*
X0362*
Y05105*
X0358*
X0348D02*
Y05145D01*
X0352*
Y05105*
X0348*
X0338D02*
Y05145D01*
X0342*
Y05105*
X0338*
X0328D02*
Y05145D01*
X0332*
Y05105*
X0328*
X02925D02*
Y05145D01*
X02965*
Y05105*
X02925*
X02825D02*
Y05145D01*
X02865*
Y05105*
X02825*
X02725D02*
Y05145D01*
X02765*
Y05105*
X02725*
X02625D02*
Y05145D01*
X02665*
Y05105*
X02625*
X02465D02*
Y05145D01*
X02505*
Y05105*
X02465*
X02365D02*
Y05145D01*
X02405*
Y05105*
X02365*
X02265D02*
Y05145D01*
X02305*
Y05105*
X02265*
X02165D02*
Y05145D01*
X02205*
Y05105*
X02165*
X041075Y0384D02*
Y0388D01*
X041475*
Y0384*
X041075*
Y0394D02*
Y0398D01*
X041475*
Y0394*
X041075*
X0211Y03825D02*
Y03865D01*
X0215*
Y03825*
X0211*
Y03925D02*
Y03965D01*
X0215*
Y03925*
X0211*
X03135Y035525D02*
Y035925D01*
X03175*
Y035525*
X03135*
X03035D02*
Y035925D01*
X03075*
Y035525*
X03035*
X035925Y039375D02*
X035725Y039775D01*
X036125*
X035925Y039375*
X025425Y03925D02*
X025225Y03965D01*
X025625*
X025425Y03925*
X0353Y0451D02*
X0354Y0452D01*
X0355*
X0354Y0453*
X0355Y0454*
X0354*
X0353Y0455*
X0352Y0454*
X0351*
X0352Y0453*
X0351Y0452*
X0352*
X0353Y0451*
X035305Y041894D02*
X035405Y041994D01*
X035505*
X035405Y042094*
X035505Y042194*
X035405*
X035305Y042294*
X035205Y042194*
X035105*
X035205Y042094*
X035105Y041994*
X035205*
X035305Y041894*
X03685Y04115D02*
X03665Y04155D01*
X03705*
X03685Y04115*
X025755Y044794D02*
X025855Y044894D01*
X025955*
X025855Y044994*
X025955Y045094*
X025855*
X025755Y045194*
X025655Y045094*
X025555*
X025655Y044994*
X025555Y044894*
X025655*
X025755Y044794*
Y041819D02*
X025855Y041919D01*
X025955*
X025855Y042019*
X025955Y042119*
X025855*
X025755Y042219*
X025655Y042119*
X025555*
X025655Y042019*
X025555Y041919*
X025655*
X025755Y041819*
X02575Y0411D02*
X02555Y0415D01*
X02595*
X02575Y0411*
X039175Y0346D02*
X038975Y035D01*
X039375*
X039175Y0346*
X023725Y036875D02*
X023525Y037275D01*
X023925*
X023725Y036875*
X031758Y040341D02*
X031858Y040541D01*
X031758Y040741*
X031958Y040641*
X032158Y040741*
X032058Y040541*
X032158Y040341*
X031958Y040441*
X031758Y040341*
X031286D02*
X031386Y040541D01*
X031286Y040741*
X031486Y040641*
X031686Y040741*
X031586Y040541*
X031686Y040341*
X031486Y040441*
X031286Y040341*
X030813D02*
X030913Y040541D01*
X030813Y040741*
X031013Y040641*
X031213Y040741*
X031113Y040541*
X031213Y040341*
X031013Y040441*
X030813Y040341*
X030341D02*
X030441Y040541D01*
X030341Y040741*
X030541Y040641*
X030741Y040741*
X030641Y040541*
X030741Y040341*
X030541Y040441*
X030341Y040341*
X031758Y040813D02*
X031858Y041013D01*
X031758Y041213*
X031958Y041113*
X032158Y041213*
X032058Y041013*
X032158Y040813*
X031958Y040913*
X031758Y040813*
X031286D02*
X031386Y041013D01*
X031286Y041213*
X031486Y041113*
X031686Y041213*
X031586Y041013*
X031686Y040813*
X031486Y040913*
X031286Y040813*
X030813D02*
X030913Y041013D01*
X030813Y041213*
X031013Y041113*
X031213Y041213*
X031113Y041013*
X031213Y040813*
X031013Y040913*
X030813Y040813*
X030341D02*
X030441Y041013D01*
X030341Y041213*
X030541Y041113*
X030741Y041213*
X030641Y041013*
X030741Y040813*
X030541Y040913*
X030341Y040813*
X031758Y041286D02*
X031858Y041486D01*
X031758Y041686*
X031958Y041586*
X032158Y041686*
X032058Y041486*
X032158Y041286*
X031958Y041386*
X031758Y041286*
X031286D02*
X031386Y041486D01*
X031286Y041686*
X031486Y041586*
X031686Y041686*
X031586Y041486*
X031686Y041286*
X031486Y041386*
X031286Y041286*
X030813D02*
X030913Y041486D01*
X030813Y041686*
X031013Y041586*
X031213Y041686*
X031113Y041486*
X031213Y041286*
X031013Y041386*
X030813Y041286*
X030341D02*
X030441Y041486D01*
X030341Y041686*
X030541Y041586*
X030741Y041686*
X030641Y041486*
X030741Y041286*
X030541Y041386*
X030341Y041286*
X031758Y041758D02*
X031858Y041958D01*
X031758Y042158*
X031958Y042058*
X032158Y042158*
X032058Y041958*
X032158Y041758*
X031958Y041858*
X031758Y041758*
X031286D02*
X031386Y041958D01*
X031286Y042158*
X031486Y042058*
X031686Y042158*
X031586Y041958*
X031686Y041758*
X031486Y041858*
X031286Y041758*
X030813D02*
X030913Y041958D01*
X030813Y042158*
X031013Y042058*
X031213Y042158*
X031113Y041958*
X031213Y041758*
X031013Y041858*
X030813Y041758*
X030341D02*
X030441Y041958D01*
X030341Y042158*
X030541Y042058*
X030741Y042158*
X030641Y041958*
X030741Y041758*
X030541Y041858*
X030341Y041758*
G54D56*
X02895Y039575D02*
D01*
X028949Y039588*
X028948Y039602*
X028945Y039616*
X028942Y03963*
X028937Y039643*
X028932Y039656*
X028926Y039668*
X028919Y03968*
X028911Y039692*
X028903Y039703*
X028893Y039713*
X028883Y039723*
X028873Y039732*
X028861Y03974*
X02885Y039748*
X028837Y039754*
X028824Y03976*
X028811Y039765*
X028798Y039769*
X028784Y039771*
X02877Y039773*
X028756Y039774*
X028743*
X028729Y039773*
X028715Y039771*
X028701Y039769*
X028688Y039765*
X028675Y03976*
X028662Y039754*
X02865Y039748*
X028638Y03974*
X028626Y039732*
X028616Y039723*
X028606Y039713*
X028596Y039703*
X028588Y039692*
X02858Y03968*
X028573Y039668*
X028567Y039656*
X028562Y039643*
X028557Y03963*
X028554Y039616*
X028551Y039602*
X02855Y039588*
X02855Y039575*
X02855Y039561*
X028551Y039547*
X028554Y039533*
X028557Y039519*
X028562Y039506*
X028567Y039493*
X028573Y039481*
X02858Y039469*
X028588Y039457*
X028596Y039446*
X028606Y039436*
X028616Y039426*
X028626Y039417*
X028638Y039409*
X02865Y039401*
X028662Y039395*
X028675Y039389*
X028688Y039384*
X028701Y03938*
X028715Y039378*
X028729Y039376*
X028743Y039375*
X028756*
X02877Y039376*
X028784Y039378*
X028798Y03938*
X028811Y039384*
X028824Y039389*
X028837Y039395*
X02885Y039401*
X028861Y039409*
X028873Y039417*
X028883Y039426*
X028893Y039436*
X028903Y039446*
X028911Y039457*
X028919Y039469*
X028926Y039481*
X028932Y039493*
X028937Y039506*
X028942Y039519*
X028945Y039533*
X028948Y039547*
X028949Y039561*
X02895Y039575*
X0303Y0374D02*
D01*
X030299Y037413*
X030298Y037427*
X030295Y037441*
X030292Y037455*
X030287Y037468*
X030282Y037481*
X030276Y037493*
X030269Y037505*
X030261Y037517*
X030253Y037528*
X030243Y037538*
X030233Y037548*
X030223Y037557*
X030211Y037565*
X0302Y037573*
X030187Y037579*
X030174Y037585*
X030161Y03759*
X030148Y037594*
X030134Y037596*
X03012Y037598*
X030106Y037599*
X030093*
X030079Y037598*
X030065Y037596*
X030051Y037594*
X030038Y03759*
X030025Y037585*
X030012Y037579*
X03Y037573*
X029988Y037565*
X029976Y037557*
X029966Y037548*
X029956Y037538*
X029946Y037528*
X029938Y037517*
X02993Y037505*
X029923Y037493*
X029917Y037481*
X029912Y037468*
X029907Y037455*
X029904Y037441*
X029901Y037427*
X0299Y037413*
X0299Y0374*
X0299Y037386*
X029901Y037372*
X029904Y037358*
X029907Y037344*
X029912Y037331*
X029917Y037318*
X029923Y037306*
X02993Y037294*
X029938Y037282*
X029946Y037271*
X029956Y037261*
X029966Y037251*
X029976Y037242*
X029988Y037234*
X03Y037226*
X030012Y03722*
X030025Y037214*
X030038Y037209*
X030051Y037205*
X030065Y037203*
X030079Y037201*
X030093Y0372*
X030106*
X03012Y037201*
X030134Y037203*
X030148Y037205*
X030161Y037209*
X030174Y037214*
X030187Y03722*
X0302Y037226*
X030211Y037234*
X030223Y037242*
X030233Y037251*
X030243Y037261*
X030253Y037271*
X030261Y037282*
X030269Y037294*
X030276Y037306*
X030282Y037318*
X030287Y037331*
X030292Y037344*
X030295Y037358*
X030298Y037372*
X030299Y037386*
X0303Y0374*
X030025Y04855D02*
D01*
X030024Y048563*
X030023Y048577*
X03002Y048591*
X030017Y048605*
X030012Y048618*
X030007Y048631*
X030001Y048643*
X029994Y048655*
X029986Y048667*
X029978Y048678*
X029968Y048688*
X029958Y048698*
X029948Y048707*
X029936Y048715*
X029925Y048723*
X029912Y048729*
X029899Y048735*
X029886Y04874*
X029873Y048744*
X029859Y048746*
X029845Y048748*
X029831Y048749*
X029818*
X029804Y048748*
X02979Y048746*
X029776Y048744*
X029763Y04874*
X02975Y048735*
X029737Y048729*
X029725Y048723*
X029713Y048715*
X029701Y048707*
X029691Y048698*
X029681Y048688*
X029671Y048678*
X029663Y048667*
X029655Y048655*
X029648Y048643*
X029642Y048631*
X029637Y048618*
X029632Y048605*
X029629Y048591*
X029626Y048577*
X029625Y048563*
X029625Y04855*
X029625Y048536*
X029626Y048522*
X029629Y048508*
X029632Y048494*
X029637Y048481*
X029642Y048468*
X029648Y048456*
X029655Y048444*
X029663Y048432*
X029671Y048421*
X029681Y048411*
X029691Y048401*
X029701Y048392*
X029713Y048384*
X029725Y048376*
X029737Y04837*
X02975Y048364*
X029763Y048359*
X029776Y048355*
X02979Y048353*
X029804Y048351*
X029818Y04835*
X029831*
X029845Y048351*
X029859Y048353*
X029873Y048355*
X029886Y048359*
X029899Y048364*
X029912Y04837*
X029925Y048376*
X029936Y048384*
X029948Y048392*
X029958Y048401*
X029968Y048411*
X029978Y048421*
X029986Y048432*
X029994Y048444*
X030001Y048456*
X030007Y048468*
X030012Y048481*
X030017Y048494*
X03002Y048508*
X030023Y048522*
X030024Y048536*
X030025Y04855*
X032525Y047875D02*
D01*
X032524Y047888*
X032523Y047902*
X03252Y047916*
X032517Y04793*
X032512Y047943*
X032507Y047956*
X032501Y047968*
X032494Y04798*
X032486Y047992*
X032478Y048003*
X032468Y048013*
X032458Y048023*
X032448Y048032*
X032436Y04804*
X032425Y048048*
X032412Y048054*
X032399Y04806*
X032386Y048065*
X032373Y048069*
X032359Y048071*
X032345Y048073*
X032331Y048074*
X032318*
X032304Y048073*
X03229Y048071*
X032276Y048069*
X032263Y048065*
X03225Y04806*
X032237Y048054*
X032225Y048048*
X032213Y04804*
X032201Y048032*
X032191Y048023*
X032181Y048013*
X032171Y048003*
X032163Y047992*
X032155Y04798*
X032148Y047968*
X032142Y047956*
X032137Y047943*
X032132Y04793*
X032129Y047916*
X032126Y047902*
X032125Y047888*
X032125Y047875*
X032125Y047861*
X032126Y047847*
X032129Y047833*
X032132Y047819*
X032137Y047806*
X032142Y047793*
X032148Y047781*
X032155Y047769*
X032163Y047757*
X032171Y047746*
X032181Y047736*
X032191Y047726*
X032201Y047717*
X032213Y047709*
X032225Y047701*
X032237Y047695*
X03225Y047689*
X032263Y047684*
X032276Y04768*
X03229Y047678*
X032304Y047676*
X032318Y047675*
X032331*
X032345Y047676*
X032359Y047678*
X032373Y04768*
X032386Y047684*
X032399Y047689*
X032412Y047695*
X032425Y047701*
X032436Y047709*
X032448Y047717*
X032458Y047726*
X032468Y047736*
X032478Y047746*
X032486Y047757*
X032494Y047769*
X032501Y047781*
X032507Y047793*
X032512Y047806*
X032517Y047819*
X03252Y047833*
X032523Y047847*
X032524Y047861*
X032525Y047875*
Y0472D02*
D01*
X032524Y047213*
X032523Y047227*
X03252Y047241*
X032517Y047255*
X032512Y047268*
X032507Y047281*
X032501Y047293*
X032494Y047305*
X032486Y047317*
X032478Y047328*
X032468Y047338*
X032458Y047348*
X032448Y047357*
X032436Y047365*
X032425Y047373*
X032412Y047379*
X032399Y047385*
X032386Y04739*
X032373Y047394*
X032359Y047396*
X032345Y047398*
X032331Y047399*
X032318*
X032304Y047398*
X03229Y047396*
X032276Y047394*
X032263Y04739*
X03225Y047385*
X032237Y047379*
X032225Y047373*
X032213Y047365*
X032201Y047357*
X032191Y047348*
X032181Y047338*
X032171Y047328*
X032163Y047317*
X032155Y047305*
X032148Y047293*
X032142Y047281*
X032137Y047268*
X032132Y047255*
X032129Y047241*
X032126Y047227*
X032125Y047213*
X032125Y0472*
X032125Y047186*
X032126Y047172*
X032129Y047158*
X032132Y047144*
X032137Y047131*
X032142Y047118*
X032148Y047106*
X032155Y047094*
X032163Y047082*
X032171Y047071*
X032181Y047061*
X032191Y047051*
X032201Y047042*
X032213Y047034*
X032225Y047026*
X032237Y04702*
X03225Y047014*
X032263Y047009*
X032276Y047005*
X03229Y047003*
X032304Y047001*
X032318Y047*
X032331*
X032345Y047001*
X032359Y047003*
X032373Y047005*
X032386Y047009*
X032399Y047014*
X032412Y04702*
X032425Y047026*
X032436Y047034*
X032448Y047042*
X032458Y047051*
X032468Y047061*
X032478Y047071*
X032486Y047082*
X032494Y047094*
X032501Y047106*
X032507Y047118*
X032512Y047131*
X032517Y047144*
X03252Y047158*
X032523Y047172*
X032524Y047186*
X032525Y0472*
X0388Y0453D02*
D01*
X038799Y045313*
X038798Y045327*
X038795Y045341*
X038792Y045355*
X038787Y045368*
X038782Y045381*
X038776Y045393*
X038769Y045405*
X038761Y045417*
X038753Y045428*
X038743Y045438*
X038733Y045448*
X038723Y045457*
X038711Y045465*
X0387Y045473*
X038687Y045479*
X038674Y045485*
X038661Y04549*
X038648Y045494*
X038634Y045496*
X03862Y045498*
X038606Y045499*
X038593*
X038579Y045498*
X038565Y045496*
X038551Y045494*
X038538Y04549*
X038525Y045485*
X038512Y045479*
X0385Y045473*
X038488Y045465*
X038476Y045457*
X038466Y045448*
X038456Y045438*
X038446Y045428*
X038438Y045417*
X03843Y045405*
X038423Y045393*
X038417Y045381*
X038412Y045368*
X038407Y045355*
X038404Y045341*
X038401Y045327*
X0384Y045313*
X0384Y0453*
X0384Y045286*
X038401Y045272*
X038404Y045258*
X038407Y045244*
X038412Y045231*
X038417Y045218*
X038423Y045206*
X03843Y045194*
X038438Y045182*
X038446Y045171*
X038456Y045161*
X038466Y045151*
X038476Y045142*
X038488Y045134*
X0385Y045126*
X038512Y04512*
X038525Y045114*
X038538Y045109*
X038551Y045105*
X038565Y045103*
X038579Y045101*
X038593Y0451*
X038606*
X03862Y045101*
X038634Y045103*
X038648Y045105*
X038661Y045109*
X038674Y045114*
X038687Y04512*
X0387Y045126*
X038711Y045134*
X038723Y045142*
X038733Y045151*
X038743Y045161*
X038753Y045171*
X038761Y045182*
X038769Y045194*
X038776Y045206*
X038782Y045218*
X038787Y045231*
X038792Y045244*
X038795Y045258*
X038798Y045272*
X038799Y045286*
X0388Y0453*
X02985Y036975D02*
D01*
X029849Y036988*
X029848Y037002*
X029845Y037016*
X029842Y03703*
X029837Y037043*
X029832Y037056*
X029826Y037068*
X029819Y03708*
X029811Y037092*
X029803Y037103*
X029793Y037113*
X029783Y037123*
X029773Y037132*
X029761Y03714*
X02975Y037148*
X029737Y037154*
X029724Y03716*
X029711Y037165*
X029698Y037169*
X029684Y037171*
X02967Y037173*
X029656Y037174*
X029643*
X029629Y037173*
X029615Y037171*
X029601Y037169*
X029588Y037165*
X029575Y03716*
X029562Y037154*
X02955Y037148*
X029538Y03714*
X029526Y037132*
X029516Y037123*
X029506Y037113*
X029496Y037103*
X029488Y037092*
X02948Y03708*
X029473Y037068*
X029467Y037056*
X029462Y037043*
X029457Y03703*
X029454Y037016*
X029451Y037002*
X02945Y036988*
X02945Y036975*
X02945Y036961*
X029451Y036947*
X029454Y036933*
X029457Y036919*
X029462Y036906*
X029467Y036893*
X029473Y036881*
X02948Y036869*
X029488Y036857*
X029496Y036846*
X029506Y036836*
X029516Y036826*
X029526Y036817*
X029538Y036809*
X02955Y036801*
X029562Y036795*
X029575Y036789*
X029588Y036784*
X029601Y03678*
X029615Y036778*
X029629Y036776*
X029643Y036775*
X029656*
X02967Y036776*
X029684Y036778*
X029698Y03678*
X029711Y036784*
X029724Y036789*
X029737Y036795*
X02975Y036801*
X029761Y036809*
X029773Y036817*
X029783Y036826*
X029793Y036836*
X029803Y036846*
X029811Y036857*
X029819Y036869*
X029826Y036881*
X029832Y036893*
X029837Y036906*
X029842Y036919*
X029845Y036933*
X029848Y036947*
X029849Y036961*
X02985Y036975*
X03685Y04525D02*
D01*
X036849Y045263*
X036848Y045277*
X036845Y045291*
X036842Y045305*
X036837Y045318*
X036832Y045331*
X036826Y045343*
X036819Y045355*
X036811Y045367*
X036803Y045378*
X036793Y045388*
X036783Y045398*
X036773Y045407*
X036761Y045415*
X03675Y045423*
X036737Y045429*
X036724Y045435*
X036711Y04544*
X036698Y045444*
X036684Y045446*
X03667Y045448*
X036656Y045449*
X036643*
X036629Y045448*
X036615Y045446*
X036601Y045444*
X036588Y04544*
X036575Y045435*
X036562Y045429*
X03655Y045423*
X036538Y045415*
X036526Y045407*
X036516Y045398*
X036506Y045388*
X036496Y045378*
X036488Y045367*
X03648Y045355*
X036473Y045343*
X036467Y045331*
X036462Y045318*
X036457Y045305*
X036454Y045291*
X036451Y045277*
X03645Y045263*
X03645Y04525*
X03645Y045236*
X036451Y045222*
X036454Y045208*
X036457Y045194*
X036462Y045181*
X036467Y045168*
X036473Y045156*
X03648Y045144*
X036488Y045132*
X036496Y045121*
X036506Y045111*
X036516Y045101*
X036526Y045092*
X036538Y045084*
X03655Y045076*
X036562Y04507*
X036575Y045064*
X036588Y045059*
X036601Y045055*
X036615Y045053*
X036629Y045051*
X036643Y04505*
X036656*
X03667Y045051*
X036684Y045053*
X036698Y045055*
X036711Y045059*
X036724Y045064*
X036737Y04507*
X03675Y045076*
X036761Y045084*
X036773Y045092*
X036783Y045101*
X036793Y045111*
X036803Y045121*
X036811Y045132*
X036819Y045144*
X036826Y045156*
X036832Y045168*
X036837Y045181*
X036842Y045194*
X036845Y045208*
X036848Y045222*
X036849Y045236*
X03685Y04525*
X030975Y03785D02*
D01*
X030974Y037863*
X030973Y037877*
X03097Y037891*
X030967Y037905*
X030962Y037918*
X030957Y037931*
X030951Y037943*
X030944Y037955*
X030936Y037967*
X030928Y037978*
X030918Y037988*
X030908Y037998*
X030898Y038007*
X030886Y038015*
X030875Y038023*
X030862Y038029*
X030849Y038035*
X030836Y03804*
X030823Y038044*
X030809Y038046*
X030795Y038048*
X030781Y038049*
X030768*
X030754Y038048*
X03074Y038046*
X030726Y038044*
X030713Y03804*
X0307Y038035*
X030687Y038029*
X030675Y038023*
X030663Y038015*
X030651Y038007*
X030641Y037998*
X030631Y037988*
X030621Y037978*
X030613Y037967*
X030605Y037955*
X030598Y037943*
X030592Y037931*
X030587Y037918*
X030582Y037905*
X030579Y037891*
X030576Y037877*
X030575Y037863*
X030575Y03785*
X030575Y037836*
X030576Y037822*
X030579Y037808*
X030582Y037794*
X030587Y037781*
X030592Y037768*
X030598Y037756*
X030605Y037744*
X030613Y037732*
X030621Y037721*
X030631Y037711*
X030641Y037701*
X030651Y037692*
X030663Y037684*
X030675Y037676*
X030687Y03767*
X0307Y037664*
X030713Y037659*
X030726Y037655*
X03074Y037653*
X030754Y037651*
X030768Y03765*
X030781*
X030795Y037651*
X030809Y037653*
X030823Y037655*
X030836Y037659*
X030849Y037664*
X030862Y03767*
X030875Y037676*
X030886Y037684*
X030898Y037692*
X030908Y037701*
X030918Y037711*
X030928Y037721*
X030936Y037732*
X030944Y037744*
X030951Y037756*
X030957Y037768*
X030962Y037781*
X030967Y037794*
X03097Y037808*
X030973Y037822*
X030974Y037836*
X030975Y03785*
X0301Y043775D02*
D01*
X030099Y043788*
X030098Y043802*
X030095Y043816*
X030092Y04383*
X030087Y043843*
X030082Y043856*
X030076Y043868*
X030069Y04388*
X030061Y043892*
X030053Y043903*
X030043Y043913*
X030033Y043923*
X030023Y043932*
X030011Y04394*
X03Y043948*
X029987Y043954*
X029974Y04396*
X029961Y043965*
X029948Y043969*
X029934Y043971*
X02992Y043973*
X029906Y043974*
X029893*
X029879Y043973*
X029865Y043971*
X029851Y043969*
X029838Y043965*
X029825Y04396*
X029812Y043954*
X0298Y043948*
X029788Y04394*
X029776Y043932*
X029766Y043923*
X029756Y043913*
X029746Y043903*
X029738Y043892*
X02973Y04388*
X029723Y043868*
X029717Y043856*
X029712Y043843*
X029707Y04383*
X029704Y043816*
X029701Y043802*
X0297Y043788*
X0297Y043775*
X0297Y043761*
X029701Y043747*
X029704Y043733*
X029707Y043719*
X029712Y043706*
X029717Y043693*
X029723Y043681*
X02973Y043669*
X029738Y043657*
X029746Y043646*
X029756Y043636*
X029766Y043626*
X029776Y043617*
X029788Y043609*
X0298Y043601*
X029812Y043595*
X029825Y043589*
X029838Y043584*
X029851Y04358*
X029865Y043578*
X029879Y043576*
X029893Y043575*
X029906*
X02992Y043576*
X029934Y043578*
X029948Y04358*
X029961Y043584*
X029974Y043589*
X029987Y043595*
X03Y043601*
X030011Y043609*
X030023Y043617*
X030033Y043626*
X030043Y043636*
X030053Y043646*
X030061Y043657*
X030069Y043669*
X030076Y043681*
X030082Y043693*
X030087Y043706*
X030092Y043719*
X030095Y043733*
X030098Y043747*
X030099Y043761*
X0301Y043775*
X030125Y04435D02*
D01*
X030124Y044363*
X030123Y044377*
X03012Y044391*
X030117Y044405*
X030112Y044418*
X030107Y044431*
X030101Y044443*
X030094Y044455*
X030086Y044467*
X030078Y044478*
X030068Y044488*
X030058Y044498*
X030048Y044507*
X030036Y044515*
X030025Y044523*
X030012Y044529*
X029999Y044535*
X029986Y04454*
X029973Y044544*
X029959Y044546*
X029945Y044548*
X029931Y044549*
X029918*
X029904Y044548*
X02989Y044546*
X029876Y044544*
X029863Y04454*
X02985Y044535*
X029837Y044529*
X029825Y044523*
X029813Y044515*
X029801Y044507*
X029791Y044498*
X029781Y044488*
X029771Y044478*
X029763Y044467*
X029755Y044455*
X029748Y044443*
X029742Y044431*
X029737Y044418*
X029732Y044405*
X029729Y044391*
X029726Y044377*
X029725Y044363*
X029725Y04435*
X029725Y044336*
X029726Y044322*
X029729Y044308*
X029732Y044294*
X029737Y044281*
X029742Y044268*
X029748Y044256*
X029755Y044244*
X029763Y044232*
X029771Y044221*
X029781Y044211*
X029791Y044201*
X029801Y044192*
X029813Y044184*
X029825Y044176*
X029837Y04417*
X02985Y044164*
X029863Y044159*
X029876Y044155*
X02989Y044153*
X029904Y044151*
X029918Y04415*
X029931*
X029945Y044151*
X029959Y044153*
X029973Y044155*
X029986Y044159*
X029999Y044164*
X030012Y04417*
X030025Y044176*
X030036Y044184*
X030048Y044192*
X030058Y044201*
X030068Y044211*
X030078Y044221*
X030086Y044232*
X030094Y044244*
X030101Y044256*
X030107Y044268*
X030112Y044281*
X030117Y044294*
X03012Y044308*
X030123Y044322*
X030124Y044336*
X030125Y04435*
X030025Y045D02*
D01*
X030024Y045013*
X030023Y045027*
X03002Y045041*
X030017Y045055*
X030012Y045068*
X030007Y045081*
X030001Y045093*
X029994Y045105*
X029986Y045117*
X029978Y045128*
X029968Y045138*
X029958Y045148*
X029948Y045157*
X029936Y045165*
X029925Y045173*
X029912Y045179*
X029899Y045185*
X029886Y04519*
X029873Y045194*
X029859Y045196*
X029845Y045198*
X029831Y045199*
X029818*
X029804Y045198*
X02979Y045196*
X029776Y045194*
X029763Y04519*
X02975Y045185*
X029737Y045179*
X029725Y045173*
X029713Y045165*
X029701Y045157*
X029691Y045148*
X029681Y045138*
X029671Y045128*
X029663Y045117*
X029655Y045105*
X029648Y045093*
X029642Y045081*
X029637Y045068*
X029632Y045055*
X029629Y045041*
X029626Y045027*
X029625Y045013*
X029625Y045*
X029625Y044986*
X029626Y044972*
X029629Y044958*
X029632Y044944*
X029637Y044931*
X029642Y044918*
X029648Y044906*
X029655Y044894*
X029663Y044882*
X029671Y044871*
X029681Y044861*
X029691Y044851*
X029701Y044842*
X029713Y044834*
X029725Y044826*
X029737Y04482*
X02975Y044814*
X029763Y044809*
X029776Y044805*
X02979Y044803*
X029804Y044801*
X029818Y0448*
X029831*
X029845Y044801*
X029859Y044803*
X029873Y044805*
X029886Y044809*
X029899Y044814*
X029912Y04482*
X029925Y044826*
X029936Y044834*
X029948Y044842*
X029958Y044851*
X029968Y044861*
X029978Y044871*
X029986Y044882*
X029994Y044894*
X030001Y044906*
X030007Y044918*
X030012Y044931*
X030017Y044944*
X03002Y044958*
X030023Y044972*
X030024Y044986*
X030025Y045*
X03055Y048225D02*
D01*
X030549Y048238*
X030548Y048252*
X030545Y048266*
X030542Y04828*
X030537Y048293*
X030532Y048306*
X030526Y048318*
X030519Y04833*
X030511Y048342*
X030503Y048353*
X030493Y048363*
X030483Y048373*
X030473Y048382*
X030461Y04839*
X03045Y048398*
X030437Y048404*
X030424Y04841*
X030411Y048415*
X030398Y048419*
X030384Y048421*
X03037Y048423*
X030356Y048424*
X030343*
X030329Y048423*
X030315Y048421*
X030301Y048419*
X030288Y048415*
X030275Y04841*
X030262Y048404*
X03025Y048398*
X030238Y04839*
X030226Y048382*
X030216Y048373*
X030206Y048363*
X030196Y048353*
X030188Y048342*
X03018Y04833*
X030173Y048318*
X030167Y048306*
X030162Y048293*
X030157Y04828*
X030154Y048266*
X030151Y048252*
X03015Y048238*
X03015Y048225*
X03015Y048211*
X030151Y048197*
X030154Y048183*
X030157Y048169*
X030162Y048156*
X030167Y048143*
X030173Y048131*
X03018Y048119*
X030188Y048107*
X030196Y048096*
X030206Y048086*
X030216Y048076*
X030226Y048067*
X030238Y048059*
X03025Y048051*
X030262Y048045*
X030275Y048039*
X030288Y048034*
X030301Y04803*
X030315Y048028*
X030329Y048026*
X030343Y048025*
X030356*
X03037Y048026*
X030384Y048028*
X030398Y04803*
X030411Y048034*
X030424Y048039*
X030437Y048045*
X03045Y048051*
X030461Y048059*
X030473Y048067*
X030483Y048076*
X030493Y048086*
X030503Y048096*
X030511Y048107*
X030519Y048119*
X030526Y048131*
X030532Y048143*
X030537Y048156*
X030542Y048169*
X030545Y048183*
X030548Y048197*
X030549Y048211*
X03055Y048225*
Y044975D02*
D01*
X030549Y044988*
X030548Y045002*
X030545Y045016*
X030542Y04503*
X030537Y045043*
X030532Y045056*
X030526Y045068*
X030519Y04508*
X030511Y045092*
X030503Y045103*
X030493Y045113*
X030483Y045123*
X030473Y045132*
X030461Y04514*
X03045Y045148*
X030437Y045154*
X030424Y04516*
X030411Y045165*
X030398Y045169*
X030384Y045171*
X03037Y045173*
X030356Y045174*
X030343*
X030329Y045173*
X030315Y045171*
X030301Y045169*
X030288Y045165*
X030275Y04516*
X030262Y045154*
X03025Y045148*
X030238Y04514*
X030226Y045132*
X030216Y045123*
X030206Y045113*
X030196Y045103*
X030188Y045092*
X03018Y04508*
X030173Y045068*
X030167Y045056*
X030162Y045043*
X030157Y04503*
X030154Y045016*
X030151Y045002*
X03015Y044988*
X03015Y044975*
X03015Y044961*
X030151Y044947*
X030154Y044933*
X030157Y044919*
X030162Y044906*
X030167Y044893*
X030173Y044881*
X03018Y044869*
X030188Y044857*
X030196Y044846*
X030206Y044836*
X030216Y044826*
X030226Y044817*
X030238Y044809*
X03025Y044801*
X030262Y044795*
X030275Y044789*
X030288Y044784*
X030301Y04478*
X030315Y044778*
X030329Y044776*
X030343Y044775*
X030356*
X03037Y044776*
X030384Y044778*
X030398Y04478*
X030411Y044784*
X030424Y044789*
X030437Y044795*
X03045Y044801*
X030461Y044809*
X030473Y044817*
X030483Y044826*
X030493Y044836*
X030503Y044846*
X030511Y044857*
X030519Y044869*
X030526Y044881*
X030532Y044893*
X030537Y044906*
X030542Y044919*
X030545Y044933*
X030548Y044947*
X030549Y044961*
X03055Y044975*
X03075Y0383D02*
D01*
X030749Y038313*
X030748Y038327*
X030745Y038341*
X030742Y038355*
X030737Y038368*
X030732Y038381*
X030726Y038393*
X030719Y038405*
X030711Y038417*
X030703Y038428*
X030693Y038438*
X030683Y038448*
X030673Y038457*
X030661Y038465*
X03065Y038473*
X030637Y038479*
X030624Y038485*
X030611Y03849*
X030598Y038494*
X030584Y038496*
X03057Y038498*
X030556Y038499*
X030543*
X030529Y038498*
X030515Y038496*
X030501Y038494*
X030488Y03849*
X030475Y038485*
X030462Y038479*
X03045Y038473*
X030438Y038465*
X030426Y038457*
X030416Y038448*
X030406Y038438*
X030396Y038428*
X030388Y038417*
X03038Y038405*
X030373Y038393*
X030367Y038381*
X030362Y038368*
X030357Y038355*
X030354Y038341*
X030351Y038327*
X03035Y038313*
X03035Y0383*
X03035Y038286*
X030351Y038272*
X030354Y038258*
X030357Y038244*
X030362Y038231*
X030367Y038218*
X030373Y038206*
X03038Y038194*
X030388Y038182*
X030396Y038171*
X030406Y038161*
X030416Y038151*
X030426Y038142*
X030438Y038134*
X03045Y038126*
X030462Y03812*
X030475Y038114*
X030488Y038109*
X030501Y038105*
X030515Y038103*
X030529Y038101*
X030543Y0381*
X030556*
X03057Y038101*
X030584Y038103*
X030598Y038105*
X030611Y038109*
X030624Y038114*
X030637Y03812*
X03065Y038126*
X030661Y038134*
X030673Y038142*
X030683Y038151*
X030693Y038161*
X030703Y038171*
X030711Y038182*
X030719Y038194*
X030726Y038206*
X030732Y038218*
X030737Y038231*
X030742Y038244*
X030745Y038258*
X030748Y038272*
X030749Y038286*
X03075Y0383*
X0342Y0388D02*
D01*
X034199Y038813*
X034198Y038827*
X034195Y038841*
X034192Y038855*
X034187Y038868*
X034182Y038881*
X034176Y038893*
X034169Y038905*
X034161Y038917*
X034153Y038928*
X034143Y038938*
X034133Y038948*
X034123Y038957*
X034111Y038965*
X0341Y038973*
X034087Y038979*
X034074Y038985*
X034061Y03899*
X034048Y038994*
X034034Y038996*
X03402Y038998*
X034006Y038999*
X033993*
X033979Y038998*
X033965Y038996*
X033951Y038994*
X033938Y03899*
X033925Y038985*
X033912Y038979*
X0339Y038973*
X033888Y038965*
X033876Y038957*
X033866Y038948*
X033856Y038938*
X033846Y038928*
X033838Y038917*
X03383Y038905*
X033823Y038893*
X033817Y038881*
X033812Y038868*
X033807Y038855*
X033804Y038841*
X033801Y038827*
X0338Y038813*
X0338Y0388*
X0338Y038786*
X033801Y038772*
X033804Y038758*
X033807Y038744*
X033812Y038731*
X033817Y038718*
X033823Y038706*
X03383Y038694*
X033838Y038682*
X033846Y038671*
X033856Y038661*
X033866Y038651*
X033876Y038642*
X033888Y038634*
X0339Y038626*
X033912Y03862*
X033925Y038614*
X033938Y038609*
X033951Y038605*
X033965Y038603*
X033979Y038601*
X033993Y0386*
X034006*
X03402Y038601*
X034034Y038603*
X034048Y038605*
X034061Y038609*
X034074Y038614*
X034087Y03862*
X0341Y038626*
X034111Y038634*
X034123Y038642*
X034133Y038651*
X034143Y038661*
X034153Y038671*
X034161Y038682*
X034169Y038694*
X034176Y038706*
X034182Y038718*
X034187Y038731*
X034192Y038744*
X034195Y038758*
X034198Y038772*
X034199Y038786*
X0342Y0388*
X033475Y04465D02*
D01*
X033474Y044663*
X033473Y044677*
X03347Y044691*
X033467Y044705*
X033462Y044718*
X033457Y044731*
X033451Y044743*
X033444Y044755*
X033436Y044767*
X033428Y044778*
X033418Y044788*
X033408Y044798*
X033398Y044807*
X033386Y044815*
X033375Y044823*
X033362Y044829*
X033349Y044835*
X033336Y04484*
X033323Y044844*
X033309Y044846*
X033295Y044848*
X033281Y044849*
X033268*
X033254Y044848*
X03324Y044846*
X033226Y044844*
X033213Y04484*
X0332Y044835*
X033187Y044829*
X033175Y044823*
X033163Y044815*
X033151Y044807*
X033141Y044798*
X033131Y044788*
X033121Y044778*
X033113Y044767*
X033105Y044755*
X033098Y044743*
X033092Y044731*
X033087Y044718*
X033082Y044705*
X033079Y044691*
X033076Y044677*
X033075Y044663*
X033075Y04465*
X033075Y044636*
X033076Y044622*
X033079Y044608*
X033082Y044594*
X033087Y044581*
X033092Y044568*
X033098Y044556*
X033105Y044544*
X033113Y044532*
X033121Y044521*
X033131Y044511*
X033141Y044501*
X033151Y044492*
X033163Y044484*
X033175Y044476*
X033187Y04447*
X0332Y044464*
X033213Y044459*
X033226Y044455*
X03324Y044453*
X033254Y044451*
X033268Y04445*
X033281*
X033295Y044451*
X033309Y044453*
X033323Y044455*
X033336Y044459*
X033349Y044464*
X033362Y04447*
X033375Y044476*
X033386Y044484*
X033398Y044492*
X033408Y044501*
X033418Y044511*
X033428Y044521*
X033436Y044532*
X033444Y044544*
X033451Y044556*
X033457Y044568*
X033462Y044581*
X033467Y044594*
X03347Y044608*
X033473Y044622*
X033474Y044636*
X033475Y04465*
X028575Y039275D02*
D01*
X028574Y039288*
X028573Y039302*
X02857Y039316*
X028567Y03933*
X028562Y039343*
X028557Y039356*
X028551Y039368*
X028544Y03938*
X028536Y039392*
X028528Y039403*
X028518Y039413*
X028508Y039423*
X028498Y039432*
X028486Y03944*
X028475Y039448*
X028462Y039454*
X028449Y03946*
X028436Y039465*
X028423Y039469*
X028409Y039471*
X028395Y039473*
X028381Y039474*
X028368*
X028354Y039473*
X02834Y039471*
X028326Y039469*
X028313Y039465*
X0283Y03946*
X028287Y039454*
X028275Y039448*
X028263Y03944*
X028251Y039432*
X028241Y039423*
X028231Y039413*
X028221Y039403*
X028213Y039392*
X028205Y03938*
X028198Y039368*
X028192Y039356*
X028187Y039343*
X028182Y03933*
X028179Y039316*
X028176Y039302*
X028175Y039288*
X028175Y039275*
X028175Y039261*
X028176Y039247*
X028179Y039233*
X028182Y039219*
X028187Y039206*
X028192Y039193*
X028198Y039181*
X028205Y039169*
X028213Y039157*
X028221Y039146*
X028231Y039136*
X028241Y039126*
X028251Y039117*
X028263Y039109*
X028275Y039101*
X028287Y039095*
X0283Y039089*
X028313Y039084*
X028326Y03908*
X02834Y039078*
X028354Y039076*
X028368Y039075*
X028381*
X028395Y039076*
X028409Y039078*
X028423Y03908*
X028436Y039084*
X028449Y039089*
X028462Y039095*
X028475Y039101*
X028486Y039109*
X028498Y039117*
X028508Y039126*
X028518Y039136*
X028528Y039146*
X028536Y039157*
X028544Y039169*
X028551Y039181*
X028557Y039193*
X028562Y039206*
X028567Y039219*
X02857Y039233*
X028573Y039247*
X028574Y039261*
X028575Y039275*
X032Y0438D02*
D01*
X031999Y043813*
X031998Y043827*
X031995Y043841*
X031992Y043855*
X031987Y043868*
X031982Y043881*
X031976Y043893*
X031969Y043905*
X031961Y043917*
X031953Y043928*
X031943Y043938*
X031933Y043948*
X031923Y043957*
X031911Y043965*
X0319Y043973*
X031887Y043979*
X031874Y043985*
X031861Y04399*
X031848Y043994*
X031834Y043996*
X03182Y043998*
X031806Y043999*
X031793*
X031779Y043998*
X031765Y043996*
X031751Y043994*
X031738Y04399*
X031725Y043985*
X031712Y043979*
X0317Y043973*
X031688Y043965*
X031676Y043957*
X031666Y043948*
X031656Y043938*
X031646Y043928*
X031638Y043917*
X03163Y043905*
X031623Y043893*
X031617Y043881*
X031612Y043868*
X031607Y043855*
X031604Y043841*
X031601Y043827*
X0316Y043813*
X0316Y0438*
X0316Y043786*
X031601Y043772*
X031604Y043758*
X031607Y043744*
X031612Y043731*
X031617Y043718*
X031623Y043706*
X03163Y043694*
X031638Y043682*
X031646Y043671*
X031656Y043661*
X031666Y043651*
X031676Y043642*
X031688Y043634*
X0317Y043626*
X031712Y04362*
X031725Y043614*
X031738Y043609*
X031751Y043605*
X031765Y043603*
X031779Y043601*
X031793Y0436*
X031806*
X03182Y043601*
X031834Y043603*
X031848Y043605*
X031861Y043609*
X031874Y043614*
X031887Y04362*
X0319Y043626*
X031911Y043634*
X031923Y043642*
X031933Y043651*
X031943Y043661*
X031953Y043671*
X031961Y043682*
X031969Y043694*
X031976Y043706*
X031982Y043718*
X031987Y043731*
X031992Y043744*
X031995Y043758*
X031998Y043772*
X031999Y043786*
X032Y0438*
X028275Y047775D02*
D01*
X028274Y047788*
X028273Y047802*
X02827Y047816*
X028267Y04783*
X028262Y047843*
X028257Y047856*
X028251Y047868*
X028244Y04788*
X028236Y047892*
X028228Y047903*
X028218Y047913*
X028208Y047923*
X028198Y047932*
X028186Y04794*
X028175Y047948*
X028162Y047954*
X028149Y04796*
X028136Y047965*
X028123Y047969*
X028109Y047971*
X028095Y047973*
X028081Y047974*
X028068*
X028054Y047973*
X02804Y047971*
X028026Y047969*
X028013Y047965*
X028Y04796*
X027987Y047954*
X027975Y047948*
X027963Y04794*
X027951Y047932*
X027941Y047923*
X027931Y047913*
X027921Y047903*
X027913Y047892*
X027905Y04788*
X027898Y047868*
X027892Y047856*
X027887Y047843*
X027882Y04783*
X027879Y047816*
X027876Y047802*
X027875Y047788*
X027875Y047775*
X027875Y047761*
X027876Y047747*
X027879Y047733*
X027882Y047719*
X027887Y047706*
X027892Y047693*
X027898Y047681*
X027905Y047669*
X027913Y047657*
X027921Y047646*
X027931Y047636*
X027941Y047626*
X027951Y047617*
X027963Y047609*
X027975Y047601*
X027987Y047595*
X028Y047589*
X028013Y047584*
X028026Y04758*
X02804Y047578*
X028054Y047576*
X028068Y047575*
X028081*
X028095Y047576*
X028109Y047578*
X028123Y04758*
X028136Y047584*
X028149Y047589*
X028162Y047595*
X028175Y047601*
X028186Y047609*
X028198Y047617*
X028208Y047626*
X028218Y047636*
X028228Y047646*
X028236Y047657*
X028244Y047669*
X028251Y047681*
X028257Y047693*
X028262Y047706*
X028267Y047719*
X02827Y047733*
X028273Y047747*
X028274Y047761*
X028275Y047775*
X029325Y048025D02*
D01*
X029324Y048038*
X029323Y048052*
X02932Y048066*
X029317Y04808*
X029312Y048093*
X029307Y048106*
X029301Y048118*
X029294Y04813*
X029286Y048142*
X029278Y048153*
X029268Y048163*
X029258Y048173*
X029248Y048182*
X029236Y04819*
X029225Y048198*
X029212Y048204*
X029199Y04821*
X029186Y048215*
X029173Y048219*
X029159Y048221*
X029145Y048223*
X029131Y048224*
X029118*
X029104Y048223*
X02909Y048221*
X029076Y048219*
X029063Y048215*
X02905Y04821*
X029037Y048204*
X029025Y048198*
X029013Y04819*
X029001Y048182*
X028991Y048173*
X028981Y048163*
X028971Y048153*
X028963Y048142*
X028955Y04813*
X028948Y048118*
X028942Y048106*
X028937Y048093*
X028932Y04808*
X028929Y048066*
X028926Y048052*
X028925Y048038*
X028925Y048025*
X028925Y048011*
X028926Y047997*
X028929Y047983*
X028932Y047969*
X028937Y047956*
X028942Y047943*
X028948Y047931*
X028955Y047919*
X028963Y047907*
X028971Y047896*
X028981Y047886*
X028991Y047876*
X029001Y047867*
X029013Y047859*
X029025Y047851*
X029037Y047845*
X02905Y047839*
X029063Y047834*
X029076Y04783*
X02909Y047828*
X029104Y047826*
X029118Y047825*
X029131*
X029145Y047826*
X029159Y047828*
X029173Y04783*
X029186Y047834*
X029199Y047839*
X029212Y047845*
X029225Y047851*
X029236Y047859*
X029248Y047867*
X029258Y047876*
X029268Y047886*
X029278Y047896*
X029286Y047907*
X029294Y047919*
X029301Y047931*
X029307Y047943*
X029312Y047956*
X029317Y047969*
X02932Y047983*
X029323Y047997*
X029324Y048011*
X029325Y048025*
X032575Y044275D02*
D01*
X032574Y044288*
X032573Y044302*
X03257Y044316*
X032567Y04433*
X032562Y044343*
X032557Y044356*
X032551Y044368*
X032544Y04438*
X032536Y044392*
X032528Y044403*
X032518Y044413*
X032508Y044423*
X032498Y044432*
X032486Y04444*
X032475Y044448*
X032462Y044454*
X032449Y04446*
X032436Y044465*
X032423Y044469*
X032409Y044471*
X032395Y044473*
X032381Y044474*
X032368*
X032354Y044473*
X03234Y044471*
X032326Y044469*
X032313Y044465*
X0323Y04446*
X032287Y044454*
X032275Y044448*
X032263Y04444*
X032251Y044432*
X032241Y044423*
X032231Y044413*
X032221Y044403*
X032213Y044392*
X032205Y04438*
X032198Y044368*
X032192Y044356*
X032187Y044343*
X032182Y04433*
X032179Y044316*
X032176Y044302*
X032175Y044288*
X032175Y044275*
X032175Y044261*
X032176Y044247*
X032179Y044233*
X032182Y044219*
X032187Y044206*
X032192Y044193*
X032198Y044181*
X032205Y044169*
X032213Y044157*
X032221Y044146*
X032231Y044136*
X032241Y044126*
X032251Y044117*
X032263Y044109*
X032275Y044101*
X032287Y044095*
X0323Y044089*
X032313Y044084*
X032326Y04408*
X03234Y044078*
X032354Y044076*
X032368Y044075*
X032381*
X032395Y044076*
X032409Y044078*
X032423Y04408*
X032436Y044084*
X032449Y044089*
X032462Y044095*
X032475Y044101*
X032486Y044109*
X032498Y044117*
X032508Y044126*
X032518Y044136*
X032528Y044146*
X032536Y044157*
X032544Y044169*
X032551Y044181*
X032557Y044193*
X032562Y044206*
X032567Y044219*
X03257Y044233*
X032573Y044247*
X032574Y044261*
X032575Y044275*
X0317Y0486D02*
D01*
X031699Y048613*
X031698Y048627*
X031695Y048641*
X031692Y048655*
X031687Y048668*
X031682Y048681*
X031676Y048693*
X031669Y048705*
X031661Y048717*
X031653Y048728*
X031643Y048738*
X031633Y048748*
X031623Y048757*
X031611Y048765*
X0316Y048773*
X031587Y048779*
X031574Y048785*
X031561Y04879*
X031548Y048794*
X031534Y048796*
X03152Y048798*
X031506Y048799*
X031493*
X031479Y048798*
X031465Y048796*
X031451Y048794*
X031438Y04879*
X031425Y048785*
X031412Y048779*
X0314Y048773*
X031388Y048765*
X031376Y048757*
X031366Y048748*
X031356Y048738*
X031346Y048728*
X031338Y048717*
X03133Y048705*
X031323Y048693*
X031317Y048681*
X031312Y048668*
X031307Y048655*
X031304Y048641*
X031301Y048627*
X0313Y048613*
X0313Y0486*
X0313Y048586*
X031301Y048572*
X031304Y048558*
X031307Y048544*
X031312Y048531*
X031317Y048518*
X031323Y048506*
X03133Y048494*
X031338Y048482*
X031346Y048471*
X031356Y048461*
X031366Y048451*
X031376Y048442*
X031388Y048434*
X0314Y048426*
X031412Y04842*
X031425Y048414*
X031438Y048409*
X031451Y048405*
X031465Y048403*
X031479Y048401*
X031493Y0484*
X031506*
X03152Y048401*
X031534Y048403*
X031548Y048405*
X031561Y048409*
X031574Y048414*
X031587Y04842*
X0316Y048426*
X031611Y048434*
X031623Y048442*
X031633Y048451*
X031643Y048461*
X031653Y048471*
X031661Y048482*
X031669Y048494*
X031676Y048506*
X031682Y048518*
X031687Y048531*
X031692Y048544*
X031695Y048558*
X031698Y048572*
X031699Y048586*
X0317Y0486*
X031725Y038175D02*
D01*
X031724Y038188*
X031723Y038202*
X03172Y038216*
X031717Y03823*
X031712Y038243*
X031707Y038256*
X031701Y038268*
X031694Y03828*
X031686Y038292*
X031678Y038303*
X031668Y038313*
X031658Y038323*
X031648Y038332*
X031636Y03834*
X031625Y038348*
X031612Y038354*
X031599Y03836*
X031586Y038365*
X031573Y038369*
X031559Y038371*
X031545Y038373*
X031531Y038374*
X031518*
X031504Y038373*
X03149Y038371*
X031476Y038369*
X031463Y038365*
X03145Y03836*
X031437Y038354*
X031425Y038348*
X031413Y03834*
X031401Y038332*
X031391Y038323*
X031381Y038313*
X031371Y038303*
X031363Y038292*
X031355Y03828*
X031348Y038268*
X031342Y038256*
X031337Y038243*
X031332Y03823*
X031329Y038216*
X031326Y038202*
X031325Y038188*
X031325Y038175*
X031325Y038161*
X031326Y038147*
X031329Y038133*
X031332Y038119*
X031337Y038106*
X031342Y038093*
X031348Y038081*
X031355Y038069*
X031363Y038057*
X031371Y038046*
X031381Y038036*
X031391Y038026*
X031401Y038017*
X031413Y038009*
X031425Y038001*
X031437Y037995*
X03145Y037989*
X031463Y037984*
X031476Y03798*
X03149Y037978*
X031504Y037976*
X031518Y037975*
X031531*
X031545Y037976*
X031559Y037978*
X031573Y03798*
X031586Y037984*
X031599Y037989*
X031612Y037995*
X031625Y038001*
X031636Y038009*
X031648Y038017*
X031658Y038026*
X031668Y038036*
X031678Y038046*
X031686Y038057*
X031694Y038069*
X031701Y038081*
X031707Y038093*
X031712Y038106*
X031717Y038119*
X03172Y038133*
X031723Y038147*
X031724Y038161*
X031725Y038175*
X0315Y037775D02*
D01*
X031499Y037788*
X031498Y037802*
X031495Y037816*
X031492Y03783*
X031487Y037843*
X031482Y037856*
X031476Y037868*
X031469Y03788*
X031461Y037892*
X031453Y037903*
X031443Y037913*
X031433Y037923*
X031423Y037932*
X031411Y03794*
X0314Y037948*
X031387Y037954*
X031374Y03796*
X031361Y037965*
X031348Y037969*
X031334Y037971*
X03132Y037973*
X031306Y037974*
X031293*
X031279Y037973*
X031265Y037971*
X031251Y037969*
X031238Y037965*
X031225Y03796*
X031212Y037954*
X0312Y037948*
X031188Y03794*
X031176Y037932*
X031166Y037923*
X031156Y037913*
X031146Y037903*
X031138Y037892*
X03113Y03788*
X031123Y037868*
X031117Y037856*
X031112Y037843*
X031107Y03783*
X031104Y037816*
X031101Y037802*
X0311Y037788*
X0311Y037775*
X0311Y037761*
X031101Y037747*
X031104Y037733*
X031107Y037719*
X031112Y037706*
X031117Y037693*
X031123Y037681*
X03113Y037669*
X031138Y037657*
X031146Y037646*
X031156Y037636*
X031166Y037626*
X031176Y037617*
X031188Y037609*
X0312Y037601*
X031212Y037595*
X031225Y037589*
X031238Y037584*
X031251Y03758*
X031265Y037578*
X031279Y037576*
X031293Y037575*
X031306*
X03132Y037576*
X031334Y037578*
X031348Y03758*
X031361Y037584*
X031374Y037589*
X031387Y037595*
X0314Y037601*
X031411Y037609*
X031423Y037617*
X031433Y037626*
X031443Y037636*
X031453Y037646*
X031461Y037657*
X031469Y037669*
X031476Y037681*
X031482Y037693*
X031487Y037706*
X031492Y037719*
X031495Y037733*
X031498Y037747*
X031499Y037761*
X0315Y037775*
M02*