%FSTAX24Y24*%
%MOIN*%
%SFA1B1*%

%IPPOS*%
%ADD21R,0.059060X0.059060*%
%ADD22C,0.059060*%
%ADD23R,0.059060X0.059060*%
%ADD24C,0.023620*%
%ADD25C,0.050000*%
%ADD26C,0.040000*%
%ADD27C,0.025980*%
%LNa3988_breakout-1*%
%LPD*%
G36*
X038176Y046115D02*
Y036115D01*
X036176Y034115*
X026176*
X024176Y036115*
Y046115*
X026176Y048115*
X028903*
X028935Y048076*
X028925Y048025*
X02894Y047948*
X028983Y047883*
X029048Y04784*
X029125Y047825*
X029201Y04784*
X029266Y047883*
X029309Y047948*
X029325Y048025*
X029314Y048076*
X029346Y048115*
X030187*
X030208Y048083*
X030273Y04804*
X03035Y048025*
X030426Y04804*
X030491Y048083*
X030512Y048115*
X032272*
X032277Y048065*
X032248Y048059*
X032183Y048016*
X03214Y047951*
X032125Y047875*
X03214Y047798*
X032183Y047733*
X032248Y04769*
X032325Y047675*
X032401Y04769*
X032466Y047733*
X032509Y047798*
X032525Y047875*
X032509Y047951*
X032466Y048016*
X032401Y048059*
X032372Y048065*
X032377Y048115*
X036176*
X038176Y046115*
G37*
%LNa3988_breakout-2*%
%LPC*%
G36*
X028375Y039474D02*
X028298Y039459D01*
X028233Y039416*
X02819Y039351*
X028175Y039275*
X02819Y039198*
X028233Y039133*
X028298Y03909*
X028375Y039075*
X028451Y03909*
X028516Y039133*
X028559Y039198*
X028575Y039275*
X028559Y039351*
X028516Y039416*
X028451Y039459*
X028375Y039474*
G37*
G36*
X025425Y03978D02*
X025339Y039769D01*
X025259Y039736*
X025191Y039683*
X025138Y039615*
X025105Y039535*
X025094Y03945*
X025105Y039364*
X025138Y039284*
X025191Y039216*
X025259Y039163*
X025339Y03913*
X025425Y039119*
X02551Y03913*
X02559Y039163*
X025658Y039216*
X025711Y039284*
X025744Y039364*
X025755Y03945*
X025744Y039535*
X025711Y039615*
X025658Y039683*
X02559Y039736*
X02551Y039769*
X025425Y03978*
G37*
G36*
X03055Y038499D02*
X030473Y038484D01*
X030408Y038441*
X030365Y038376*
X03035Y0383*
X030365Y038223*
X030408Y038158*
X030473Y038115*
X03055Y0381*
X030626Y038115*
X030691Y038158*
X030734Y038223*
X03075Y0383*
X030734Y038376*
X030691Y038441*
X030626Y038484*
X03055Y038499*
G37*
G36*
X034Y039D02*
X033923Y038984D01*
X033858Y038941*
X033815Y038876*
X0338Y0388*
X033815Y038723*
X033858Y038658*
X033923Y038615*
X034Y0386*
X034076Y038615*
X034141Y038658*
X034184Y038723*
X0342Y0388*
X034184Y038876*
X034141Y038941*
X034076Y038984*
X034Y039*
G37*
G36*
X035925Y039905D02*
X035839Y039894D01*
X035759Y039861*
X035691Y039808*
X035638Y03974*
X035605Y03966*
X035594Y039575*
X035605Y039489*
X035638Y039409*
X035691Y039341*
X035759Y039288*
X035839Y039255*
X035925Y039244*
X03601Y039255*
X03609Y039288*
X036158Y039341*
X036211Y039409*
X036244Y039489*
X036255Y039575*
X036244Y03966*
X036211Y03974*
X036158Y039808*
X03609Y039861*
X03601Y039894*
X035925Y039905*
G37*
G36*
X026096Y04125D02*
X0258D01*
Y040953*
X025841Y040959*
X025926Y040994*
X025999Y04105*
X026055Y041123*
X026091Y041208*
X026096Y04125*
G37*
G36*
X0368Y0413D02*
X036503D01*
X036509Y041258*
X036544Y041173*
X0366Y0411*
X036673Y041044*
X036758Y041009*
X0368Y041003*
Y0413*
G37*
G36*
X02875Y039774D02*
X028673Y039759D01*
X028608Y039716*
X028565Y039651*
X02855Y039575*
X028565Y039498*
X028608Y039433*
X028673Y03939*
X02875Y039375*
X028826Y03939*
X028891Y039433*
X028934Y039498*
X028949Y039575*
X028934Y039651*
X028891Y039716*
X028826Y039759*
X02875Y039774*
G37*
G36*
X0257Y04125D02*
X025403D01*
X025409Y041208*
X025444Y041123*
X0255Y04105*
X025573Y040994*
X025658Y040959*
X0257Y040953*
Y04125*
G37*
G36*
X031525Y038375D02*
X031448Y038359D01*
X031383Y038316*
X03134Y038251*
X031325Y038175*
X03134Y038098*
X031383Y038033*
X031448Y03799*
X031525Y037975*
X031601Y03799*
X031666Y038033*
X031709Y038098*
X031724Y038175*
X031709Y038251*
X031666Y038316*
X031601Y038359*
X031525Y038375*
G37*
G36*
X030923Y036098D02*
X030176D01*
Y035351*
X030923*
Y036098*
G37*
G36*
X0315Y036117D02*
X031446Y03611D01*
X03135Y03607*
X031268Y036006*
X031204Y035924*
X031164Y035828*
X031157Y035775*
X0315*
Y036117*
G37*
G36*
Y035675D02*
X031157D01*
X031164Y035621*
X031204Y035525*
X031268Y035443*
X03135Y035379*
X031446Y035339*
X0315Y035332*
Y035675*
G37*
G36*
X031942D02*
X0316D01*
Y035332*
X031653Y035339*
X031749Y035379*
X031831Y035443*
X031895Y035525*
X031935Y035621*
X031942Y035675*
G37*
G36*
X0316Y036117D02*
Y035775D01*
X031942*
X031935Y035828*
X031895Y035924*
X031831Y036006*
X031749Y03607*
X031653Y03611*
X0316Y036117*
G37*
G36*
X0313Y037974D02*
X031223Y037959D01*
X031158Y037916*
X031115Y037851*
X0311Y037775*
X031115Y037698*
X031158Y037633*
X031223Y03759*
X0313Y037575*
X031376Y03759*
X031441Y037633*
X031484Y037698*
X0315Y037775*
X031484Y037851*
X031441Y037916*
X031376Y037959*
X0313Y037974*
G37*
G36*
X030775Y03805D02*
X030698Y038034D01*
X030633Y037991*
X03059Y037926*
X030575Y03785*
X03059Y037773*
X030633Y037708*
X030698Y037665*
X030775Y03765*
X030851Y037665*
X030916Y037708*
X030959Y037773*
X030975Y03785*
X030959Y037926*
X030916Y037991*
X030851Y038034*
X030775Y03805*
G37*
G36*
X02965Y037174D02*
X029573Y037159D01*
X029508Y037116*
X029465Y037051*
X02945Y036975*
X029465Y036898*
X029508Y036833*
X029573Y03679*
X02965Y036775*
X029726Y03679*
X029791Y036833*
X029834Y036898*
X029849Y036975*
X029834Y037051*
X029791Y037116*
X029726Y037159*
X02965Y037174*
G37*
G36*
X0301Y037599D02*
X030023Y037584D01*
X029958Y037541*
X029915Y037476*
X0299Y0374*
X029915Y037323*
X029958Y037258*
X030023Y037215*
X0301Y0372*
X030176Y037215*
X030241Y037258*
X030284Y037323*
X030299Y0374*
X030284Y037476*
X030241Y037541*
X030176Y037584*
X0301Y037599*
G37*
G36*
X037196Y0413D02*
X0369D01*
Y041003*
X036941Y041009*
X037026Y041044*
X037099Y0411*
X037155Y041173*
X037191Y041258*
X037196Y0413*
G37*
G36*
X025755Y045274D02*
X025682Y045265D01*
X025615Y045237*
X025557Y045192*
X025512Y045134*
X025484Y045067*
X025475Y044994*
X025484Y044921*
X025512Y044854*
X025557Y044796*
X025615Y044751*
X025682Y044723*
X025755Y044714*
X025828Y044723*
X025895Y044751*
X025953Y044796*
X025998Y044854*
X026026Y044921*
X026035Y044994*
X026026Y045067*
X025998Y045134*
X025953Y045192*
X025895Y045237*
X025828Y045265*
X025755Y045274*
G37*
G36*
X03035Y045175D02*
X030273Y045159D01*
X030208Y045116*
X030165Y045051*
X03015Y044975*
X030165Y044898*
X030208Y044833*
X030273Y04479*
X03035Y044775*
X030426Y04479*
X030491Y044833*
X030534Y044898*
X03055Y044975*
X030534Y045051*
X030491Y045116*
X030426Y045159*
X03035Y045175*
G37*
G36*
X029925Y04455D02*
X029848Y044534D01*
X029783Y044491*
X02974Y044426*
X029725Y04435*
X02974Y044273*
X029783Y044208*
X029848Y044165*
X029925Y04415*
X030001Y044165*
X030066Y044208*
X030109Y044273*
X030125Y04435*
X030109Y044426*
X030066Y044491*
X030001Y044534*
X029925Y04455*
G37*
G36*
X033275Y044849D02*
X033198Y044834D01*
X033133Y044791*
X03309Y044726*
X033075Y04465*
X03309Y044573*
X033133Y044508*
X033198Y044465*
X033275Y04445*
X033351Y044465*
X033416Y044508*
X033459Y044573*
X033475Y04465*
X033459Y044726*
X033416Y044791*
X033351Y044834*
X033275Y044849*
G37*
G36*
X029825Y0452D02*
X029748Y045184D01*
X029683Y045141*
X02964Y045076*
X029625Y045*
X02964Y044923*
X029683Y044858*
X029748Y044815*
X029825Y0448*
X029901Y044815*
X029966Y044858*
X030009Y044923*
X030025Y045*
X030009Y045076*
X029966Y045141*
X029901Y045184*
X029825Y0452*
G37*
G36*
X032325Y0474D02*
X032248Y047384D01*
X032183Y047341*
X03214Y047276*
X032125Y0472*
X03214Y047123*
X032183Y047058*
X032248Y047015*
X032325Y047*
X032401Y047015*
X032466Y047058*
X032509Y047123*
X032525Y0472*
X032509Y047276*
X032466Y047341*
X032401Y047384*
X032325Y0474*
G37*
G36*
X028075Y047974D02*
X027998Y047959D01*
X027933Y047916*
X02789Y047851*
X027875Y047775*
X02789Y047698*
X027933Y047633*
X027998Y04759*
X028075Y047575*
X028151Y04759*
X028216Y047633*
X028259Y047698*
X028275Y047775*
X028259Y047851*
X028216Y047916*
X028151Y047959*
X028075Y047974*
G37*
G36*
X0353Y04558D02*
X035227Y04557D01*
X035159Y045542*
X035101Y045498*
X035057Y04544*
X035029Y045372*
X035019Y0453*
X035029Y045227*
X035057Y045159*
X035101Y045101*
X035159Y045057*
X035227Y045029*
X0353Y045019*
X035372Y045029*
X03544Y045057*
X035498Y045101*
X035542Y045159*
X03557Y045227*
X03558Y0453*
X03557Y045372*
X035542Y04544*
X035498Y045498*
X03544Y045542*
X035372Y04557*
X0353Y04558*
G37*
G36*
X03665Y045449D02*
X036573Y045434D01*
X036508Y045391*
X036465Y045326*
X03645Y04525*
X036465Y045173*
X036508Y045108*
X036573Y045065*
X03665Y04505*
X036726Y045065*
X036791Y045108*
X036834Y045173*
X036849Y04525*
X036834Y045326*
X036791Y045391*
X036726Y045434*
X03665Y045449*
G37*
G36*
X032375Y044474D02*
X032298Y044459D01*
X032233Y044416*
X03219Y044351*
X032175Y044275*
X03219Y044198*
X032233Y044133*
X032298Y04409*
X032375Y044075*
X032451Y04409*
X032516Y044133*
X032559Y044198*
X032574Y044275*
X032559Y044351*
X032516Y044416*
X032451Y044459*
X032375Y044474*
G37*
G36*
X0368Y041696D02*
X036758Y041691D01*
X036673Y041655*
X0366Y041599*
X036544Y041526*
X036509Y041441*
X036503Y0414*
X0368*
Y041696*
G37*
G36*
X0369D02*
Y0414D01*
X037196*
X037191Y041441*
X037155Y041526*
X037099Y041599*
X037026Y041655*
X036941Y041691*
X0369Y041696*
G37*
G36*
X0257Y041646D02*
X025658Y041641D01*
X025573Y041605*
X0255Y041549*
X025444Y041476*
X025409Y041391*
X025403Y04135*
X0257*
Y041646*
G37*
G36*
X0258D02*
Y04135D01*
X026096*
X026091Y041391*
X026055Y041476*
X025999Y041549*
X025926Y041605*
X025841Y041641*
X0258Y041646*
G37*
G36*
X025755Y042299D02*
X025682Y04229D01*
X025615Y042262*
X025557Y042217*
X025512Y042159*
X025484Y042092*
X025475Y042019*
X025484Y041946*
X025512Y041879*
X025557Y041821*
X025615Y041776*
X025682Y041748*
X025755Y041739*
X025828Y041748*
X025895Y041776*
X025953Y041821*
X025998Y041879*
X026026Y041946*
X026035Y042019*
X026026Y042092*
X025998Y042159*
X025953Y042217*
X025895Y042262*
X025828Y04229*
X025755Y042299*
G37*
G36*
X0299Y043974D02*
X029823Y043959D01*
X029758Y043916*
X029715Y043851*
X0297Y043775*
X029715Y043698*
X029758Y043633*
X029823Y04359*
X0299Y043575*
X029976Y04359*
X030041Y043633*
X030084Y043698*
X030099Y043775*
X030084Y043851*
X030041Y043916*
X029976Y043959*
X0299Y043974*
G37*
G36*
X0318Y043999D02*
X031723Y043984D01*
X031658Y043941*
X031615Y043876*
X0316Y0438*
X031615Y043723*
X031658Y043658*
X031723Y043615*
X0318Y0436*
X031876Y043615*
X031941Y043658*
X031984Y043723*
X032Y0438*
X031984Y043876*
X031941Y043941*
X031876Y043984*
X0318Y043999*
G37*
G36*
X035305Y042374D02*
X035232Y042365D01*
X035165Y042337*
X035107Y042292*
X035062Y042234*
X035034Y042167*
X035025Y042094*
X035034Y042021*
X035062Y041954*
X035107Y041896*
X035165Y041851*
X035232Y041823*
X035305Y041814*
X035378Y041823*
X035445Y041851*
X035503Y041896*
X035548Y041954*
X035576Y042021*
X035585Y042094*
X035576Y042167*
X035548Y042234*
X035503Y042292*
X035445Y042337*
X035378Y042365*
X035305Y042374*
G37*
G36*
X031958Y04217D02*
X031877Y042154D01*
X031808Y042108*
X031762Y042039*
X031747Y041962*
X031697*
X031682Y042039*
X031636Y042108*
X031567Y042154*
X031486Y04217*
X031405Y042154*
X031336Y042108*
X03129Y042039*
X031275Y041962*
X031225*
X031209Y042039*
X031163Y042108*
X031094Y042154*
X031013Y04217*
X030932Y042154*
X030863Y042108*
X030817Y042039*
X030802Y041962*
X030752*
X030737Y042039*
X030691Y042108*
X030622Y042154*
X030541Y04217*
X03046Y042154*
X030391Y042108*
X030345Y042039*
X030329Y041958*
X030345Y041877*
X030391Y041808*
X03046Y041762*
X030537Y041747*
Y041697*
X03046Y041682*
X030391Y041636*
X030345Y041567*
X030329Y041486*
X030345Y041405*
X030391Y041336*
X03046Y04129*
X030537Y041275*
Y041225*
X03046Y041209*
X030391Y041163*
X030345Y041094*
X030329Y041013*
X030345Y040932*
X030391Y040863*
X03046Y040817*
X030537Y040802*
Y040752*
X03046Y040737*
X030391Y040691*
X030345Y040622*
X030329Y040541*
X030345Y04046*
X030391Y040391*
X03046Y040345*
X030541Y040329*
X030622Y040345*
X030691Y040391*
X030737Y04046*
X030752Y040537*
X030802*
X030817Y04046*
X030863Y040391*
X030932Y040345*
X031013Y040329*
X031094Y040345*
X031163Y040391*
X031209Y04046*
X031225Y040537*
X031275*
X03129Y04046*
X031336Y040391*
X031405Y040345*
X031486Y040329*
X031567Y040345*
X031636Y040391*
X031682Y04046*
X031697Y040537*
X031747*
X031762Y04046*
X031808Y040391*
X031877Y040345*
X031958Y040329*
X032039Y040345*
X032108Y040391*
X032154Y04046*
X03217Y040541*
X032154Y040622*
X032108Y040691*
X032039Y040737*
X031962Y040752*
Y040802*
X032039Y040817*
X032108Y040863*
X032154Y040932*
X03217Y041013*
X032154Y041094*
X032108Y041163*
X032039Y041209*
X031962Y041225*
Y041275*
X032039Y04129*
X032108Y041336*
X032154Y041405*
X03217Y041486*
X032154Y041567*
X032108Y041636*
X032039Y041682*
X031962Y041697*
Y041747*
X032039Y041762*
X032108Y041808*
X032154Y041877*
X03217Y041958*
X032154Y042039*
X032108Y042108*
X032039Y042154*
X031958Y04217*
G37*
%LNa3988_breakout-3*%
%LPD*%
G54D21*
X02125Y04215D03*
Y04605D03*
X04125D03*
Y04215D03*
X041275Y0396D03*
X0213Y03945D03*
G54D22*
X02125Y04315D03*
Y04505D03*
X04125D03*
Y04315D03*
X0406Y05125D03*
X0396D03*
X0386D03*
X036D03*
X035D03*
X034D03*
X02945D03*
X02845D03*
X02745D03*
X02485D03*
X02385D03*
X02285D03*
X041275Y0386D03*
X0213Y03845D03*
X03155Y035725D03*
G54D23*
X0376Y05125D03*
X033D03*
X02645D03*
X02185D03*
X03055Y035725D03*
G54D24*
X02875Y039575D03*
X0301Y0374D03*
X029825Y04855D03*
X032325Y047875D03*
Y0472D03*
X0386Y0453D03*
X02965Y036975D03*
X03665Y04525D03*
X030775Y03785D03*
X0299Y043775D03*
X029925Y04435D03*
X029825Y045D03*
X03035Y048225D03*
Y044975D03*
X03055Y0383D03*
X034Y0388D03*
X033275Y04465D03*
X028375Y039275D03*
X0318Y0438D03*
X028075Y047775D03*
X029125Y048025D03*
X032375Y044275D03*
X0315Y0486D03*
X031525Y038175D03*
X0313Y037775D03*
G54D25*
X035925Y039575D03*
X025425Y03945D03*
X03685Y04135D03*
X02575Y0413D03*
X039175Y0348D03*
X023725Y037075D03*
G54D26*
X0353Y0453D03*
X035305Y042094D03*
X025755Y044994D03*
Y042019D03*
G54D27*
X031958Y040541D03*
X031486D03*
X031013D03*
X030541D03*
X031958Y041013D03*
X031486D03*
X031013D03*
X030541D03*
X031958Y041486D03*
X031486D03*
X031013D03*
X030541D03*
X031958Y041958D03*
X031486D03*
X031013D03*
X030541D03*
M02*