%FSTAX24Y24*%
%MOIN*%
%SFA1B1*%

%IPPOS*%
%ADD10R,0.078740X0.157480*%
%ADD11R,0.059060X0.049210*%
%ADD12R,0.049210X0.059060*%
%ADD13R,0.196850X0.196850*%
%ADD14R,0.011810X0.066930*%
%ADD15R,0.066930X0.011810*%
%ADD16R,0.051180X0.135830*%
%ADD17R,0.135830X0.051180*%
%LNa3988_breakout-1*%
%LPD*%
G54D10*
X0271Y032502D03*
Y035297D03*
X034675Y032502D03*
Y035297D03*
G54D11*
X03035Y046469D03*
Y04578D03*
X026575Y042019D03*
Y04133D03*
G54D12*
X033855Y0453D03*
X034544D03*
X028394Y045D03*
X027705D03*
X03073Y0368D03*
X031419D03*
X035305Y04135D03*
X035994D03*
G54D13*
X03125Y04125D03*
G54D14*
X030167Y042942D03*
X030364D03*
X030561D03*
X030757D03*
X030954D03*
X031151D03*
X031348D03*
X031545D03*
X031742D03*
X031939D03*
X032135D03*
X032332D03*
Y039557D03*
X032135D03*
X031939D03*
X031742D03*
X031545D03*
X031348D03*
X031151D03*
X030954D03*
X030757D03*
X030561D03*
X030364D03*
X030167D03*
G54D15*
X032942Y042332D03*
Y042135D03*
Y041939D03*
Y041742D03*
Y041545D03*
Y041348D03*
Y041151D03*
Y040954D03*
Y040757D03*
Y040561D03*
Y040364D03*
Y040167D03*
X029557D03*
Y040364D03*
Y040561D03*
Y040757D03*
Y040954D03*
Y041151D03*
Y041348D03*
Y041545D03*
Y041742D03*
Y041939D03*
Y042135D03*
Y042332D03*
G54D16*
X035118Y03815D03*
X037481D03*
X027356D03*
X024993D03*
G54D17*
X038025Y043706D03*
Y041343D03*
X0244Y043681D03*
Y041318D03*
M02*