%FSTAX24Y24*%
%MOIN*%
%SFA1B1*%

%IPPOS*%
%ADD55C,0.005000*%
%LNa3988_breakout-1*%
%LPD*%
G54D55*
X021072Y04215D02*
X021427D01*
X02125Y041972D02*
Y042327D01*
X021072Y04315D02*
X021427D01*
X02125Y042972D02*
Y043327D01*
X021072Y04605D02*
X021427D01*
X02125Y045872D02*
Y046227D01*
X021072Y04505D02*
X021427D01*
X02125Y044872D02*
Y045227D01*
X041072Y04605D02*
X041427D01*
X04125Y045872D02*
Y046227D01*
X041072Y04505D02*
X041427D01*
X04125Y044872D02*
Y045227D01*
X041072Y04215D02*
X041427D01*
X04125Y041972D02*
Y042327D01*
X041072Y04315D02*
X041427D01*
X04125Y042972D02*
Y043327D01*
X040422Y05125D02*
X040777D01*
X0406Y051072D02*
Y051427D01*
X039422Y05125D02*
X039777D01*
X0396Y051072D02*
Y051427D01*
X038422Y05125D02*
X038777D01*
X0386Y051072D02*
Y051427D01*
X037422Y05125D02*
X037777D01*
X0376Y051072D02*
Y051427D01*
X035822Y05125D02*
X036177D01*
X036Y051072D02*
Y051427D01*
X034822Y05125D02*
X035177D01*
X035Y051072D02*
Y051427D01*
X033822Y05125D02*
X034177D01*
X034Y051072D02*
Y051427D01*
X032822Y05125D02*
X033177D01*
X033Y051072D02*
Y051427D01*
X029272Y05125D02*
X029627D01*
X02945Y051072D02*
Y051427D01*
X028272Y05125D02*
X028627D01*
X02845Y051072D02*
Y051427D01*
X027272Y05125D02*
X027627D01*
X02745Y051072D02*
Y051427D01*
X026272Y05125D02*
X026627D01*
X02645Y051072D02*
Y051427D01*
X024672Y05125D02*
X025027D01*
X02485Y051072D02*
Y051427D01*
X023672Y05125D02*
X024027D01*
X02385Y051072D02*
Y051427D01*
X022672Y05125D02*
X023027D01*
X02285Y051072D02*
Y051427D01*
X021672Y05125D02*
X022027D01*
X02185Y051072D02*
Y051427D01*
X041097Y0386D02*
X041452D01*
X041275Y038422D02*
Y038777D01*
X041097Y0396D02*
X041452D01*
X041275Y039422D02*
Y039777D01*
X021122Y03845D02*
X021477D01*
X0213Y038272D02*
Y038627D01*
X021122Y03945D02*
X021477D01*
X0213Y039272D02*
Y039627D01*
X031372Y035725D02*
X031727D01*
X03155Y035547D02*
Y035902D01*
X030372Y035725D02*
X030727D01*
X03055Y035547D02*
Y035902D01*
X028681Y039575D02*
X028818D01*
X02875Y039506D02*
Y039643D01*
X030031Y0374D02*
X030168D01*
X0301Y037331D02*
Y037468D01*
X029756Y04855D02*
X029893D01*
X029825Y048481D02*
Y048618D01*
X032256Y047875D02*
X032393D01*
X032325Y047806D02*
Y047943D01*
X032256Y0472D02*
X032393D01*
X032325Y047131D02*
Y047268D01*
X038531Y0453D02*
X038668D01*
X0386Y045231D02*
Y045368D01*
X035785Y039575D02*
X036065D01*
X035925Y039435D02*
Y039715D01*
X029581Y036975D02*
X029718D01*
X02965Y036906D02*
Y037043D01*
X036581Y04525D02*
X036718D01*
X03665Y045181D02*
Y045318D01*
X030706Y03785D02*
X030843D01*
X030775Y037781D02*
Y037918D01*
X029831Y043775D02*
X029968D01*
X0299Y043706D02*
Y043843D01*
X029856Y04435D02*
X029993D01*
X029925Y044281D02*
Y044418D01*
X029756Y045D02*
X029893D01*
X029825Y044931D02*
Y045068D01*
X030281Y048225D02*
X030418D01*
X03035Y048156D02*
Y048293D01*
X030281Y044975D02*
X030418D01*
X03035Y044906D02*
Y045043D01*
X030481Y0383D02*
X030618D01*
X03055Y038231D02*
Y038368D01*
X033931Y0388D02*
X034068D01*
X034Y038731D02*
Y038868D01*
X033206Y04465D02*
X033343D01*
X033275Y044581D02*
Y044718D01*
X025285Y03945D02*
X025565D01*
X025425Y03931D02*
Y03959D01*
X035175Y0453D02*
X035425D01*
X0353Y045175D02*
Y045425D01*
X03518Y042094D02*
X03543D01*
X035305Y041969D02*
Y042219D01*
X03671Y04135D02*
X03699D01*
X03685Y04121D02*
Y04149D01*
X02563Y044994D02*
X02588D01*
X025755Y044869D02*
Y045119D01*
X02563Y042019D02*
X02588D01*
X025755Y041894D02*
Y042144D01*
X02561Y0413D02*
X02589D01*
X02575Y04116D02*
Y04144D01*
X039035Y0348D02*
X039315D01*
X039175Y03466D02*
Y03494D01*
X023585Y037075D02*
X023865D01*
X023725Y036935D02*
Y037215D01*
X031893Y040541D02*
X032023D01*
X031958Y040476D02*
Y040606D01*
X031421Y040541D02*
X031551D01*
X031486Y040476D02*
Y040606D01*
X030948Y040541D02*
X031078D01*
X031013Y040476D02*
Y040606D01*
X030476Y040541D02*
X030606D01*
X030541Y040476D02*
Y040606D01*
X031893Y041013D02*
X032023D01*
X031958Y040948D02*
Y041078D01*
X031421Y041013D02*
X031551D01*
X031486Y040948D02*
Y041078D01*
X030948Y041013D02*
X031078D01*
X031013Y040948D02*
Y041078D01*
X030476Y041013D02*
X030606D01*
X030541Y040948D02*
Y041078D01*
X031893Y041486D02*
X032023D01*
X031958Y041421D02*
Y041551D01*
X031421Y041486D02*
X031551D01*
X031486Y041421D02*
Y041551D01*
X030948Y041486D02*
X031078D01*
X031013Y041421D02*
Y041551D01*
X030476Y041486D02*
X030606D01*
X030541Y041421D02*
Y041551D01*
X031893Y041958D02*
X032023D01*
X031958Y041893D02*
Y042023D01*
X031421Y041958D02*
X031551D01*
X031486Y041893D02*
Y042023D01*
X030948Y041958D02*
X031078D01*
X031013Y041893D02*
Y042023D01*
X030476Y041958D02*
X030606D01*
X030541Y041893D02*
Y042023D01*
X028306Y039275D02*
X028443D01*
X028375Y039206D02*
Y039343D01*
X031731Y0438D02*
X031868D01*
X0318Y043731D02*
Y043868D01*
X028006Y047775D02*
X028143D01*
X028075Y047706D02*
Y047843D01*
X029056Y048025D02*
X029193D01*
X029125Y047956D02*
Y048093D01*
X032306Y044275D02*
X032443D01*
X032375Y044206D02*
Y044343D01*
X031431Y0486D02*
X031568D01*
X0315Y048531D02*
Y048668D01*
X031456Y038175D02*
X031593D01*
X031525Y038106D02*
Y038243D01*
X031231Y037775D02*
X031368D01*
X0313Y037706D02*
Y037843D01*
M02*