%FSLAX24Y24*%
%MOIN*%
G70*
G01*
G75*
G04 Layer_Color=2752767*
%ADD10R,0.0787X0.1575*%
%ADD11R,0.1358X0.0512*%
%ADD12R,0.0512X0.1358*%
%ADD13R,0.0492X0.0591*%
%ADD14R,0.0669X0.0118*%
%ADD15R,0.0118X0.0669*%
%ADD16R,0.1969X0.1969*%
%ADD17R,0.0591X0.0492*%
%ADD18C,0.0118*%
%ADD19C,0.0200*%
%ADD20C,0.0300*%
%ADD21R,0.0591X0.0591*%
%ADD22C,0.0591*%
%ADD23R,0.0591X0.0591*%
%ADD24C,0.0236*%
%ADD25C,0.0260*%
%ADD26C,0.0500*%
%ADD27C,0.0400*%
%ADD28R,0.2700X0.2700*%
%ADD29C,0.0400*%
%ADD30C,0.0754*%
G04:AMPARAMS|DCode=31|XSize=95.433mil|YSize=95.433mil|CornerRadius=0mil|HoleSize=0mil|Usage=FLASHONLY|Rotation=0.000|XOffset=0mil|YOffset=0mil|HoleType=Round|Shape=Relief|Width=10mil|Gap=10mil|Entries=4|*
%AMTHD31*
7,0,0,0.0954,0.0754,0.0100,45*
%
%ADD31THD31*%
%ADD32C,0.0538*%
%ADD33C,0.0530*%
G04:AMPARAMS|DCode=34|XSize=88mil|YSize=88mil|CornerRadius=0mil|HoleSize=0mil|Usage=FLASHONLY|Rotation=0.000|XOffset=0mil|YOffset=0mil|HoleType=Round|Shape=Relief|Width=10mil|Gap=10mil|Entries=4|*
%AMTHD34*
7,0,0,0.0880,0.0680,0.0100,45*
%
%ADD34THD34*%
%ADD35C,0.0650*%
%ADD36C,0.0680*%
%ADD37C,0.0098*%
%ADD38C,0.0079*%
%ADD39C,0.0100*%
%ADD40R,0.0867X0.1655*%
%ADD41R,0.1438X0.0592*%
%ADD42R,0.0592X0.1438*%
%ADD43R,0.0572X0.0671*%
%ADD44R,0.0749X0.0198*%
%ADD45R,0.0198X0.0749*%
%ADD46R,0.2049X0.2049*%
%ADD47R,0.0671X0.0572*%
%ADD48R,0.0671X0.0671*%
%ADD49C,0.0671*%
%ADD50R,0.0671X0.0671*%
%ADD51C,0.0316*%
%ADD52C,0.0580*%
%ADD53C,0.0480*%
%ADD54C,0.0340*%
%ADD55C,0.0050*%
%ADD56C,0.0067*%
D55*
X30350Y35525D02*
Y35925D01*
X30750D01*
Y35525D01*
X30350D01*
X31350D02*
Y35925D01*
X31750D01*
Y35525D01*
X31350D01*
X21100Y39250D02*
Y39650D01*
X21500D01*
Y39250D01*
X21100D01*
Y38250D02*
Y38650D01*
X21500D01*
Y38250D01*
X21100D01*
X41075Y39400D02*
Y39800D01*
X41475D01*
Y39400D01*
X41075D01*
Y38400D02*
Y38800D01*
X41475D01*
Y38400D01*
X41075D01*
X21650Y51050D02*
Y51450D01*
X22050D01*
Y51050D01*
X21650D01*
X22650D02*
Y51450D01*
X23050D01*
Y51050D01*
X22650D01*
X23650D02*
Y51450D01*
X24050D01*
Y51050D01*
X23650D01*
X24650D02*
Y51450D01*
X25050D01*
Y51050D01*
X24650D01*
X26250D02*
Y51450D01*
X26650D01*
Y51050D01*
X26250D01*
X27250D02*
Y51450D01*
X27650D01*
Y51050D01*
X27250D01*
X28250D02*
Y51450D01*
X28650D01*
Y51050D01*
X28250D01*
X29250D02*
Y51450D01*
X29650D01*
Y51050D01*
X29250D01*
X32800D02*
Y51450D01*
X33200D01*
Y51050D01*
X32800D01*
X33800D02*
Y51450D01*
X34200D01*
Y51050D01*
X33800D01*
X34800D02*
Y51450D01*
X35200D01*
Y51050D01*
X34800D01*
X35800D02*
Y51450D01*
X36200D01*
Y51050D01*
X35800D01*
X37400D02*
Y51450D01*
X37800D01*
Y51050D01*
X37400D01*
X38400D02*
Y51450D01*
X38800D01*
Y51050D01*
X38400D01*
X39400D02*
Y51450D01*
X39800D01*
Y51050D01*
X39400D01*
X40400D02*
Y51450D01*
X40800D01*
Y51050D01*
X40400D01*
X41050Y42950D02*
Y43350D01*
X41450D01*
Y42950D01*
X41050D01*
Y41950D02*
Y42350D01*
X41450D01*
Y41950D01*
X41050D01*
Y44850D02*
Y45250D01*
X41450D01*
Y44850D01*
X41050D01*
Y45850D02*
Y46250D01*
X41450D01*
Y45850D01*
X41050D01*
X21050Y44850D02*
Y45250D01*
X21450D01*
Y44850D01*
X21050D01*
Y45850D02*
Y46250D01*
X21450D01*
Y45850D01*
X21050D01*
Y42950D02*
Y43350D01*
X21450D01*
Y42950D01*
X21050D01*
Y41950D02*
Y42350D01*
X21450D01*
Y41950D01*
X21050D01*
X30541Y41759D02*
X30341Y42159D01*
X30741D01*
X30541Y41759D01*
X31014D02*
X30814Y42159D01*
X31214D01*
X31014Y41759D01*
X31486D02*
X31286Y42159D01*
X31686D01*
X31486Y41759D01*
X31959D02*
X31759Y42159D01*
X32159D01*
X31959Y41759D01*
X30541Y41286D02*
X30341Y41686D01*
X30741D01*
X30541Y41286D01*
X31014D02*
X30814Y41686D01*
X31214D01*
X31014Y41286D01*
X31486D02*
X31286Y41686D01*
X31686D01*
X31486Y41286D01*
X31959D02*
X31759Y41686D01*
X32159D01*
X31959Y41286D01*
X30541Y40814D02*
X30341Y41214D01*
X30741D01*
X30541Y40814D01*
X31014D02*
X30814Y41214D01*
X31214D01*
X31014Y40814D01*
X31486D02*
X31286Y41214D01*
X31686D01*
X31486Y40814D01*
X31959D02*
X31759Y41214D01*
X32159D01*
X31959Y40814D01*
X30541Y40341D02*
X30341Y40741D01*
X30741D01*
X30541Y40341D01*
X31014D02*
X30814Y40741D01*
X31214D01*
X31014Y40341D01*
X31486D02*
X31286Y40741D01*
X31686D01*
X31486Y40341D01*
X31959D02*
X31759Y40741D01*
X32159D01*
X31959Y40341D01*
X23725Y36875D02*
X23825Y36975D01*
X23925D01*
X23825Y37075D01*
X23925Y37175D01*
X23825D01*
X23725Y37275D01*
X23625Y37175D01*
X23525D01*
X23625Y37075D01*
X23525Y36975D01*
X23625D01*
X23725Y36875D01*
X39175Y34600D02*
X39275Y34700D01*
X39375D01*
X39275Y34800D01*
X39375Y34900D01*
X39275D01*
X39175Y35000D01*
X39075Y34900D01*
X38975D01*
X39075Y34800D01*
X38975Y34700D01*
X39075D01*
X39175Y34600D01*
X25750Y41100D02*
X25850Y41200D01*
X25950D01*
X25850Y41300D01*
X25950Y41400D01*
X25850D01*
X25750Y41500D01*
X25650Y41400D01*
X25550D01*
X25650Y41300D01*
X25550Y41200D01*
X25650D01*
X25750Y41100D01*
X25556Y41819D02*
X25656Y42019D01*
X25556Y42219D01*
X25756Y42119D01*
X25956Y42219D01*
X25856Y42019D01*
X25956Y41819D01*
X25756Y41919D01*
X25556Y41819D01*
Y44794D02*
X25656Y44994D01*
X25556Y45194D01*
X25756Y45094D01*
X25956Y45194D01*
X25856Y44994D01*
X25956Y44794D01*
X25756Y44894D01*
X25556Y44794D01*
X36850Y41150D02*
X36950Y41250D01*
X37050D01*
X36950Y41350D01*
X37050Y41450D01*
X36950D01*
X36850Y41550D01*
X36750Y41450D01*
X36650D01*
X36750Y41350D01*
X36650Y41250D01*
X36750D01*
X36850Y41150D01*
X35106Y41894D02*
X35206Y42094D01*
X35106Y42294D01*
X35306Y42194D01*
X35506Y42294D01*
X35406Y42094D01*
X35506Y41894D01*
X35306Y41994D01*
X35106Y41894D01*
X35100Y45100D02*
X35200Y45300D01*
X35100Y45500D01*
X35300Y45400D01*
X35500Y45500D01*
X35400Y45300D01*
X35500Y45100D01*
X35300Y45200D01*
X35100Y45100D01*
X25425Y39250D02*
X25525Y39350D01*
X25625D01*
X25525Y39450D01*
X25625Y39550D01*
X25525D01*
X25425Y39650D01*
X25325Y39550D01*
X25225D01*
X25325Y39450D01*
X25225Y39350D01*
X25325D01*
X25425Y39250D01*
X35925Y39375D02*
X36025Y39475D01*
X36125D01*
X36025Y39575D01*
X36125Y39675D01*
X36025D01*
X35925Y39775D01*
X35825Y39675D01*
X35725D01*
X35825Y39575D01*
X35725Y39475D01*
X35825D01*
X35925Y39375D01*
D56*
X31500Y37775D02*
G03*
X31500Y37775I-200J0D01*
G01*
X31725Y38175D02*
G03*
X31725Y38175I-200J0D01*
G01*
X31700Y48600D02*
G03*
X31700Y48600I-200J0D01*
G01*
X32575Y44275D02*
G03*
X32575Y44275I-200J0D01*
G01*
X29325Y48025D02*
G03*
X29325Y48025I-200J0D01*
G01*
X28275Y47775D02*
G03*
X28275Y47775I-200J0D01*
G01*
X32000Y43800D02*
G03*
X32000Y43800I-200J0D01*
G01*
X28575Y39275D02*
G03*
X28575Y39275I-200J0D01*
G01*
X33475Y44650D02*
G03*
X33475Y44650I-200J0D01*
G01*
X34200Y38800D02*
G03*
X34200Y38800I-200J0D01*
G01*
X30750Y38300D02*
G03*
X30750Y38300I-200J0D01*
G01*
X30550Y44975D02*
G03*
X30550Y44975I-200J0D01*
G01*
Y48225D02*
G03*
X30550Y48225I-200J0D01*
G01*
X30025Y45000D02*
G03*
X30025Y45000I-200J0D01*
G01*
X30125Y44350D02*
G03*
X30125Y44350I-200J0D01*
G01*
X30100Y43775D02*
G03*
X30100Y43775I-200J0D01*
G01*
X30975Y37850D02*
G03*
X30975Y37850I-200J0D01*
G01*
X36850Y45250D02*
G03*
X36850Y45250I-200J0D01*
G01*
X29850Y36975D02*
G03*
X29850Y36975I-200J0D01*
G01*
X38800Y45300D02*
G03*
X38800Y45300I-200J0D01*
G01*
X32525Y47200D02*
G03*
X32525Y47200I-200J0D01*
G01*
Y47875D02*
G03*
X32525Y47875I-200J0D01*
G01*
X30025Y48550D02*
G03*
X30025Y48550I-200J0D01*
G01*
X30300Y37400D02*
G03*
X30300Y37400I-200J0D01*
G01*
X28950Y39575D02*
G03*
X28950Y39575I-200J0D01*
G01*
M02*
