%FSLAX24Y24*%
%MOIN*%
G70*
G01*
G75*
G04 Layer_Physical_Order=4*
G04 Layer_Color=16711680*
%ADD10R,0.0787X0.1575*%
%ADD11R,0.1358X0.0512*%
%ADD12R,0.0512X0.1358*%
%ADD13R,0.0492X0.0591*%
%ADD14R,0.0669X0.0118*%
%ADD15R,0.0118X0.0669*%
%ADD16R,0.1969X0.1969*%
%ADD17R,0.0591X0.0492*%
%ADD18C,0.0118*%
%ADD19C,0.0200*%
%ADD20C,0.0300*%
%ADD21R,0.0591X0.0591*%
%ADD22C,0.0591*%
%ADD23R,0.0591X0.0591*%
%ADD24C,0.0236*%
%ADD25C,0.0260*%
%ADD26C,0.0500*%
%ADD27C,0.0400*%
%ADD28R,0.2700X0.2700*%
%ADD29C,0.0400*%
%ADD30C,0.0754*%
G04:AMPARAMS|DCode=31|XSize=95.433mil|YSize=95.433mil|CornerRadius=0mil|HoleSize=0mil|Usage=FLASHONLY|Rotation=0.000|XOffset=0mil|YOffset=0mil|HoleType=Round|Shape=Relief|Width=10mil|Gap=10mil|Entries=4|*
%AMTHD31*
7,0,0,0.0954,0.0754,0.0100,45*
%
%ADD31THD31*%
%ADD32C,0.0538*%
%ADD33C,0.0530*%
G04:AMPARAMS|DCode=34|XSize=88mil|YSize=88mil|CornerRadius=0mil|HoleSize=0mil|Usage=FLASHONLY|Rotation=0.000|XOffset=0mil|YOffset=0mil|HoleType=Round|Shape=Relief|Width=10mil|Gap=10mil|Entries=4|*
%AMTHD34*
7,0,0,0.0880,0.0680,0.0100,45*
%
%ADD34THD34*%
%ADD35C,0.0650*%
%ADD36C,0.0680*%
G36*
X38177Y46115D02*
Y36115D01*
X36177Y34115D01*
X26177D01*
X24177Y36115D01*
Y46115D01*
X26177Y48115D01*
X28904D01*
X28935Y48077D01*
X28925Y48025D01*
X28940Y47948D01*
X28984Y47884D01*
X29048Y47840D01*
X29125Y47825D01*
X29202Y47840D01*
X29266Y47884D01*
X29310Y47948D01*
X29325Y48025D01*
X29315Y48077D01*
X29346Y48115D01*
X30187D01*
X30209Y48084D01*
X30273Y48040D01*
X30350Y48025D01*
X30427Y48040D01*
X30491Y48084D01*
X30513Y48115D01*
X32273D01*
X32278Y48066D01*
X32248Y48060D01*
X32184Y48016D01*
X32140Y47952D01*
X32125Y47875D01*
X32140Y47798D01*
X32184Y47734D01*
X32248Y47690D01*
X32325Y47675D01*
X32402Y47690D01*
X32466Y47734D01*
X32510Y47798D01*
X32525Y47875D01*
X32510Y47952D01*
X32466Y48016D01*
X32402Y48060D01*
X32372Y48066D01*
X32377Y48115D01*
X36177D01*
X38177Y46115D01*
D02*
G37*
%LPC*%
G36*
X28375Y39475D02*
X28298Y39460D01*
X28234Y39416D01*
X28190Y39352D01*
X28175Y39275D01*
X28190Y39198D01*
X28234Y39134D01*
X28298Y39090D01*
X28375Y39075D01*
X28452Y39090D01*
X28516Y39134D01*
X28560Y39198D01*
X28575Y39275D01*
X28560Y39352D01*
X28516Y39416D01*
X28452Y39460D01*
X28375Y39475D01*
D02*
G37*
G36*
X25425Y39781D02*
X25339Y39770D01*
X25260Y39737D01*
X25191Y39684D01*
X25138Y39615D01*
X25105Y39536D01*
X25094Y39450D01*
X25105Y39364D01*
X25138Y39285D01*
X25191Y39216D01*
X25260Y39163D01*
X25339Y39130D01*
X25425Y39119D01*
X25511Y39130D01*
X25590Y39163D01*
X25659Y39216D01*
X25712Y39285D01*
X25745Y39364D01*
X25756Y39450D01*
X25745Y39536D01*
X25712Y39615D01*
X25659Y39684D01*
X25590Y39737D01*
X25511Y39770D01*
X25425Y39781D01*
D02*
G37*
G36*
X30550Y38500D02*
X30473Y38485D01*
X30409Y38441D01*
X30365Y38377D01*
X30350Y38300D01*
X30365Y38223D01*
X30409Y38159D01*
X30473Y38115D01*
X30550Y38100D01*
X30627Y38115D01*
X30691Y38159D01*
X30735Y38223D01*
X30750Y38300D01*
X30735Y38377D01*
X30691Y38441D01*
X30627Y38485D01*
X30550Y38500D01*
D02*
G37*
G36*
X34000Y39000D02*
X33923Y38985D01*
X33859Y38941D01*
X33815Y38877D01*
X33800Y38800D01*
X33815Y38723D01*
X33859Y38659D01*
X33923Y38615D01*
X34000Y38600D01*
X34077Y38615D01*
X34141Y38659D01*
X34185Y38723D01*
X34200Y38800D01*
X34185Y38877D01*
X34141Y38941D01*
X34077Y38985D01*
X34000Y39000D01*
D02*
G37*
G36*
X35925Y39906D02*
X35839Y39895D01*
X35760Y39862D01*
X35691Y39809D01*
X35638Y39740D01*
X35605Y39661D01*
X35594Y39575D01*
X35605Y39489D01*
X35638Y39410D01*
X35691Y39341D01*
X35760Y39288D01*
X35839Y39255D01*
X35925Y39244D01*
X36011Y39255D01*
X36090Y39288D01*
X36159Y39341D01*
X36212Y39410D01*
X36245Y39489D01*
X36256Y39575D01*
X36245Y39661D01*
X36212Y39740D01*
X36159Y39809D01*
X36090Y39862D01*
X36011Y39895D01*
X35925Y39906D01*
D02*
G37*
G36*
X26096Y41250D02*
X25800D01*
Y40954D01*
X25841Y40959D01*
X25927Y40994D01*
X26000Y41050D01*
X26056Y41123D01*
X26091Y41209D01*
X26096Y41250D01*
D02*
G37*
G36*
X36800Y41300D02*
X36504D01*
X36509Y41259D01*
X36544Y41173D01*
X36600Y41100D01*
X36673Y41044D01*
X36759Y41009D01*
X36800Y41004D01*
Y41300D01*
D02*
G37*
G36*
X28750Y39775D02*
X28673Y39760D01*
X28609Y39716D01*
X28565Y39652D01*
X28550Y39575D01*
X28565Y39498D01*
X28609Y39434D01*
X28673Y39390D01*
X28750Y39375D01*
X28827Y39390D01*
X28891Y39434D01*
X28935Y39498D01*
X28950Y39575D01*
X28935Y39652D01*
X28891Y39716D01*
X28827Y39760D01*
X28750Y39775D01*
D02*
G37*
G36*
X25700Y41250D02*
X25404D01*
X25409Y41209D01*
X25444Y41123D01*
X25500Y41050D01*
X25573Y40994D01*
X25659Y40959D01*
X25700Y40954D01*
Y41250D01*
D02*
G37*
G36*
X31525Y38375D02*
X31448Y38360D01*
X31384Y38316D01*
X31340Y38252D01*
X31325Y38175D01*
X31340Y38098D01*
X31384Y38034D01*
X31448Y37990D01*
X31525Y37975D01*
X31602Y37990D01*
X31666Y38034D01*
X31710Y38098D01*
X31725Y38175D01*
X31710Y38252D01*
X31666Y38316D01*
X31602Y38360D01*
X31525Y38375D01*
D02*
G37*
G36*
X30923Y36098D02*
X30177D01*
Y35352D01*
X30923D01*
Y36098D01*
D02*
G37*
G36*
X31500Y36117D02*
X31447Y36110D01*
X31351Y36070D01*
X31268Y36007D01*
X31205Y35924D01*
X31165Y35828D01*
X31158Y35775D01*
X31500D01*
Y36117D01*
D02*
G37*
G36*
Y35675D02*
X31158D01*
X31165Y35622D01*
X31205Y35526D01*
X31268Y35443D01*
X31351Y35380D01*
X31447Y35340D01*
X31500Y35333D01*
Y35675D01*
D02*
G37*
G36*
X31942D02*
X31600D01*
Y35333D01*
X31653Y35340D01*
X31749Y35380D01*
X31832Y35443D01*
X31895Y35526D01*
X31935Y35622D01*
X31942Y35675D01*
D02*
G37*
G36*
X31600Y36117D02*
Y35775D01*
X31942D01*
X31935Y35828D01*
X31895Y35924D01*
X31832Y36007D01*
X31749Y36070D01*
X31653Y36110D01*
X31600Y36117D01*
D02*
G37*
G36*
X31300Y37975D02*
X31223Y37960D01*
X31159Y37916D01*
X31115Y37852D01*
X31100Y37775D01*
X31115Y37698D01*
X31159Y37634D01*
X31223Y37590D01*
X31300Y37575D01*
X31377Y37590D01*
X31441Y37634D01*
X31485Y37698D01*
X31500Y37775D01*
X31485Y37852D01*
X31441Y37916D01*
X31377Y37960D01*
X31300Y37975D01*
D02*
G37*
G36*
X30775Y38050D02*
X30698Y38035D01*
X30634Y37991D01*
X30590Y37927D01*
X30575Y37850D01*
X30590Y37773D01*
X30634Y37709D01*
X30698Y37665D01*
X30775Y37650D01*
X30852Y37665D01*
X30916Y37709D01*
X30960Y37773D01*
X30975Y37850D01*
X30960Y37927D01*
X30916Y37991D01*
X30852Y38035D01*
X30775Y38050D01*
D02*
G37*
G36*
X29650Y37175D02*
X29573Y37160D01*
X29509Y37116D01*
X29465Y37052D01*
X29450Y36975D01*
X29465Y36898D01*
X29509Y36834D01*
X29573Y36790D01*
X29650Y36775D01*
X29727Y36790D01*
X29791Y36834D01*
X29835Y36898D01*
X29850Y36975D01*
X29835Y37052D01*
X29791Y37116D01*
X29727Y37160D01*
X29650Y37175D01*
D02*
G37*
G36*
X30100Y37600D02*
X30023Y37585D01*
X29959Y37541D01*
X29915Y37477D01*
X29900Y37400D01*
X29915Y37323D01*
X29959Y37259D01*
X30023Y37215D01*
X30100Y37200D01*
X30177Y37215D01*
X30241Y37259D01*
X30285Y37323D01*
X30300Y37400D01*
X30285Y37477D01*
X30241Y37541D01*
X30177Y37585D01*
X30100Y37600D01*
D02*
G37*
G36*
X37196Y41300D02*
X36900D01*
Y41004D01*
X36941Y41009D01*
X37027Y41044D01*
X37100Y41100D01*
X37156Y41173D01*
X37191Y41259D01*
X37196Y41300D01*
D02*
G37*
G36*
X25756Y45275D02*
X25683Y45265D01*
X25615Y45237D01*
X25557Y45193D01*
X25513Y45135D01*
X25485Y45067D01*
X25475Y44994D01*
X25485Y44922D01*
X25513Y44854D01*
X25557Y44796D01*
X25615Y44752D01*
X25683Y44724D01*
X25756Y44714D01*
X25828Y44724D01*
X25896Y44752D01*
X25954Y44796D01*
X25998Y44854D01*
X26026Y44922D01*
X26036Y44994D01*
X26026Y45067D01*
X25998Y45135D01*
X25954Y45193D01*
X25896Y45237D01*
X25828Y45265D01*
X25756Y45275D01*
D02*
G37*
G36*
X30350Y45175D02*
X30273Y45160D01*
X30209Y45116D01*
X30165Y45052D01*
X30150Y44975D01*
X30165Y44898D01*
X30209Y44834D01*
X30273Y44790D01*
X30350Y44775D01*
X30427Y44790D01*
X30491Y44834D01*
X30535Y44898D01*
X30550Y44975D01*
X30535Y45052D01*
X30491Y45116D01*
X30427Y45160D01*
X30350Y45175D01*
D02*
G37*
G36*
X29925Y44550D02*
X29848Y44535D01*
X29784Y44491D01*
X29740Y44427D01*
X29725Y44350D01*
X29740Y44273D01*
X29784Y44209D01*
X29848Y44165D01*
X29925Y44150D01*
X30002Y44165D01*
X30066Y44209D01*
X30110Y44273D01*
X30125Y44350D01*
X30110Y44427D01*
X30066Y44491D01*
X30002Y44535D01*
X29925Y44550D01*
D02*
G37*
G36*
X33275Y44850D02*
X33198Y44835D01*
X33134Y44791D01*
X33090Y44727D01*
X33075Y44650D01*
X33090Y44573D01*
X33134Y44509D01*
X33198Y44465D01*
X33275Y44450D01*
X33352Y44465D01*
X33416Y44509D01*
X33460Y44573D01*
X33475Y44650D01*
X33460Y44727D01*
X33416Y44791D01*
X33352Y44835D01*
X33275Y44850D01*
D02*
G37*
G36*
X29825Y45200D02*
X29748Y45185D01*
X29684Y45141D01*
X29640Y45077D01*
X29625Y45000D01*
X29640Y44923D01*
X29684Y44859D01*
X29748Y44815D01*
X29825Y44800D01*
X29902Y44815D01*
X29966Y44859D01*
X30010Y44923D01*
X30025Y45000D01*
X30010Y45077D01*
X29966Y45141D01*
X29902Y45185D01*
X29825Y45200D01*
D02*
G37*
G36*
X32325Y47400D02*
X32248Y47385D01*
X32184Y47341D01*
X32140Y47277D01*
X32125Y47200D01*
X32140Y47123D01*
X32184Y47059D01*
X32248Y47015D01*
X32325Y47000D01*
X32402Y47015D01*
X32466Y47059D01*
X32510Y47123D01*
X32525Y47200D01*
X32510Y47277D01*
X32466Y47341D01*
X32402Y47385D01*
X32325Y47400D01*
D02*
G37*
G36*
X28075Y47975D02*
X27998Y47960D01*
X27934Y47916D01*
X27890Y47852D01*
X27875Y47775D01*
X27890Y47698D01*
X27934Y47634D01*
X27998Y47590D01*
X28075Y47575D01*
X28152Y47590D01*
X28216Y47634D01*
X28260Y47698D01*
X28275Y47775D01*
X28260Y47852D01*
X28216Y47916D01*
X28152Y47960D01*
X28075Y47975D01*
D02*
G37*
G36*
X35300Y45580D02*
X35227Y45571D01*
X35160Y45543D01*
X35102Y45498D01*
X35057Y45440D01*
X35029Y45373D01*
X35020Y45300D01*
X35029Y45227D01*
X35057Y45160D01*
X35102Y45102D01*
X35160Y45057D01*
X35227Y45029D01*
X35300Y45020D01*
X35373Y45029D01*
X35440Y45057D01*
X35498Y45102D01*
X35543Y45160D01*
X35571Y45227D01*
X35580Y45300D01*
X35571Y45373D01*
X35543Y45440D01*
X35498Y45498D01*
X35440Y45543D01*
X35373Y45571D01*
X35300Y45580D01*
D02*
G37*
G36*
X36650Y45450D02*
X36573Y45435D01*
X36509Y45391D01*
X36465Y45327D01*
X36450Y45250D01*
X36465Y45173D01*
X36509Y45109D01*
X36573Y45065D01*
X36650Y45050D01*
X36727Y45065D01*
X36791Y45109D01*
X36835Y45173D01*
X36850Y45250D01*
X36835Y45327D01*
X36791Y45391D01*
X36727Y45435D01*
X36650Y45450D01*
D02*
G37*
G36*
X32375Y44475D02*
X32298Y44460D01*
X32234Y44416D01*
X32190Y44352D01*
X32175Y44275D01*
X32190Y44198D01*
X32234Y44134D01*
X32298Y44090D01*
X32375Y44075D01*
X32452Y44090D01*
X32516Y44134D01*
X32560Y44198D01*
X32575Y44275D01*
X32560Y44352D01*
X32516Y44416D01*
X32452Y44460D01*
X32375Y44475D01*
D02*
G37*
G36*
X36800Y41696D02*
X36759Y41691D01*
X36673Y41656D01*
X36600Y41600D01*
X36544Y41527D01*
X36509Y41441D01*
X36504Y41400D01*
X36800D01*
Y41696D01*
D02*
G37*
G36*
X36900D02*
Y41400D01*
X37196D01*
X37191Y41441D01*
X37156Y41527D01*
X37100Y41600D01*
X37027Y41656D01*
X36941Y41691D01*
X36900Y41696D01*
D02*
G37*
G36*
X25700Y41646D02*
X25659Y41641D01*
X25573Y41606D01*
X25500Y41550D01*
X25444Y41477D01*
X25409Y41391D01*
X25404Y41350D01*
X25700D01*
Y41646D01*
D02*
G37*
G36*
X25800D02*
Y41350D01*
X26096D01*
X26091Y41391D01*
X26056Y41477D01*
X26000Y41550D01*
X25927Y41606D01*
X25841Y41641D01*
X25800Y41646D01*
D02*
G37*
G36*
X25756Y42300D02*
X25683Y42290D01*
X25615Y42262D01*
X25557Y42218D01*
X25513Y42160D01*
X25485Y42092D01*
X25475Y42019D01*
X25485Y41947D01*
X25513Y41879D01*
X25557Y41821D01*
X25615Y41777D01*
X25683Y41749D01*
X25756Y41739D01*
X25828Y41749D01*
X25896Y41777D01*
X25954Y41821D01*
X25998Y41879D01*
X26026Y41947D01*
X26036Y42019D01*
X26026Y42092D01*
X25998Y42160D01*
X25954Y42218D01*
X25896Y42262D01*
X25828Y42290D01*
X25756Y42300D01*
D02*
G37*
G36*
X29900Y43975D02*
X29823Y43960D01*
X29759Y43916D01*
X29715Y43852D01*
X29700Y43775D01*
X29715Y43698D01*
X29759Y43634D01*
X29823Y43590D01*
X29900Y43575D01*
X29977Y43590D01*
X30041Y43634D01*
X30085Y43698D01*
X30100Y43775D01*
X30085Y43852D01*
X30041Y43916D01*
X29977Y43960D01*
X29900Y43975D01*
D02*
G37*
G36*
X31800Y44000D02*
X31723Y43985D01*
X31659Y43941D01*
X31615Y43877D01*
X31600Y43800D01*
X31615Y43723D01*
X31659Y43659D01*
X31723Y43615D01*
X31800Y43600D01*
X31877Y43615D01*
X31941Y43659D01*
X31985Y43723D01*
X32000Y43800D01*
X31985Y43877D01*
X31941Y43941D01*
X31877Y43985D01*
X31800Y44000D01*
D02*
G37*
G36*
X35306Y42375D02*
X35233Y42365D01*
X35165Y42337D01*
X35107Y42293D01*
X35063Y42235D01*
X35035Y42167D01*
X35025Y42094D01*
X35035Y42022D01*
X35063Y41954D01*
X35107Y41896D01*
X35165Y41852D01*
X35233Y41824D01*
X35306Y41814D01*
X35378Y41824D01*
X35446Y41852D01*
X35504Y41896D01*
X35548Y41954D01*
X35576Y42022D01*
X35586Y42094D01*
X35576Y42167D01*
X35548Y42235D01*
X35504Y42293D01*
X35446Y42337D01*
X35378Y42365D01*
X35306Y42375D01*
D02*
G37*
G36*
X31959Y42171D02*
X31878Y42155D01*
X31809Y42109D01*
X31763Y42040D01*
X31747Y41963D01*
X31697D01*
X31682Y42040D01*
X31636Y42109D01*
X31567Y42155D01*
X31486Y42171D01*
X31405Y42155D01*
X31336Y42109D01*
X31290Y42040D01*
X31275Y41963D01*
X31225D01*
X31210Y42040D01*
X31164Y42109D01*
X31095Y42155D01*
X31014Y42171D01*
X30933Y42155D01*
X30864Y42109D01*
X30818Y42040D01*
X30803Y41963D01*
X30753D01*
X30737Y42040D01*
X30691Y42109D01*
X30622Y42155D01*
X30541Y42171D01*
X30460Y42155D01*
X30391Y42109D01*
X30345Y42040D01*
X30329Y41959D01*
X30345Y41878D01*
X30391Y41809D01*
X30460Y41763D01*
X30537Y41747D01*
Y41697D01*
X30460Y41682D01*
X30391Y41636D01*
X30345Y41567D01*
X30329Y41486D01*
X30345Y41405D01*
X30391Y41336D01*
X30460Y41290D01*
X30537Y41275D01*
Y41225D01*
X30460Y41210D01*
X30391Y41164D01*
X30345Y41095D01*
X30329Y41014D01*
X30345Y40933D01*
X30391Y40864D01*
X30460Y40818D01*
X30537Y40803D01*
Y40753D01*
X30460Y40737D01*
X30391Y40691D01*
X30345Y40622D01*
X30329Y40541D01*
X30345Y40460D01*
X30391Y40391D01*
X30460Y40345D01*
X30541Y40329D01*
X30622Y40345D01*
X30691Y40391D01*
X30737Y40460D01*
X30753Y40537D01*
X30803D01*
X30818Y40460D01*
X30864Y40391D01*
X30933Y40345D01*
X31014Y40329D01*
X31095Y40345D01*
X31164Y40391D01*
X31210Y40460D01*
X31225Y40537D01*
X31275D01*
X31290Y40460D01*
X31336Y40391D01*
X31405Y40345D01*
X31486Y40329D01*
X31567Y40345D01*
X31636Y40391D01*
X31682Y40460D01*
X31697Y40537D01*
X31747D01*
X31763Y40460D01*
X31809Y40391D01*
X31878Y40345D01*
X31959Y40329D01*
X32040Y40345D01*
X32109Y40391D01*
X32155Y40460D01*
X32171Y40541D01*
X32155Y40622D01*
X32109Y40691D01*
X32040Y40737D01*
X31963Y40753D01*
Y40803D01*
X32040Y40818D01*
X32109Y40864D01*
X32155Y40933D01*
X32171Y41014D01*
X32155Y41095D01*
X32109Y41164D01*
X32040Y41210D01*
X31963Y41225D01*
Y41275D01*
X32040Y41290D01*
X32109Y41336D01*
X32155Y41405D01*
X32171Y41486D01*
X32155Y41567D01*
X32109Y41636D01*
X32040Y41682D01*
X31963Y41697D01*
Y41747D01*
X32040Y41763D01*
X32109Y41809D01*
X32155Y41878D01*
X32171Y41959D01*
X32155Y42040D01*
X32109Y42109D01*
X32040Y42155D01*
X31959Y42171D01*
D02*
G37*
%LPD*%
D21*
X30550Y35725D02*
D03*
X21850Y51250D02*
D03*
X26450D02*
D03*
X33000D02*
D03*
X37600D02*
D03*
D22*
X31550Y35725D02*
D03*
X21300Y38450D02*
D03*
X41275Y38600D02*
D03*
X22850Y51250D02*
D03*
X23850D02*
D03*
X24850D02*
D03*
X27450D02*
D03*
X28450D02*
D03*
X29450D02*
D03*
X34000D02*
D03*
X35000D02*
D03*
X36000D02*
D03*
X38600D02*
D03*
X39600D02*
D03*
X40600D02*
D03*
X41250Y43150D02*
D03*
Y45050D02*
D03*
X21250D02*
D03*
Y43150D02*
D03*
D23*
X21300Y39450D02*
D03*
X41275Y39600D02*
D03*
X41250Y42150D02*
D03*
Y46050D02*
D03*
X21250D02*
D03*
Y42150D02*
D03*
D24*
X31300Y37775D02*
D03*
X31525Y38175D02*
D03*
X31500Y48600D02*
D03*
X32375Y44275D02*
D03*
X29125Y48025D02*
D03*
X28075Y47775D02*
D03*
X31800Y43800D02*
D03*
X28375Y39275D02*
D03*
X33275Y44650D02*
D03*
X34000Y38800D02*
D03*
X30550Y38300D02*
D03*
X30350Y44975D02*
D03*
Y48225D02*
D03*
X29825Y45000D02*
D03*
X29925Y44350D02*
D03*
X29900Y43775D02*
D03*
X30775Y37850D02*
D03*
X36650Y45250D02*
D03*
X29650Y36975D02*
D03*
X38600Y45300D02*
D03*
X32325Y47200D02*
D03*
Y47875D02*
D03*
X29825Y48550D02*
D03*
X30100Y37400D02*
D03*
X28750Y39575D02*
D03*
D25*
X30541Y41959D02*
D03*
X31014D02*
D03*
X31486D02*
D03*
X31959D02*
D03*
X30541Y41486D02*
D03*
X31014D02*
D03*
X31486D02*
D03*
X31959D02*
D03*
X30541Y41014D02*
D03*
X31014D02*
D03*
X31486D02*
D03*
X31959D02*
D03*
X30541Y40541D02*
D03*
X31014D02*
D03*
X31486D02*
D03*
X31959D02*
D03*
D26*
X23725Y37075D02*
D03*
X39175Y34800D02*
D03*
X25750Y41300D02*
D03*
X36850Y41350D02*
D03*
X25425Y39450D02*
D03*
X35925Y39575D02*
D03*
D27*
X25756Y42019D02*
D03*
Y44994D02*
D03*
X35306Y42094D02*
D03*
X35300Y45300D02*
D03*
M02*
