%FSLAX25Y25*%
%MOIN*%
G70*
G01*
G75*
G04 Layer_Physical_Order=1*
G04 Layer_Color=255*
%ADD10R,0.07874X0.15748*%
%ADD11R,0.05906X0.04921*%
%ADD12R,0.04921X0.05906*%
%ADD13R,0.19685X0.19685*%
%ADD14R,0.01181X0.06693*%
%ADD15R,0.06693X0.01181*%
%ADD16R,0.05118X0.13583*%
%ADD17R,0.13583X0.05118*%
%ADD18C,0.01181*%
%ADD19C,0.03000*%
%ADD20C,0.02000*%
%ADD21R,0.05906X0.05906*%
%ADD22C,0.05906*%
%ADD23R,0.05906X0.05906*%
%ADD24C,0.02362*%
%ADD25C,0.05000*%
%ADD26C,0.04000*%
%ADD27C,0.02598*%
G36*
X255750Y389712D02*
Y344569D01*
X261750Y338511D01*
X264750Y335482D01*
X278750D01*
Y312514D01*
X277500Y311252D01*
X277000D01*
X276750Y311505D01*
X222750D01*
X207500Y326901D01*
Y387981D01*
X209500Y390000D01*
X255462D01*
X255750Y389712D01*
D02*
G37*
G36*
X418000Y388479D02*
X417500Y387974D01*
Y310000D01*
X340000D01*
Y335234D01*
X362500D01*
X370000Y342805D01*
Y388479D01*
Y389488D01*
X371250Y390750D01*
X415750D01*
X418000Y388479D01*
D02*
G37*
%LPC*%
G36*
X391250Y351464D02*
X390836Y351410D01*
X389985Y351057D01*
X389254Y350496D01*
X388693Y349765D01*
X388340Y348914D01*
X388286Y348500D01*
X391250D01*
Y351464D01*
D02*
G37*
G36*
X395214Y347500D02*
X392250D01*
Y344536D01*
X392664Y344590D01*
X393515Y344943D01*
X394246Y345504D01*
X394807Y346235D01*
X395160Y347086D01*
X395214Y347500D01*
D02*
G37*
G36*
X391250D02*
X388286D01*
X388340Y347086D01*
X388693Y346235D01*
X389254Y345504D01*
X389985Y344943D01*
X390836Y344590D01*
X391250Y344536D01*
Y347500D01*
D02*
G37*
G36*
X392250Y351464D02*
Y348500D01*
X395214D01*
X395160Y348914D01*
X394807Y349765D01*
X394246Y350496D01*
X393515Y351057D01*
X392664Y351410D01*
X392250Y351464D01*
D02*
G37*
G36*
X236750Y374214D02*
X236336Y374160D01*
X235485Y373807D01*
X234754Y373246D01*
X234193Y372515D01*
X233840Y371664D01*
X233786Y371250D01*
X236750D01*
Y374214D01*
D02*
G37*
G36*
X240714Y370250D02*
X237750D01*
Y367286D01*
X238164Y367340D01*
X239015Y367693D01*
X239746Y368254D01*
X240307Y368985D01*
X240660Y369836D01*
X240714Y370250D01*
D02*
G37*
G36*
X236750D02*
X233786D01*
X233840Y369836D01*
X234193Y368985D01*
X234754Y368254D01*
X235485Y367693D01*
X236336Y367340D01*
X236750Y367286D01*
Y370250D01*
D02*
G37*
G36*
X351687Y333898D02*
X347250D01*
Y325524D01*
X351687D01*
Y333898D01*
D02*
G37*
G36*
X346250Y324524D02*
X341813D01*
Y316150D01*
X346250D01*
Y324524D01*
D02*
G37*
G36*
X275937D02*
X271500D01*
Y316150D01*
X275937D01*
Y324524D01*
D02*
G37*
G36*
X270500D02*
X266063D01*
Y316150D01*
X270500D01*
Y324524D01*
D02*
G37*
G36*
X351687D02*
X347250D01*
Y316150D01*
X351687D01*
Y324524D01*
D02*
G37*
G36*
X346250Y333898D02*
X341813D01*
Y325524D01*
X346250D01*
Y333898D01*
D02*
G37*
G36*
X275937D02*
X271500D01*
Y325524D01*
X275937D01*
Y333898D01*
D02*
G37*
G36*
X270500D02*
X266063D01*
Y325524D01*
X270500D01*
Y333898D01*
D02*
G37*
G36*
X412250Y385500D02*
X408829D01*
X408899Y384968D01*
X409297Y384007D01*
X409931Y383181D01*
X410757Y382547D01*
X411718Y382149D01*
X412250Y382079D01*
Y385500D01*
D02*
G37*
G36*
X416671D02*
X413250D01*
Y382079D01*
X413782Y382149D01*
X414743Y382547D01*
X415569Y383181D01*
X416203Y384007D01*
X416601Y384968D01*
X416671Y385500D01*
D02*
G37*
G36*
X374311Y389291D02*
X371252D01*
Y382000D01*
X374311D01*
Y389291D01*
D02*
G37*
G36*
X378370D02*
X375311D01*
Y382000D01*
X378370D01*
Y389291D01*
D02*
G37*
G36*
X412250Y389921D02*
X411718Y389851D01*
X410757Y389453D01*
X409931Y388819D01*
X409297Y387993D01*
X408899Y387032D01*
X408829Y386500D01*
X412250D01*
Y389921D01*
D02*
G37*
G36*
X413250D02*
Y386500D01*
X416671D01*
X416601Y387032D01*
X416203Y387993D01*
X415569Y388819D01*
X414743Y389453D01*
X413782Y389851D01*
X413250Y389921D01*
D02*
G37*
G36*
X212500Y388421D02*
X211968Y388351D01*
X211007Y387953D01*
X210181Y387319D01*
X209547Y386493D01*
X209149Y385532D01*
X209079Y385000D01*
X212500D01*
Y388421D01*
D02*
G37*
G36*
X213500D02*
Y385000D01*
X216921D01*
X216851Y385532D01*
X216453Y386493D01*
X215819Y387319D01*
X214993Y387953D01*
X214032Y388351D01*
X213500Y388421D01*
D02*
G37*
G36*
X253498Y389291D02*
X250439D01*
Y382000D01*
X253498D01*
Y389291D01*
D02*
G37*
G36*
Y381000D02*
X250439D01*
Y373709D01*
X253498D01*
Y381000D01*
D02*
G37*
G36*
X374311D02*
X371252D01*
Y373709D01*
X374311D01*
Y381000D01*
D02*
G37*
G36*
X237750Y374214D02*
Y371250D01*
X240714D01*
X240660Y371664D01*
X240307Y372515D01*
X239746Y373246D01*
X239015Y373807D01*
X238164Y374160D01*
X237750Y374214D01*
D02*
G37*
G36*
X249439Y381000D02*
X246380D01*
Y373709D01*
X249439D01*
Y381000D01*
D02*
G37*
G36*
X216921Y384000D02*
X213500D01*
Y380579D01*
X214032Y380649D01*
X214993Y381047D01*
X215819Y381681D01*
X216453Y382507D01*
X216851Y383468D01*
X216921Y384000D01*
D02*
G37*
G36*
X249439Y389291D02*
X246380D01*
Y382000D01*
X249439D01*
Y389291D01*
D02*
G37*
G36*
X378370Y381000D02*
X375311D01*
Y373709D01*
X378370D01*
Y381000D01*
D02*
G37*
G36*
X212500Y384000D02*
X209079D01*
X209149Y383468D01*
X209547Y382507D01*
X210181Y381681D01*
X211007Y381047D01*
X211968Y380649D01*
X212500Y380579D01*
Y384000D01*
D02*
G37*
%LPD*%
D10*
X271000Y325024D02*
D03*
Y352976D02*
D03*
X346750Y325024D02*
D03*
Y352976D02*
D03*
D11*
X303500Y464695D02*
D03*
Y457805D02*
D03*
X265750Y420195D02*
D03*
Y413305D02*
D03*
D12*
X338555Y453000D02*
D03*
X345445D02*
D03*
X283945Y450000D02*
D03*
X277055D02*
D03*
X307305Y368000D02*
D03*
X314195D02*
D03*
X353055Y413500D02*
D03*
X359945D02*
D03*
D13*
X312500Y412500D02*
D03*
D14*
X301673Y429429D02*
D03*
X303642D02*
D03*
X305610D02*
D03*
X307579D02*
D03*
X309547D02*
D03*
X311516D02*
D03*
X313484D02*
D03*
X315453D02*
D03*
X317421D02*
D03*
X319390D02*
D03*
X321358D02*
D03*
X323327D02*
D03*
Y395571D02*
D03*
X321358D02*
D03*
X319390D02*
D03*
X317421D02*
D03*
X315453D02*
D03*
X313484D02*
D03*
X311516D02*
D03*
X309547D02*
D03*
X307579D02*
D03*
X305610D02*
D03*
X303642D02*
D03*
X301673D02*
D03*
D15*
X329429Y423327D02*
D03*
Y421358D02*
D03*
Y419390D02*
D03*
Y417421D02*
D03*
Y415453D02*
D03*
Y413484D02*
D03*
Y411516D02*
D03*
Y409547D02*
D03*
Y407579D02*
D03*
Y405610D02*
D03*
Y403642D02*
D03*
Y401673D02*
D03*
X295571D02*
D03*
Y403642D02*
D03*
Y405610D02*
D03*
Y407579D02*
D03*
Y409547D02*
D03*
Y411516D02*
D03*
Y413484D02*
D03*
Y415453D02*
D03*
Y417421D02*
D03*
Y419390D02*
D03*
Y421358D02*
D03*
Y423327D02*
D03*
D16*
X351189Y381500D02*
D03*
X374811D02*
D03*
X273561D02*
D03*
X249939D02*
D03*
D17*
X380250Y437061D02*
D03*
Y413439D02*
D03*
X244000Y436811D02*
D03*
Y413189D02*
D03*
D18*
X274500Y498750D02*
Y512500D01*
X266750Y461000D02*
X278000D01*
X299250Y482250D02*
X303500D01*
X278000Y461000D02*
X299250Y482250D01*
X238500Y489250D02*
X266750Y461000D01*
X287500Y395750D02*
X290500D01*
X293500Y392750D01*
Y356750D02*
Y392750D01*
Y356750D02*
X300750Y349500D01*
X300987Y374013D02*
X301000Y374000D01*
X300750Y349500D02*
X319250D01*
X323000Y353250D01*
Y359500D01*
X319961Y362539D02*
X323000Y359500D01*
X284500Y499250D02*
Y512500D01*
Y499250D02*
X298250Y485500D01*
X356500Y493000D02*
X376000Y512500D01*
X337500Y493000D02*
X356500D01*
X323250Y478750D02*
X337500Y493000D01*
X323250Y472000D02*
X328500Y466750D01*
X386000Y453000D02*
Y512500D01*
X396000Y454000D02*
Y512500D01*
X390500Y448500D02*
X396000Y454000D01*
X380523Y448500D02*
X390500D01*
X362273Y466750D02*
X380523Y448500D01*
X328500Y466750D02*
X362273D01*
X361461Y464789D02*
X366500Y459750D01*
X326852Y464789D02*
X361461D01*
X366500Y452500D02*
Y459750D01*
X299000Y437750D02*
X301673Y435077D01*
Y429429D02*
Y435077D01*
X299250Y443500D02*
X303642Y439108D01*
Y429429D02*
Y439108D01*
X298250Y450000D02*
X305610Y442640D01*
Y429429D02*
Y442640D01*
X238500Y489250D02*
Y512500D01*
X303500Y449750D02*
X307579Y445671D01*
Y429429D02*
Y445671D01*
X319390Y390360D02*
X324000Y385750D01*
Y363500D02*
Y385750D01*
X319390Y390360D02*
Y395571D01*
X313484Y383516D02*
Y395571D01*
X327250Y388000D02*
X340000D01*
X323327Y391923D02*
X327250Y388000D01*
X323327Y391923D02*
Y395571D01*
X302948Y377552D02*
X305610Y374890D01*
Y370695D02*
Y374890D01*
X307750Y378500D02*
X309547Y380297D01*
X305610Y370695D02*
X307555Y368750D01*
X323327Y437077D02*
X332750Y446500D01*
X323327Y429429D02*
Y437077D01*
X244000Y436811D02*
X263939D01*
X283329Y417421D01*
X295571D01*
X313484Y448234D02*
X318250Y453000D01*
X313484Y429429D02*
Y448234D01*
X397000Y428000D02*
X412500Y443500D01*
X353000Y428000D02*
X397000D01*
X340453Y415453D02*
X353000Y428000D01*
X358311Y437061D02*
X380250D01*
X338671Y417421D02*
X358311Y437061D01*
X329429Y417421D02*
X338671D01*
X345250Y427000D02*
Y441500D01*
X337640Y419390D02*
X345250Y427000D01*
X329429Y419390D02*
X337640D01*
X329429Y415453D02*
X340453D01*
X265750Y420195D02*
X270805D01*
X277516Y413484D01*
X295571D01*
X281547Y415453D02*
X295571D01*
X270750Y426250D02*
X281547Y415453D01*
X236750Y426250D02*
X270750D01*
X212500Y450500D02*
X236750Y426250D01*
X351189Y381500D02*
Y393311D01*
X345750Y398750D02*
X351189Y393311D01*
X326477Y398750D02*
X345750D01*
X324712Y400515D02*
X326477Y398750D01*
X324712Y400515D02*
Y406769D01*
X325515Y407571D01*
X329422D01*
X329429Y407579D01*
X295571D02*
X299478D01*
X300288Y406769D01*
Y400515D02*
Y406769D01*
X299485Y399712D02*
X300288Y400515D01*
X276750Y443250D02*
X279250Y440750D01*
X234750Y443250D02*
X276750D01*
X217500Y460500D02*
X234750Y443250D01*
X279250Y424750D02*
Y440750D01*
Y424750D02*
X284610Y419390D01*
X347500Y443750D02*
X395750D01*
X345250Y441500D02*
X347500Y443750D01*
X395750D02*
X412500Y460500D01*
Y443500D02*
Y450500D01*
X284610Y419390D02*
X295571D01*
X212500Y460500D02*
X217500D01*
X311516Y429429D02*
Y461234D01*
X308055Y464695D02*
X311516Y461234D01*
X303500Y464695D02*
X308055D01*
X303500Y457805D02*
X309547Y451758D01*
Y429429D02*
Y451758D01*
X295564Y405618D02*
X295571Y405610D01*
X219727Y421500D02*
X235609Y405618D01*
X212500Y421500D02*
X219727D01*
X212500Y431500D02*
X236250Y407750D01*
X270750D01*
X272547Y409547D01*
X295571D01*
X389000Y408000D02*
X412500Y431500D01*
X349750Y408000D02*
X389000D01*
X348203Y409547D02*
X349750Y408000D01*
X329429Y409547D02*
X348203D01*
X396610Y405610D02*
X412500Y421500D01*
X329429Y405610D02*
X396610D01*
X314195Y368000D02*
X315500Y366695D01*
X353039Y413484D02*
X353055Y413500D01*
X329429Y413484D02*
X353039D01*
X314195Y368000D02*
X315453Y369258D01*
Y395571D02*
Y409547D01*
X317421Y421521D02*
Y429429D01*
X324000Y363500D02*
X326250Y361250D01*
Y351500D02*
Y361250D01*
X321250Y346500D02*
X326250Y351500D01*
X299000Y346500D02*
X321250D01*
X289250Y356250D02*
X299000Y346500D01*
X289250Y356250D02*
Y387250D01*
X235609Y405618D02*
X295564D01*
X280462Y399712D02*
X299485D01*
X273561Y381500D02*
Y392811D01*
X280462Y399712D01*
X283750Y392750D02*
X289250Y387250D01*
X319390Y429429D02*
Y436610D01*
X318000Y438000D02*
X319390Y436610D01*
X248500Y483750D02*
Y512500D01*
X274500Y498750D02*
X280750Y492500D01*
Y477750D02*
Y492500D01*
X248500Y483750D02*
X264250Y468000D01*
X279000D01*
X291250Y480250D01*
X321358Y429429D02*
Y440358D01*
X323750Y442750D01*
X310250Y481391D02*
X326852Y464789D01*
X340000Y506250D02*
Y512500D01*
X335000Y501250D02*
X340000Y506250D01*
X310250Y481391D02*
Y501250D01*
X335000D01*
X315000Y486000D02*
X326750Y497750D01*
X344750D01*
X350000Y503000D01*
Y512500D01*
X296500Y369750D02*
Y384000D01*
X300987Y374013D02*
Y385261D01*
X302948Y377552D02*
Y384448D01*
X296500Y384000D02*
X301673Y389173D01*
Y395571D01*
X300987Y385261D02*
X303642Y387915D01*
Y395571D01*
X302948Y384448D02*
X305610Y387110D01*
Y395571D01*
X305500Y383000D02*
X307579Y385079D01*
Y395571D01*
X309547Y380297D02*
Y395571D01*
X313484Y383516D02*
X315250Y381750D01*
X315453Y386547D02*
Y395571D01*
Y386547D02*
X318000Y384000D01*
X319961Y362539D02*
Y385789D01*
X317421Y388329D02*
Y395571D01*
Y388329D02*
X319961Y385789D01*
X315453Y369258D02*
Y373453D01*
X318000Y376000D01*
Y384000D01*
X311516Y379234D02*
Y395571D01*
Y379234D02*
X313000Y377750D01*
D19*
X359500Y355500D02*
Y396000D01*
X412750D01*
X356976Y352976D02*
X359500Y355500D01*
X283945Y450000D02*
Y459695D01*
X297750Y473500D01*
X310250D01*
X318250Y465500D01*
Y453000D02*
Y465500D01*
Y453000D02*
X338555D01*
X260274Y356976D02*
Y388476D01*
Y356976D02*
X264274Y352976D01*
X271000D01*
X254250Y394500D02*
X260274Y388476D01*
X346750Y352976D02*
X356976D01*
X213000Y394500D02*
X254250D01*
X345445Y453000D02*
X353000D01*
X353055Y413500D02*
Y420945D01*
X368500Y413500D02*
X368561Y413439D01*
X380250D01*
X359945Y413500D02*
X368500D01*
X277000Y449945D02*
X277055Y450000D01*
X257555Y449945D02*
X277000D01*
X257555Y420195D02*
X265750D01*
X244000Y413189D02*
X265634D01*
X265750Y413305D01*
D20*
X305500Y366195D02*
X307305Y368000D01*
X305500Y357250D02*
Y366195D01*
X315500Y357250D02*
Y366695D01*
D21*
X212500Y421500D02*
D03*
Y460500D02*
D03*
X412500D02*
D03*
Y421500D02*
D03*
X412750Y396000D02*
D03*
X213000Y394500D02*
D03*
D22*
X212500Y431500D02*
D03*
Y450500D02*
D03*
X412500D02*
D03*
Y431500D02*
D03*
X406000Y512500D02*
D03*
X396000D02*
D03*
X386000D02*
D03*
X360000D02*
D03*
X350000D02*
D03*
X340000D02*
D03*
X294500D02*
D03*
X284500D02*
D03*
X274500D02*
D03*
X248500D02*
D03*
X238500D02*
D03*
X228500D02*
D03*
X412750Y386000D02*
D03*
X213000Y384500D02*
D03*
X315500Y357250D02*
D03*
D23*
X376000Y512500D02*
D03*
X330000D02*
D03*
X264500D02*
D03*
X218500D02*
D03*
X305500Y357250D02*
D03*
D24*
X287500Y395750D02*
D03*
X301000Y374000D02*
D03*
X298250Y485500D02*
D03*
X323250Y478750D02*
D03*
Y472000D02*
D03*
X386000Y453000D02*
D03*
X296500Y369750D02*
D03*
X366500Y452500D02*
D03*
X307750Y378500D02*
D03*
X299000Y437750D02*
D03*
X299250Y443500D02*
D03*
X298250Y450000D02*
D03*
X303500Y482250D02*
D03*
Y449750D02*
D03*
X305500Y383000D02*
D03*
X340000Y388000D02*
D03*
X332750Y446500D02*
D03*
X283750Y392750D02*
D03*
X318000Y438000D02*
D03*
X280750Y477750D02*
D03*
X291250Y480250D02*
D03*
X323750Y442750D02*
D03*
X315000Y486000D02*
D03*
X315250Y381750D02*
D03*
X313000Y377750D02*
D03*
D25*
X359250Y395750D02*
D03*
X254250Y394500D02*
D03*
X368500Y413500D02*
D03*
X257500Y413000D02*
D03*
X391750Y348000D02*
D03*
X237250Y370750D02*
D03*
D26*
X353000Y453000D02*
D03*
X353055Y420945D02*
D03*
X257555Y449945D02*
D03*
Y420195D02*
D03*
D27*
X319587Y405413D02*
D03*
X314862D02*
D03*
X310138D02*
D03*
X305413D02*
D03*
X319587Y410138D02*
D03*
X314862D02*
D03*
X310138D02*
D03*
X305413D02*
D03*
X319587Y414862D02*
D03*
X314862D02*
D03*
X310138D02*
D03*
X305413D02*
D03*
X319587Y419587D02*
D03*
X314862D02*
D03*
X310138D02*
D03*
X305413D02*
D03*
M02*
