%FSLAX25Y25*%
%MOIN*%
G70*
G01*
G75*
G04 Layer_Physical_Order=4*
G04 Layer_Color=16711680*
%ADD10R,0.07874X0.15748*%
%ADD11R,0.05906X0.04921*%
%ADD12R,0.04921X0.05906*%
%ADD13R,0.19685X0.19685*%
%ADD14R,0.01181X0.06693*%
%ADD15R,0.06693X0.01181*%
%ADD16R,0.05118X0.13583*%
%ADD17R,0.13583X0.05118*%
%ADD18C,0.01181*%
%ADD19C,0.03000*%
%ADD20C,0.02000*%
%ADD21R,0.05906X0.05906*%
%ADD22C,0.05906*%
%ADD23R,0.05906X0.05906*%
%ADD24C,0.02362*%
%ADD25C,0.05000*%
%ADD26C,0.04000*%
%ADD27C,0.02598*%
%ADD28R,0.27000X0.27000*%
%ADD29C,0.04000*%
%ADD30C,0.07543*%
G04:AMPARAMS|DCode=31|XSize=95.433mil|YSize=95.433mil|CornerRadius=0mil|HoleSize=0mil|Usage=FLASHONLY|Rotation=0.000|XOffset=0mil|YOffset=0mil|HoleType=Round|Shape=Relief|Width=10mil|Gap=10mil|Entries=4|*
%AMTHD31*
7,0,0,0.09543,0.07543,0.01000,45*
%
%ADD31THD31*%
%ADD32C,0.05378*%
%ADD33C,0.06800*%
%ADD34C,0.06500*%
G04:AMPARAMS|DCode=35|XSize=88mil|YSize=88mil|CornerRadius=0mil|HoleSize=0mil|Usage=FLASHONLY|Rotation=0.000|XOffset=0mil|YOffset=0mil|HoleType=Round|Shape=Relief|Width=10mil|Gap=10mil|Entries=4|*
%AMTHD35*
7,0,0,0.08800,0.06800,0.01000,45*
%
%ADD35THD35*%
%ADD36C,0.05299*%
G36*
X381765Y461153D02*
Y361153D01*
X361765Y341153D01*
X261765D01*
X241765Y361153D01*
Y461153D01*
X261765Y481153D01*
X289036D01*
X289353Y480766D01*
X289250Y480250D01*
X289403Y479485D01*
X289836Y478836D01*
X290485Y478403D01*
X291250Y478251D01*
X292015Y478403D01*
X292664Y478836D01*
X293097Y479485D01*
X293250Y480250D01*
X293147Y480766D01*
X293464Y481153D01*
X301875D01*
X302086Y480836D01*
X302735Y480403D01*
X303500Y480251D01*
X304265Y480403D01*
X304914Y480836D01*
X305125Y481153D01*
X322726D01*
X322775Y480655D01*
X322485Y480597D01*
X321836Y480164D01*
X321403Y479515D01*
X321251Y478750D01*
X321403Y477985D01*
X321836Y477336D01*
X322485Y476903D01*
X323250Y476751D01*
X324015Y476903D01*
X324664Y477336D01*
X325097Y477985D01*
X325250Y478750D01*
X325097Y479515D01*
X324664Y480164D01*
X324015Y480597D01*
X323725Y480655D01*
X323774Y481153D01*
X361765D01*
X381765Y461153D01*
D02*
G37*
%LPC*%
G36*
X283750Y394749D02*
X282985Y394597D01*
X282336Y394164D01*
X281903Y393515D01*
X281750Y392750D01*
X281903Y391985D01*
X282336Y391336D01*
X282985Y390903D01*
X283750Y390751D01*
X284515Y390903D01*
X285164Y391336D01*
X285597Y391985D01*
X285750Y392750D01*
X285597Y393515D01*
X285164Y394164D01*
X284515Y394597D01*
X283750Y394749D01*
D02*
G37*
G36*
X254250Y397808D02*
X253394Y397696D01*
X252596Y397365D01*
X251911Y396839D01*
X251385Y396154D01*
X251054Y395356D01*
X250942Y394500D01*
X251054Y393644D01*
X251385Y392846D01*
X251911Y392161D01*
X252596Y391635D01*
X253394Y391304D01*
X254250Y391192D01*
X255106Y391304D01*
X255904Y391635D01*
X256589Y392161D01*
X257115Y392846D01*
X257446Y393644D01*
X257558Y394500D01*
X257446Y395356D01*
X257115Y396154D01*
X256589Y396839D01*
X255904Y397365D01*
X255106Y397696D01*
X254250Y397808D01*
D02*
G37*
G36*
X305500Y384999D02*
X304735Y384847D01*
X304086Y384414D01*
X303653Y383765D01*
X303501Y383000D01*
X303653Y382235D01*
X304086Y381586D01*
X304735Y381153D01*
X305500Y381000D01*
X306265Y381153D01*
X306914Y381586D01*
X307347Y382235D01*
X307500Y383000D01*
X307347Y383765D01*
X306914Y384414D01*
X306265Y384847D01*
X305500Y384999D01*
D02*
G37*
G36*
X340000Y390000D02*
X339235Y389847D01*
X338586Y389414D01*
X338153Y388765D01*
X338000Y388000D01*
X338153Y387235D01*
X338586Y386586D01*
X339235Y386153D01*
X340000Y386000D01*
X340765Y386153D01*
X341414Y386586D01*
X341847Y387235D01*
X342000Y388000D01*
X341847Y388765D01*
X341414Y389414D01*
X340765Y389847D01*
X340000Y390000D01*
D02*
G37*
G36*
X359250Y399058D02*
X358394Y398946D01*
X357596Y398615D01*
X356911Y398089D01*
X356385Y397404D01*
X356054Y396606D01*
X355942Y395750D01*
X356054Y394894D01*
X356385Y394096D01*
X356911Y393411D01*
X357596Y392885D01*
X358394Y392554D01*
X359250Y392442D01*
X360106Y392554D01*
X360904Y392885D01*
X361589Y393411D01*
X362115Y394096D01*
X362446Y394894D01*
X362558Y395750D01*
X362446Y396606D01*
X362115Y397404D01*
X361589Y398089D01*
X360904Y398615D01*
X360106Y398946D01*
X359250Y399058D01*
D02*
G37*
G36*
X260964Y412500D02*
X258000D01*
Y409536D01*
X258414Y409590D01*
X259265Y409943D01*
X259996Y410504D01*
X260557Y411235D01*
X260910Y412086D01*
X260964Y412500D01*
D02*
G37*
G36*
X368000Y413000D02*
X365036D01*
X365090Y412586D01*
X365443Y411735D01*
X366004Y411004D01*
X366735Y410443D01*
X367586Y410090D01*
X368000Y410036D01*
Y413000D01*
D02*
G37*
G36*
X287500Y397749D02*
X286735Y397597D01*
X286086Y397164D01*
X285653Y396515D01*
X285501Y395750D01*
X285653Y394985D01*
X286086Y394336D01*
X286735Y393903D01*
X287500Y393751D01*
X288265Y393903D01*
X288914Y394336D01*
X289347Y394985D01*
X289499Y395750D01*
X289347Y396515D01*
X288914Y397164D01*
X288265Y397597D01*
X287500Y397749D01*
D02*
G37*
G36*
X257000Y412500D02*
X254036D01*
X254090Y412086D01*
X254443Y411235D01*
X255004Y410504D01*
X255735Y409943D01*
X256586Y409590D01*
X257000Y409536D01*
Y412500D01*
D02*
G37*
G36*
X315250Y383750D02*
X314485Y383597D01*
X313836Y383164D01*
X313403Y382515D01*
X313250Y381750D01*
X313403Y380985D01*
X313836Y380336D01*
X314485Y379903D01*
X315250Y379750D01*
X316015Y379903D01*
X316664Y380336D01*
X317097Y380985D01*
X317249Y381750D01*
X317097Y382515D01*
X316664Y383164D01*
X316015Y383597D01*
X315250Y383750D01*
D02*
G37*
G36*
X309233Y360983D02*
X301767D01*
Y353517D01*
X309233D01*
Y360983D01*
D02*
G37*
G36*
X315000Y361171D02*
X314468Y361101D01*
X313507Y360703D01*
X312681Y360069D01*
X312047Y359243D01*
X311649Y358282D01*
X311579Y357750D01*
X315000D01*
Y361171D01*
D02*
G37*
G36*
Y356750D02*
X311579D01*
X311649Y356218D01*
X312047Y355257D01*
X312681Y354431D01*
X313507Y353797D01*
X314468Y353399D01*
X315000Y353329D01*
Y356750D01*
D02*
G37*
G36*
X319421D02*
X316000D01*
Y353329D01*
X316532Y353399D01*
X317493Y353797D01*
X318319Y354431D01*
X318953Y355257D01*
X319351Y356218D01*
X319421Y356750D01*
D02*
G37*
G36*
X316000Y361171D02*
Y357750D01*
X319421D01*
X319351Y358282D01*
X318953Y359243D01*
X318319Y360069D01*
X317493Y360703D01*
X316532Y361101D01*
X316000Y361171D01*
D02*
G37*
G36*
X313000Y379749D02*
X312235Y379597D01*
X311586Y379164D01*
X311153Y378515D01*
X311000Y377750D01*
X311153Y376985D01*
X311586Y376336D01*
X312235Y375903D01*
X313000Y375750D01*
X313765Y375903D01*
X314414Y376336D01*
X314847Y376985D01*
X315000Y377750D01*
X314847Y378515D01*
X314414Y379164D01*
X313765Y379597D01*
X313000Y379749D01*
D02*
G37*
G36*
X307750Y380500D02*
X306985Y380347D01*
X306336Y379914D01*
X305903Y379265D01*
X305750Y378500D01*
X305903Y377735D01*
X306336Y377086D01*
X306985Y376653D01*
X307750Y376501D01*
X308515Y376653D01*
X309164Y377086D01*
X309597Y377735D01*
X309750Y378500D01*
X309597Y379265D01*
X309164Y379914D01*
X308515Y380347D01*
X307750Y380500D01*
D02*
G37*
G36*
X296500Y371749D02*
X295735Y371597D01*
X295086Y371164D01*
X294653Y370515D01*
X294500Y369750D01*
X294653Y368985D01*
X295086Y368336D01*
X295735Y367903D01*
X296500Y367751D01*
X297265Y367903D01*
X297914Y368336D01*
X298347Y368985D01*
X298499Y369750D01*
X298347Y370515D01*
X297914Y371164D01*
X297265Y371597D01*
X296500Y371749D01*
D02*
G37*
G36*
X301000Y375999D02*
X300235Y375847D01*
X299586Y375414D01*
X299153Y374765D01*
X299001Y374000D01*
X299153Y373235D01*
X299586Y372586D01*
X300235Y372153D01*
X301000Y372001D01*
X301765Y372153D01*
X302414Y372586D01*
X302847Y373235D01*
X302999Y374000D01*
X302847Y374765D01*
X302414Y375414D01*
X301765Y375847D01*
X301000Y375999D01*
D02*
G37*
G36*
X371964Y413000D02*
X369000D01*
Y410036D01*
X369414Y410090D01*
X370265Y410443D01*
X370996Y411004D01*
X371557Y411735D01*
X371910Y412586D01*
X371964Y413000D01*
D02*
G37*
G36*
X257555Y452749D02*
X256829Y452653D01*
X256153Y452373D01*
X255572Y451928D01*
X255127Y451347D01*
X254847Y450671D01*
X254751Y449945D01*
X254847Y449219D01*
X255127Y448543D01*
X255572Y447962D01*
X256153Y447517D01*
X256829Y447236D01*
X257555Y447141D01*
X258281Y447236D01*
X258957Y447517D01*
X259538Y447962D01*
X259983Y448543D01*
X260264Y449219D01*
X260359Y449945D01*
X260264Y450671D01*
X259983Y451347D01*
X259538Y451928D01*
X258957Y452373D01*
X258281Y452653D01*
X257555Y452749D01*
D02*
G37*
G36*
X303500Y451750D02*
X302735Y451597D01*
X302086Y451164D01*
X301653Y450515D01*
X301501Y449750D01*
X301653Y448985D01*
X302086Y448336D01*
X302735Y447903D01*
X303500Y447751D01*
X304265Y447903D01*
X304914Y448336D01*
X305347Y448985D01*
X305500Y449750D01*
X305347Y450515D01*
X304914Y451164D01*
X304265Y451597D01*
X303500Y451750D01*
D02*
G37*
G36*
X299250Y445500D02*
X298485Y445347D01*
X297836Y444914D01*
X297403Y444265D01*
X297251Y443500D01*
X297403Y442735D01*
X297836Y442086D01*
X298485Y441653D01*
X299250Y441501D01*
X300015Y441653D01*
X300664Y442086D01*
X301097Y442735D01*
X301250Y443500D01*
X301097Y444265D01*
X300664Y444914D01*
X300015Y445347D01*
X299250Y445500D01*
D02*
G37*
G36*
X332750Y448499D02*
X331985Y448347D01*
X331336Y447914D01*
X330903Y447265D01*
X330750Y446500D01*
X330903Y445735D01*
X331336Y445086D01*
X331985Y444653D01*
X332750Y444500D01*
X333515Y444653D01*
X334164Y445086D01*
X334597Y445735D01*
X334750Y446500D01*
X334597Y447265D01*
X334164Y447914D01*
X333515Y448347D01*
X332750Y448499D01*
D02*
G37*
G36*
X298250Y452000D02*
X297485Y451847D01*
X296836Y451414D01*
X296403Y450765D01*
X296251Y450000D01*
X296403Y449235D01*
X296836Y448586D01*
X297485Y448153D01*
X298250Y448000D01*
X299015Y448153D01*
X299664Y448586D01*
X300097Y449235D01*
X300250Y450000D01*
X300097Y450765D01*
X299664Y451414D01*
X299015Y451847D01*
X298250Y452000D01*
D02*
G37*
G36*
X323250Y474000D02*
X322485Y473847D01*
X321836Y473414D01*
X321403Y472765D01*
X321251Y472000D01*
X321403Y471235D01*
X321836Y470586D01*
X322485Y470153D01*
X323250Y470001D01*
X324015Y470153D01*
X324664Y470586D01*
X325097Y471235D01*
X325250Y472000D01*
X325097Y472765D01*
X324664Y473414D01*
X324015Y473847D01*
X323250Y474000D01*
D02*
G37*
G36*
X280750Y479749D02*
X279985Y479597D01*
X279336Y479164D01*
X278903Y478515D01*
X278750Y477750D01*
X278903Y476985D01*
X279336Y476336D01*
X279985Y475903D01*
X280750Y475750D01*
X281515Y475903D01*
X282164Y476336D01*
X282597Y476985D01*
X282750Y477750D01*
X282597Y478515D01*
X282164Y479164D01*
X281515Y479597D01*
X280750Y479749D01*
D02*
G37*
G36*
X353000Y455804D02*
X352274Y455708D01*
X351598Y455428D01*
X351017Y454983D01*
X350572Y454402D01*
X350292Y453726D01*
X350196Y453000D01*
X350292Y452274D01*
X350572Y451598D01*
X351017Y451017D01*
X351598Y450572D01*
X352274Y450292D01*
X353000Y450196D01*
X353726Y450292D01*
X354402Y450572D01*
X354983Y451017D01*
X355428Y451598D01*
X355708Y452274D01*
X355804Y453000D01*
X355708Y453726D01*
X355428Y454402D01*
X354983Y454983D01*
X354402Y455428D01*
X353726Y455708D01*
X353000Y455804D01*
D02*
G37*
G36*
X366500Y454499D02*
X365735Y454347D01*
X365086Y453914D01*
X364653Y453265D01*
X364500Y452500D01*
X364653Y451735D01*
X365086Y451086D01*
X365735Y450653D01*
X366500Y450500D01*
X367265Y450653D01*
X367914Y451086D01*
X368347Y451735D01*
X368499Y452500D01*
X368347Y453265D01*
X367914Y453914D01*
X367265Y454347D01*
X366500Y454499D01*
D02*
G37*
G36*
X323750Y444749D02*
X322985Y444597D01*
X322336Y444164D01*
X321903Y443515D01*
X321750Y442750D01*
X321903Y441985D01*
X322336Y441336D01*
X322985Y440903D01*
X323750Y440751D01*
X324515Y440903D01*
X325164Y441336D01*
X325597Y441985D01*
X325749Y442750D01*
X325597Y443515D01*
X325164Y444164D01*
X324515Y444597D01*
X323750Y444749D01*
D02*
G37*
G36*
X368000Y416964D02*
X367586Y416910D01*
X366735Y416557D01*
X366004Y415996D01*
X365443Y415265D01*
X365090Y414414D01*
X365036Y414000D01*
X368000D01*
Y416964D01*
D02*
G37*
G36*
X369000D02*
Y414000D01*
X371964D01*
X371910Y414414D01*
X371557Y415265D01*
X370996Y415996D01*
X370265Y416557D01*
X369414Y416910D01*
X369000Y416964D01*
D02*
G37*
G36*
X257000Y416464D02*
X256586Y416410D01*
X255735Y416057D01*
X255004Y415496D01*
X254443Y414765D01*
X254090Y413914D01*
X254036Y413500D01*
X257000D01*
Y416464D01*
D02*
G37*
G36*
X258000D02*
Y413500D01*
X260964D01*
X260910Y413914D01*
X260557Y414765D01*
X259996Y415496D01*
X259265Y416057D01*
X258414Y416410D01*
X258000Y416464D01*
D02*
G37*
G36*
X257555Y422999D02*
X256829Y422903D01*
X256153Y422623D01*
X255572Y422178D01*
X255127Y421597D01*
X254847Y420921D01*
X254751Y420195D01*
X254847Y419469D01*
X255127Y418793D01*
X255572Y418212D01*
X256153Y417767D01*
X256829Y417486D01*
X257555Y417391D01*
X258281Y417486D01*
X258957Y417767D01*
X259538Y418212D01*
X259983Y418793D01*
X260264Y419469D01*
X260359Y420195D01*
X260264Y420921D01*
X259983Y421597D01*
X259538Y422178D01*
X258957Y422623D01*
X258281Y422903D01*
X257555Y422999D01*
D02*
G37*
G36*
X299000Y439749D02*
X298235Y439597D01*
X297586Y439164D01*
X297153Y438515D01*
X297001Y437750D01*
X297153Y436985D01*
X297586Y436336D01*
X298235Y435903D01*
X299000Y435750D01*
X299765Y435903D01*
X300414Y436336D01*
X300847Y436985D01*
X300999Y437750D01*
X300847Y438515D01*
X300414Y439164D01*
X299765Y439597D01*
X299000Y439749D01*
D02*
G37*
G36*
X318000Y439999D02*
X317235Y439847D01*
X316586Y439414D01*
X316153Y438765D01*
X316001Y438000D01*
X316153Y437235D01*
X316586Y436586D01*
X317235Y436153D01*
X318000Y436000D01*
X318765Y436153D01*
X319414Y436586D01*
X319847Y437235D01*
X320000Y438000D01*
X319847Y438765D01*
X319414Y439414D01*
X318765Y439847D01*
X318000Y439999D01*
D02*
G37*
G36*
X353055Y423749D02*
X352329Y423653D01*
X351653Y423373D01*
X351072Y422928D01*
X350627Y422347D01*
X350347Y421671D01*
X350251Y420945D01*
X350347Y420219D01*
X350627Y419543D01*
X351072Y418962D01*
X351653Y418517D01*
X352329Y418236D01*
X353055Y418141D01*
X353781Y418236D01*
X354457Y418517D01*
X355038Y418962D01*
X355483Y419543D01*
X355764Y420219D01*
X355859Y420945D01*
X355764Y421671D01*
X355483Y422347D01*
X355038Y422928D01*
X354457Y423373D01*
X353781Y423653D01*
X353055Y423749D01*
D02*
G37*
G36*
X319587Y421706D02*
X318775Y421545D01*
X318088Y421086D01*
X317628Y420398D01*
X317474Y419626D01*
X316974D01*
X316821Y420398D01*
X316361Y421086D01*
X315673Y421545D01*
X314862Y421706D01*
X314051Y421545D01*
X313363Y421086D01*
X312904Y420398D01*
X312750Y419626D01*
X312250D01*
X312096Y420398D01*
X311637Y421086D01*
X310949Y421545D01*
X310138Y421706D01*
X309327Y421545D01*
X308639Y421086D01*
X308179Y420398D01*
X308026Y419626D01*
X307526D01*
X307372Y420398D01*
X306912Y421086D01*
X306225Y421545D01*
X305413Y421706D01*
X304602Y421545D01*
X303914Y421086D01*
X303455Y420398D01*
X303293Y419587D01*
X303455Y418775D01*
X303914Y418088D01*
X304602Y417628D01*
X305375Y417474D01*
Y416974D01*
X304602Y416821D01*
X303914Y416361D01*
X303455Y415673D01*
X303293Y414862D01*
X303455Y414051D01*
X303914Y413363D01*
X304602Y412904D01*
X305375Y412750D01*
Y412250D01*
X304602Y412096D01*
X303914Y411637D01*
X303455Y410949D01*
X303293Y410138D01*
X303455Y409327D01*
X303914Y408639D01*
X304602Y408179D01*
X305375Y408026D01*
Y407526D01*
X304602Y407372D01*
X303914Y406912D01*
X303455Y406225D01*
X303293Y405413D01*
X303455Y404602D01*
X303914Y403914D01*
X304602Y403455D01*
X305413Y403293D01*
X306225Y403455D01*
X306912Y403914D01*
X307372Y404602D01*
X307526Y405374D01*
X308026D01*
X308179Y404602D01*
X308639Y403914D01*
X309327Y403455D01*
X310138Y403293D01*
X310949Y403455D01*
X311637Y403914D01*
X312096Y404602D01*
X312250Y405374D01*
X312750D01*
X312904Y404602D01*
X313363Y403914D01*
X314051Y403455D01*
X314862Y403293D01*
X315673Y403455D01*
X316361Y403914D01*
X316821Y404602D01*
X316974Y405374D01*
X317474D01*
X317628Y404602D01*
X318088Y403914D01*
X318775Y403455D01*
X319587Y403293D01*
X320398Y403455D01*
X321086Y403914D01*
X321545Y404602D01*
X321707Y405413D01*
X321545Y406225D01*
X321086Y406912D01*
X320398Y407372D01*
X319625Y407526D01*
Y408026D01*
X320398Y408179D01*
X321086Y408639D01*
X321545Y409327D01*
X321707Y410138D01*
X321545Y410949D01*
X321086Y411637D01*
X320398Y412096D01*
X319625Y412250D01*
Y412750D01*
X320398Y412904D01*
X321086Y413363D01*
X321545Y414051D01*
X321707Y414862D01*
X321545Y415673D01*
X321086Y416361D01*
X320398Y416821D01*
X319625Y416974D01*
Y417474D01*
X320398Y417628D01*
X321086Y418088D01*
X321545Y418775D01*
X321707Y419587D01*
X321545Y420398D01*
X321086Y421086D01*
X320398Y421545D01*
X319587Y421706D01*
D02*
G37*
%LPD*%
D21*
X212500Y421500D02*
D03*
Y460500D02*
D03*
X412500D02*
D03*
Y421500D02*
D03*
X412750Y396000D02*
D03*
X213000Y394500D02*
D03*
D22*
X212500Y431500D02*
D03*
Y450500D02*
D03*
X412500D02*
D03*
Y431500D02*
D03*
X406000Y512500D02*
D03*
X396000D02*
D03*
X386000D02*
D03*
X360000D02*
D03*
X350000D02*
D03*
X340000D02*
D03*
X294500D02*
D03*
X284500D02*
D03*
X274500D02*
D03*
X248500D02*
D03*
X238500D02*
D03*
X228500D02*
D03*
X412750Y386000D02*
D03*
X213000Y384500D02*
D03*
X315500Y357250D02*
D03*
D23*
X376000Y512500D02*
D03*
X330000D02*
D03*
X264500D02*
D03*
X218500D02*
D03*
X305500Y357250D02*
D03*
D24*
X287500Y395750D02*
D03*
X301000Y374000D02*
D03*
X298250Y485500D02*
D03*
X323250Y478750D02*
D03*
Y472000D02*
D03*
X386000Y453000D02*
D03*
X296500Y369750D02*
D03*
X366500Y452500D02*
D03*
X307750Y378500D02*
D03*
X299000Y437750D02*
D03*
X299250Y443500D02*
D03*
X298250Y450000D02*
D03*
X303500Y482250D02*
D03*
Y449750D02*
D03*
X305500Y383000D02*
D03*
X340000Y388000D02*
D03*
X332750Y446500D02*
D03*
X283750Y392750D02*
D03*
X318000Y438000D02*
D03*
X280750Y477750D02*
D03*
X291250Y480250D02*
D03*
X323750Y442750D02*
D03*
X315000Y486000D02*
D03*
X315250Y381750D02*
D03*
X313000Y377750D02*
D03*
D25*
X359250Y395750D02*
D03*
X254250Y394500D02*
D03*
X368500Y413500D02*
D03*
X257500Y413000D02*
D03*
X391750Y348000D02*
D03*
X237250Y370750D02*
D03*
D26*
X353000Y453000D02*
D03*
X353055Y420945D02*
D03*
X257555Y449945D02*
D03*
Y420195D02*
D03*
D27*
X319587Y405413D02*
D03*
X314862D02*
D03*
X310138D02*
D03*
X305413D02*
D03*
X319587Y410138D02*
D03*
X314862D02*
D03*
X310138D02*
D03*
X305413D02*
D03*
X319587Y414862D02*
D03*
X314862D02*
D03*
X310138D02*
D03*
X305413D02*
D03*
X319587Y419587D02*
D03*
X314862D02*
D03*
X310138D02*
D03*
X305413D02*
D03*
M02*
