%FSLAX24Y24*%
%MOIN*%
G70*
G01*
G75*
G04 Layer_Physical_Order=2*
G04 Layer_Color=36540*
%ADD10R,0.0787X0.1575*%
%ADD11R,0.1358X0.0512*%
%ADD12R,0.0512X0.1358*%
%ADD13R,0.0492X0.0591*%
%ADD14R,0.0669X0.0118*%
%ADD15R,0.0118X0.0669*%
%ADD16R,0.1969X0.1969*%
%ADD17R,0.0591X0.0492*%
%ADD18C,0.0118*%
%ADD19C,0.0200*%
%ADD20C,0.0300*%
%ADD21R,0.0591X0.0591*%
%ADD22C,0.0591*%
%ADD23R,0.0591X0.0591*%
%ADD24C,0.0236*%
%ADD25C,0.0260*%
%ADD26C,0.0500*%
%ADD27C,0.0400*%
%ADD28R,0.2700X0.2700*%
D18*
X31274Y37717D02*
Y37824D01*
X31300Y37850D01*
X32341Y37716D02*
X34125Y39500D01*
X31276Y37716D02*
X32341D01*
X31274Y37717D02*
X31276Y37716D01*
X32774Y37324D02*
X33799Y38349D01*
X32422Y37520D02*
X33447Y38545D01*
X31194Y37520D02*
X32422D01*
X31113Y37324D02*
X32774D01*
X31112Y37325D02*
X31113Y37324D01*
X30600Y37325D02*
X31112D01*
X31193Y37521D02*
X31194Y37520D01*
X30221Y37521D02*
X31193D01*
X31300Y37775D02*
Y37850D01*
X30100Y37400D02*
X30221Y37521D01*
X31500Y45100D02*
Y48600D01*
X30750Y44350D02*
X31500Y45100D01*
X29925Y44350D02*
X30750D01*
X31950Y47725D02*
Y49075D01*
X31492Y49533D02*
X31950Y49075D01*
X30142Y49533D02*
X31492D01*
X31950Y47725D02*
X32220Y47455D01*
X29450Y50225D02*
X30142Y49533D01*
X32220Y47455D02*
X32431D01*
X29450Y50225D02*
Y51250D01*
X32580Y44828D02*
Y47306D01*
X32375Y44623D02*
X32580Y44828D01*
X32431Y47455D02*
X32580Y47306D01*
X32375Y44275D02*
Y44623D01*
X29125Y44075D02*
Y48025D01*
X28375Y40985D02*
Y48000D01*
Y40985D02*
X30950Y38410D01*
X26450Y49925D02*
X28375Y48000D01*
X26450Y49925D02*
Y51250D01*
X28075Y47050D02*
Y47775D01*
X27700Y46675D02*
X28075Y47050D01*
X27700Y40625D02*
Y46675D01*
X29125Y44075D02*
X29680Y43520D01*
X31272D01*
X31552Y43800D01*
X31800D01*
X27150Y40500D02*
Y45225D01*
X22850Y49525D02*
X27150Y45225D01*
X22850Y49525D02*
Y51250D01*
X27150Y40500D02*
X28375Y39275D01*
X36000Y49725D02*
Y51250D01*
X34000Y38800D02*
X34963Y39763D01*
Y45588D01*
X35125Y45750D01*
X38625D01*
X40600Y47725D01*
Y51250D01*
X30350Y44975D02*
Y48225D01*
X21850Y50125D02*
Y51250D01*
Y50125D02*
X26750Y45225D01*
Y39400D02*
Y45225D01*
X29900Y43775D02*
X31250D01*
X30775Y37850D02*
X30950Y38025D01*
Y38410D01*
X33275Y44650D02*
Y47000D01*
X36000Y49725D01*
X26750Y39400D02*
X27850Y38300D01*
X30550D01*
X33447Y38545D02*
X35442D01*
X36350Y39453D01*
Y44575D01*
X36650Y44875D01*
Y45250D01*
X29650Y36975D02*
X30250D01*
X30600Y37325D01*
X33799Y38349D02*
X35523D01*
X37237Y40062D01*
Y43937D01*
X38600Y45300D01*
X31525Y38175D02*
X32523D01*
X34125Y39500D02*
Y43439D01*
X33020Y44544D02*
X34125Y43439D01*
X32523Y38175D02*
X33925Y39577D01*
X33000Y51250D02*
X33020Y51230D01*
Y44544D02*
Y51230D01*
X33925Y39577D02*
Y43362D01*
X32824Y44463D02*
X33925Y43362D01*
X31250Y43775D02*
X32325Y44850D01*
Y47200D01*
X32824Y44463D02*
Y47376D01*
X32325Y47875D02*
X32824Y47376D01*
X29825Y45000D02*
Y48550D01*
X27700Y40625D02*
X28750Y39575D01*
D20*
X25756Y42019D02*
Y44994D01*
X35306Y42094D02*
Y45294D01*
X35300Y45300D02*
X35306Y45294D01*
X24600Y40275D02*
X25425Y39450D01*
X24600Y40275D02*
Y41425D01*
X25194Y42019D01*
X25756D01*
X35306Y40194D02*
Y42094D01*
Y40194D02*
X35925Y39575D01*
D21*
X30550Y35725D02*
D03*
X21850Y51250D02*
D03*
X26450D02*
D03*
X33000D02*
D03*
X37600D02*
D03*
D22*
X31550Y35725D02*
D03*
X21300Y38450D02*
D03*
X41275Y38600D02*
D03*
X22850Y51250D02*
D03*
X23850D02*
D03*
X24850D02*
D03*
X27450D02*
D03*
X28450D02*
D03*
X29450D02*
D03*
X34000D02*
D03*
X35000D02*
D03*
X36000D02*
D03*
X38600D02*
D03*
X39600D02*
D03*
X40600D02*
D03*
X41250Y43150D02*
D03*
Y45050D02*
D03*
X21250D02*
D03*
Y43150D02*
D03*
D23*
X21300Y39450D02*
D03*
X41275Y39600D02*
D03*
X41250Y42150D02*
D03*
Y46050D02*
D03*
X21250D02*
D03*
Y42150D02*
D03*
D24*
X31300Y37775D02*
D03*
X31525Y38175D02*
D03*
X31500Y48600D02*
D03*
X32375Y44275D02*
D03*
X29125Y48025D02*
D03*
X28075Y47775D02*
D03*
X31800Y43800D02*
D03*
X28375Y39275D02*
D03*
X33275Y44650D02*
D03*
X34000Y38800D02*
D03*
X30550Y38300D02*
D03*
X30350Y44975D02*
D03*
Y48225D02*
D03*
X29825Y45000D02*
D03*
X29925Y44350D02*
D03*
X29900Y43775D02*
D03*
X30775Y37850D02*
D03*
X36650Y45250D02*
D03*
X29650Y36975D02*
D03*
X38600Y45300D02*
D03*
X32325Y47200D02*
D03*
Y47875D02*
D03*
X29825Y48550D02*
D03*
X30100Y37400D02*
D03*
X28750Y39575D02*
D03*
D25*
X30541Y41959D02*
D03*
X31014D02*
D03*
X31486D02*
D03*
X31959D02*
D03*
X30541Y41486D02*
D03*
X31014D02*
D03*
X31486D02*
D03*
X31959D02*
D03*
X30541Y41014D02*
D03*
X31014D02*
D03*
X31486D02*
D03*
X31959D02*
D03*
X30541Y40541D02*
D03*
X31014D02*
D03*
X31486D02*
D03*
X31959D02*
D03*
D26*
X23725Y37075D02*
D03*
X39175Y34800D02*
D03*
X25750Y41300D02*
D03*
X36850Y41350D02*
D03*
X25425Y39450D02*
D03*
X35925Y39575D02*
D03*
D27*
X25756Y42019D02*
D03*
Y44994D02*
D03*
X35306Y42094D02*
D03*
X35300Y45300D02*
D03*
D28*
X31250Y41250D02*
D03*
M02*
