%FSLAX25Y25*%
%MOIN*%
G70*
G01*
G75*
%ADD10R,0.07874X0.15748*%
%ADD11R,0.05906X0.04921*%
%ADD12R,0.04921X0.05906*%
%ADD13R,0.19685X0.19685*%
%ADD14R,0.01181X0.06693*%
%ADD15R,0.06693X0.01181*%
%ADD16R,0.05118X0.13583*%
%ADD17R,0.13583X0.05118*%
%ADD18C,0.01181*%
%ADD19C,0.03000*%
%ADD20C,0.02000*%
%ADD21R,0.05906X0.05906*%
%ADD22C,0.05906*%
%ADD23R,0.05906X0.05906*%
%ADD24C,0.02362*%
%ADD25C,0.05000*%
%ADD26C,0.04000*%
%ADD27C,0.02598*%
%ADD28R,0.27000X0.27000*%
%ADD29C,0.04000*%
%ADD30C,0.07543*%
G04:AMPARAMS|DCode=31|XSize=95.433mil|YSize=95.433mil|CornerRadius=0mil|HoleSize=0mil|Usage=FLASHONLY|Rotation=0.000|XOffset=0mil|YOffset=0mil|HoleType=Round|Shape=Relief|Width=10mil|Gap=10mil|Entries=4|*
%AMTHD31*
7,0,0,0.09543,0.07543,0.01000,45*
%
%ADD31THD31*%
%ADD32C,0.05378*%
%ADD33C,0.06800*%
%ADD34C,0.06500*%
G04:AMPARAMS|DCode=35|XSize=88mil|YSize=88mil|CornerRadius=0mil|HoleSize=0mil|Usage=FLASHONLY|Rotation=0.000|XOffset=0mil|YOffset=0mil|HoleType=Round|Shape=Relief|Width=10mil|Gap=10mil|Entries=4|*
%AMTHD35*
7,0,0,0.08800,0.06800,0.01000,45*
%
%ADD35THD35*%
%ADD36C,0.05299*%
%ADD37C,0.00984*%
%ADD38C,0.00787*%
%ADD39C,0.01000*%
G36*
X369444Y328480D02*
X369750Y328429D01*
X370259Y328225D01*
X370412Y328072D01*
X370564Y327971D01*
X370615Y327920D01*
X370666Y327869D01*
X370870Y327614D01*
X370972Y327309D01*
X371175Y326647D01*
Y326341D01*
X371226Y326086D01*
Y325934D01*
Y325883D01*
Y325425D01*
X371125Y325017D01*
X371074Y324661D01*
X370972Y324355D01*
X370870Y324151D01*
X370768Y323999D01*
X370717Y323948D01*
X370666Y323897D01*
X370412Y323693D01*
X370157Y323540D01*
X369648Y323337D01*
X369444Y323286D01*
X369240Y323235D01*
X369088D01*
X368731Y323286D01*
X368426Y323337D01*
X367917Y323591D01*
X367764Y323693D01*
X367611Y323795D01*
X367560Y323846D01*
X367509Y323897D01*
X367356Y324151D01*
X367204Y324457D01*
X367051Y325119D01*
Y325425D01*
X367000Y325679D01*
Y325832D01*
Y325883D01*
Y326341D01*
X367102Y326799D01*
X367153Y327105D01*
X367255Y327410D01*
X367356Y327614D01*
X367407Y327767D01*
X367509Y327818D01*
Y327869D01*
X367764Y328072D01*
X368018Y328276D01*
X368528Y328429D01*
X368731Y328480D01*
X368935Y328531D01*
X369088D01*
X369444Y328480D01*
D02*
G37*
G36*
X405954Y320333D02*
X406310Y320180D01*
X406514Y320027D01*
X406616Y319976D01*
X405852Y319110D01*
X405597Y319212D01*
X405394Y319314D01*
X405190D01*
X404884Y319263D01*
X404681Y319161D01*
X404528Y319059D01*
X404477Y319009D01*
X404324Y318805D01*
X404273Y318550D01*
X404222Y318347D01*
Y318245D01*
Y315139D01*
X403102D01*
Y320333D01*
X404222D01*
Y319721D01*
X404426Y319925D01*
X404630Y320129D01*
X405037Y320282D01*
X405241Y320333D01*
X405394Y320383D01*
X405546D01*
X405954Y320333D01*
D02*
G37*
G36*
X389914Y315139D02*
X388845D01*
Y315648D01*
X388641Y315444D01*
X388386Y315342D01*
X387979Y315139D01*
X387673Y315088D01*
X387521D01*
X387215Y315139D01*
X386961Y315190D01*
X386502Y315444D01*
X386248Y315648D01*
X386146Y315699D01*
Y315750D01*
X386044Y316004D01*
X385942Y316259D01*
X385840Y316921D01*
X385789Y317226D01*
Y317481D01*
Y317685D01*
Y317736D01*
Y318245D01*
X385840Y318652D01*
X385891Y319009D01*
X385993Y319263D01*
X386044Y319467D01*
X386095Y319569D01*
X386146Y319671D01*
X386350Y319925D01*
X386553Y320078D01*
X387012Y320282D01*
X387215Y320333D01*
X387368Y320383D01*
X387521D01*
X387775Y320333D01*
X388030Y320282D01*
X388437Y320078D01*
X388743Y319823D01*
X388794Y319772D01*
X388845Y319721D01*
Y322369D01*
X389914D01*
Y315139D01*
D02*
G37*
G36*
X415018Y328429D02*
X415476Y328225D01*
X415781Y328021D01*
X415832Y327971D01*
X415883Y327920D01*
X416087Y327665D01*
X416240Y327410D01*
X416443Y326901D01*
Y326697D01*
X416494Y326494D01*
Y326392D01*
Y326341D01*
Y325475D01*
X413286D01*
X413337Y325068D01*
X413490Y324763D01*
X413694Y324508D01*
X413897Y324355D01*
X414101Y324253D01*
X414305Y324202D01*
X414508D01*
X414967Y324304D01*
X415323Y324457D01*
X415527Y324610D01*
X415629Y324712D01*
X416392Y324101D01*
X416087Y323795D01*
X415832Y323591D01*
X415476Y323439D01*
X415221Y323337D01*
X414967Y323286D01*
X414763Y323235D01*
X414559D01*
X414152Y323286D01*
X413796Y323337D01*
X413235Y323642D01*
X412828Y324050D01*
X412573Y324559D01*
X412370Y325068D01*
X412319Y325475D01*
X412268Y325781D01*
Y325832D01*
Y325883D01*
X412319Y326341D01*
X412370Y326799D01*
X412472Y327105D01*
X412573Y327410D01*
X412675Y327614D01*
X412777Y327767D01*
X412879Y327818D01*
Y327869D01*
X413133Y328072D01*
X413388Y328276D01*
X413897Y328429D01*
X414101Y328480D01*
X414254Y328531D01*
X414712D01*
X415018Y328429D01*
D02*
G37*
G36*
X396483Y328480D02*
X396788Y328429D01*
X397297Y328225D01*
X397450Y328072D01*
X397603Y327971D01*
X397654Y327920D01*
X397705Y327869D01*
X397908Y327614D01*
X398061Y327309D01*
X398265Y326647D01*
Y326341D01*
X398316Y326086D01*
Y325934D01*
Y325883D01*
Y325425D01*
X398214Y325017D01*
X398112Y324661D01*
X398010Y324355D01*
X397908Y324151D01*
X397807Y323999D01*
X397756Y323948D01*
X397705Y323897D01*
X397450Y323693D01*
X397196Y323540D01*
X396686Y323337D01*
X396483Y323286D01*
X396279Y323235D01*
X396126D01*
X395770Y323286D01*
X395464Y323337D01*
X395006Y323591D01*
X394701Y323795D01*
X394650Y323846D01*
X394599Y323897D01*
X394395Y324151D01*
X394242Y324457D01*
X394089Y325119D01*
X394039Y325425D01*
X393988Y325679D01*
Y325832D01*
Y325883D01*
X394039Y326341D01*
X394089Y326799D01*
X394191Y327105D01*
X394293Y327410D01*
X394395Y327614D01*
X394497Y327767D01*
X394599Y327818D01*
Y327869D01*
X394802Y328072D01*
X395057Y328276D01*
X395566Y328429D01*
X395770Y328480D01*
X395973Y328531D01*
X396126D01*
X396483Y328480D01*
D02*
G37*
G36*
X379679Y328429D02*
X380188Y328225D01*
X380494Y328021D01*
X380545Y327971D01*
X380596Y327920D01*
X380799Y327665D01*
X380952Y327410D01*
X381156Y326901D01*
Y326697D01*
X381207Y326494D01*
Y326392D01*
Y326341D01*
Y325475D01*
X377999D01*
X378050Y325068D01*
X378202Y324763D01*
X378406Y324508D01*
X378610Y324355D01*
X378813Y324253D01*
X379017Y324202D01*
X379221D01*
X379679Y324304D01*
X380035Y324457D01*
X380239Y324610D01*
X380341Y324712D01*
X381105Y324101D01*
X380799Y323795D01*
X380494Y323591D01*
X380188Y323439D01*
X379883Y323337D01*
X379628Y323286D01*
X379425Y323235D01*
X379221D01*
X378813Y323286D01*
X378457Y323337D01*
X377897Y323642D01*
X377489Y324050D01*
X377235Y324559D01*
X377031Y325068D01*
X376980Y325475D01*
X376929Y325781D01*
Y325832D01*
Y325883D01*
X376980Y326341D01*
X377031Y326799D01*
X377133Y327105D01*
X377235Y327410D01*
X377337Y327614D01*
X377439Y327767D01*
X377540Y327818D01*
Y327869D01*
X377795Y328072D01*
X378050Y328276D01*
X378559Y328429D01*
X378763Y328480D01*
X378915Y328531D01*
X379374D01*
X379679Y328429D01*
D02*
G37*
G36*
Y320333D02*
X380188Y320129D01*
X380596Y319823D01*
X380850Y319518D01*
X381003Y319212D01*
X381054Y318907D01*
X381105Y318703D01*
Y318652D01*
Y315139D01*
X380086D01*
Y315597D01*
X379934Y315444D01*
X379781Y315291D01*
X379323Y315139D01*
X379119D01*
X378966Y315088D01*
X378813D01*
X378253Y315139D01*
X377795Y315342D01*
X377540Y315495D01*
X377439Y315546D01*
X377184Y315902D01*
X377031Y316259D01*
X376980Y316564D01*
Y316615D01*
Y316666D01*
X377031Y317125D01*
X377184Y317430D01*
X377337Y317685D01*
X377388Y317736D01*
X377795Y317990D01*
X378202Y318143D01*
X378508Y318194D01*
X380086D01*
Y318703D01*
X380035Y318958D01*
X379934Y319110D01*
X379577Y319314D01*
X379170Y319416D01*
X379017D01*
X378559Y319365D01*
X378253Y319212D01*
X378101Y319059D01*
X378050Y319009D01*
X377235Y319620D01*
X377489Y319874D01*
X377744Y320078D01*
X378050Y320180D01*
X378304Y320282D01*
X378559Y320333D01*
X378763Y320383D01*
X378966D01*
X379679Y320333D01*
D02*
G37*
G36*
X409365Y320282D02*
X409875Y320078D01*
X410180Y319874D01*
X410231Y319823D01*
X410282Y319772D01*
X410486Y319518D01*
X410638Y319263D01*
X410842Y318754D01*
Y318550D01*
X410893Y318347D01*
Y318245D01*
Y318194D01*
Y317328D01*
X407685D01*
X407736Y316921D01*
X407889Y316615D01*
X408092Y316361D01*
X408296Y316208D01*
X408500Y316106D01*
X408704Y316055D01*
X408907D01*
X409365Y316157D01*
X409722Y316310D01*
X409976Y316463D01*
X410078Y316564D01*
X410791Y315953D01*
X410537Y315648D01*
X410231Y315444D01*
X409926Y315291D01*
X409620Y315190D01*
X409314Y315139D01*
X409111Y315088D01*
X408907D01*
X408500Y315139D01*
X408194Y315190D01*
X407634Y315495D01*
X407227Y315902D01*
X406972Y316412D01*
X406769Y316870D01*
X406718Y317277D01*
X406667Y317583D01*
Y317634D01*
Y317685D01*
X406718Y318194D01*
X406769Y318601D01*
X406870Y318958D01*
X406972Y319263D01*
X407074Y319467D01*
X407176Y319620D01*
X407278Y319671D01*
Y319721D01*
X407532Y319925D01*
X407787Y320129D01*
X408245Y320282D01*
X408449Y320333D01*
X408602Y320383D01*
X409060D01*
X409365Y320282D01*
D02*
G37*
G36*
X223234Y365457D02*
X223744Y365202D01*
X223794D01*
X223845Y365151D01*
X223998Y365049D01*
X224202Y364948D01*
X224660Y364693D01*
X225220Y364387D01*
X225271D01*
X225373Y364286D01*
X225526Y364184D01*
X225729Y364031D01*
X226290Y363624D01*
X226901Y363064D01*
X226951Y363013D01*
X227053Y362962D01*
X227206Y362809D01*
X227410Y362656D01*
X227817Y362351D01*
X228021Y362198D01*
X228224Y362147D01*
X228275D01*
X228326Y362096D01*
X228479Y362045D01*
X228683Y361994D01*
X228988Y361842D01*
X229345Y361689D01*
X229803Y361434D01*
X230312Y361179D01*
X230363Y361129D01*
X230567Y361078D01*
X230821Y360925D01*
X231127Y360721D01*
X231840Y360365D01*
X232145Y360161D01*
X232400Y359957D01*
X232451Y359907D01*
X232604Y359805D01*
X232807Y359601D01*
X233062Y359397D01*
X233571Y358939D01*
X233775Y358735D01*
X233877Y358583D01*
X233927Y358532D01*
X233978Y358379D01*
X234080Y358175D01*
Y357870D01*
Y357768D01*
Y357615D01*
X234131Y357361D01*
X234182Y357208D01*
X234233D01*
X234335Y357106D01*
X234589Y356953D01*
X234946Y356750D01*
X235048Y356699D01*
X235302Y356495D01*
X235761Y356189D01*
X236423Y355680D01*
X236473Y355629D01*
X236575Y355578D01*
X236728Y355426D01*
X236932Y355273D01*
X237390Y354916D01*
X237543Y354764D01*
X237696Y354611D01*
X237797Y354509D01*
X237950Y354407D01*
X238256Y354204D01*
X238307Y354153D01*
X238408Y354102D01*
X238561Y353949D01*
X238765Y353745D01*
X239070Y353236D01*
X239172Y352930D01*
X239223Y352574D01*
Y352523D01*
X239274Y352370D01*
X239427Y352167D01*
X239681Y352014D01*
X239783Y351963D01*
X240038Y351810D01*
X240191Y351658D01*
X240394Y351454D01*
X240649Y351199D01*
X240954Y350843D01*
X241005Y350792D01*
X241107Y350690D01*
X241260Y350486D01*
X241413Y350283D01*
X241820Y349824D01*
X242227Y349366D01*
X242278Y349315D01*
X242380Y349213D01*
X242584Y349010D01*
X242737Y348755D01*
X242940Y348449D01*
X243042Y348144D01*
X243144Y347737D01*
Y347380D01*
Y347329D01*
X243093Y347227D01*
X243042Y347024D01*
X242940Y346718D01*
X242737Y346362D01*
X242482Y346005D01*
X242126Y345547D01*
X241667Y345038D01*
X241005Y344325D01*
X240954Y343154D01*
Y343103D01*
Y342950D01*
Y342746D01*
X240903Y342441D01*
X240802Y341779D01*
X240598Y341066D01*
Y341015D01*
X240547Y340913D01*
X240496Y340761D01*
X240445Y340506D01*
X240293Y339997D01*
X240242Y339488D01*
Y339437D01*
Y339182D01*
Y338826D01*
X240140Y338316D01*
X240038Y337604D01*
X239885Y336789D01*
X239631Y335770D01*
X239274Y334599D01*
Y334548D01*
X239223Y334396D01*
X239121Y334141D01*
X238969Y333836D01*
X238612Y333123D01*
X238052Y332359D01*
X238001Y332308D01*
X237950Y332206D01*
X237797Y332053D01*
X237645Y331850D01*
X237390Y331442D01*
X237288Y331239D01*
X237237Y331137D01*
Y331086D01*
X237135Y330933D01*
X236983Y330678D01*
X236779Y330475D01*
X236575Y330220D01*
X235913Y329456D01*
X235761Y326809D01*
Y326758D01*
Y326707D01*
Y326554D01*
Y326350D01*
X235710Y325841D01*
Y325128D01*
Y324313D01*
X235659Y323397D01*
Y322378D01*
Y321360D01*
Y321309D01*
Y321156D01*
Y320953D01*
Y320698D01*
X235608Y320342D01*
Y319934D01*
X235557Y319120D01*
X235506Y318203D01*
X235404Y317388D01*
X235353Y316981D01*
X235302Y316675D01*
X235251Y316421D01*
X235201Y316217D01*
X235150Y316166D01*
X235099Y316064D01*
X234946Y316014D01*
X234793Y315912D01*
X234539Y315810D01*
X234182Y315759D01*
X233724Y315708D01*
X232298D01*
X231891Y315657D01*
X219161D01*
X218906Y315708D01*
X218601D01*
X217989Y315810D01*
X217735Y315861D01*
X217531Y315912D01*
X217480D01*
X217378Y315963D01*
X217124Y316115D01*
X216767Y316319D01*
X216615Y316472D01*
X216513Y316624D01*
X216462Y316726D01*
Y316828D01*
X216411Y317032D01*
X216360Y317286D01*
Y317592D01*
X216309Y317948D01*
Y318407D01*
Y318458D01*
Y318661D01*
Y318967D01*
X216360Y319374D01*
Y319782D01*
X216462Y320291D01*
X216615Y321360D01*
Y321411D01*
X216666Y321462D01*
X216717Y321767D01*
X216818Y322226D01*
X216920Y322735D01*
X217022Y323295D01*
X217124Y323855D01*
X217226Y324313D01*
Y324670D01*
Y324721D01*
Y324823D01*
Y325128D01*
X217277Y325535D01*
X217378Y325943D01*
Y325994D01*
X217429Y326045D01*
Y326198D01*
X217480Y326401D01*
X217531Y326656D01*
Y326961D01*
X217582Y327318D01*
X217633Y327776D01*
Y327827D01*
X217684Y327980D01*
Y328234D01*
X217735Y328540D01*
X217837Y329202D01*
X217989Y329864D01*
Y329915D01*
X218040Y329966D01*
X218091Y330169D01*
X218142Y330424D01*
Y330627D01*
Y330678D01*
X218091Y330780D01*
X217989Y331035D01*
X217786Y331340D01*
Y331391D01*
X217735Y331442D01*
X217582Y331697D01*
X217429Y331951D01*
X217378Y332155D01*
X217328Y332206D01*
X217277Y332359D01*
X217124Y332562D01*
X216869Y332970D01*
X216513Y333479D01*
X216309Y333836D01*
X216004Y334243D01*
X215698Y334701D01*
X215342Y335210D01*
X215291Y335261D01*
X215240Y335363D01*
X215087Y335516D01*
X214985Y335719D01*
X214680Y336178D01*
X214578Y336382D01*
X214527Y336534D01*
Y336585D01*
X214425Y336789D01*
X214272Y336993D01*
X213916Y337196D01*
X213814Y337247D01*
X213610Y337400D01*
X213356Y337654D01*
X213152Y337960D01*
X213101Y338062D01*
X212999Y338265D01*
X212796Y338571D01*
X212541Y338928D01*
X212490Y339029D01*
X212286Y339284D01*
X212032Y339742D01*
X211675Y340353D01*
Y340404D01*
X211625Y340506D01*
X211421Y340862D01*
X211115Y341270D01*
X211014Y341423D01*
X210861Y341524D01*
X210810Y341575D01*
X210708Y341677D01*
X210504Y341881D01*
X210351Y342135D01*
X210301Y342237D01*
X210250Y342390D01*
X210097Y342645D01*
X209842Y342848D01*
X209791Y342899D01*
X209690Y343001D01*
X209588Y343154D01*
X209384Y343357D01*
X209180Y343612D01*
X208926Y343969D01*
X208569Y344427D01*
X208518Y344478D01*
X208417Y344631D01*
X208264Y344885D01*
X208111Y345191D01*
X207755Y345802D01*
X207653Y346056D01*
X207602Y346260D01*
Y346311D01*
Y346515D01*
Y346820D01*
X207755Y347177D01*
X207805Y347278D01*
X207958Y347482D01*
X208111Y347838D01*
X208315Y348195D01*
Y348246D01*
X208366Y348297D01*
X208518Y348500D01*
X208671Y348806D01*
X208875Y349061D01*
X208926Y349112D01*
X209028Y349315D01*
X209180Y349570D01*
X209282Y349977D01*
Y350028D01*
X209333Y350079D01*
X209435Y350334D01*
X209588Y350690D01*
X209842Y351097D01*
Y351148D01*
X209893Y351199D01*
X210097Y351505D01*
X210453Y352014D01*
X210963Y352676D01*
X211014Y352727D01*
X211115Y352880D01*
X211319Y353185D01*
X211523Y353491D01*
X211828Y353898D01*
X212083Y354356D01*
X212694Y355273D01*
Y355324D01*
X212745Y355426D01*
X212847Y355578D01*
X212999Y355833D01*
X213152Y356087D01*
X213407Y356444D01*
X213661Y356800D01*
X213967Y357208D01*
X214018Y357259D01*
X214120Y357411D01*
X214323Y357564D01*
X214527Y357819D01*
X214985Y358328D01*
X215189Y358532D01*
X215393Y358684D01*
X215494Y358735D01*
X215698Y358888D01*
X216004Y358990D01*
X216360Y359041D01*
X216462D01*
X216666Y359143D01*
X216971Y359346D01*
X217124Y359499D01*
X217328Y359703D01*
X217378Y359754D01*
X217429Y359805D01*
X217531Y359957D01*
X217684Y360161D01*
X218040Y360670D01*
X218397Y361281D01*
Y361332D01*
X218448Y361383D01*
X218550Y361536D01*
X218652Y361740D01*
X218957Y362249D01*
X219313Y362809D01*
X219721Y363471D01*
X220179Y364082D01*
X220688Y364693D01*
X221198Y365151D01*
X221248Y365202D01*
X221401Y365253D01*
X221605Y365406D01*
X221961Y365508D01*
X222318Y365559D01*
X222725D01*
X223234Y365457D01*
D02*
G37*
G36*
X385077Y320333D02*
X385433Y320180D01*
X385637Y320027D01*
X385739Y319976D01*
X384975Y319110D01*
X384720Y319212D01*
X384517Y319314D01*
X384313D01*
X384007Y319263D01*
X383804Y319161D01*
X383651Y319059D01*
X383600Y319009D01*
X383447Y318805D01*
X383345Y318550D01*
X383294Y318347D01*
Y318245D01*
Y315139D01*
X382276D01*
Y320333D01*
X383294D01*
Y319721D01*
X383498Y319925D01*
X383702Y320129D01*
X384160Y320282D01*
X384364Y320333D01*
X384517Y320383D01*
X384669D01*
X385077Y320333D01*
D02*
G37*
G36*
X396126Y315139D02*
X395159D01*
X394089Y318754D01*
X393020Y315139D01*
X392104D01*
X390474Y320333D01*
X391543D01*
X392562Y316666D01*
X393733Y320333D01*
X394497D01*
X395668Y316666D01*
X396686Y320333D01*
X397756D01*
X396126Y315139D01*
D02*
G37*
G36*
X400556Y320333D02*
X401065Y320129D01*
X401473Y319823D01*
X401727Y319518D01*
X401880Y319212D01*
X401931Y318907D01*
X401982Y318703D01*
Y318652D01*
Y315139D01*
X400964D01*
Y315597D01*
X400913D01*
X400811Y315444D01*
X400607Y315291D01*
X400200Y315139D01*
X399996D01*
X399843Y315088D01*
X399691D01*
X399131Y315139D01*
X398672Y315342D01*
X398418Y315495D01*
X398316Y315546D01*
X398061Y315902D01*
X397908Y316259D01*
X397857Y316564D01*
Y316615D01*
Y316666D01*
X397908Y317125D01*
X398061Y317430D01*
X398214Y317685D01*
X398265Y317736D01*
X398672Y317990D01*
X399080Y318143D01*
X399385Y318194D01*
X400964D01*
Y318703D01*
X400913Y318958D01*
X400811Y319110D01*
X400454Y319314D01*
X400047Y319416D01*
X399640D01*
X399436Y319365D01*
X399131Y319212D01*
X398978Y319059D01*
X398927Y319009D01*
X398112Y319620D01*
X398367Y319874D01*
X398621Y320078D01*
X398927Y320180D01*
X399181Y320282D01*
X399436Y320333D01*
X399640Y320383D01*
X399843D01*
X400556Y320333D01*
D02*
G37*
G36*
X391696Y328480D02*
X392104Y328429D01*
X392460Y328327D01*
X392715Y328174D01*
X392969Y328021D01*
X393122Y327920D01*
X393224Y327869D01*
X393275Y327818D01*
X392664Y327054D01*
X392155Y327309D01*
X391696Y327461D01*
X391340Y327512D01*
X390932D01*
X390729Y327410D01*
X390576Y327359D01*
X390474Y327258D01*
X390372Y327054D01*
Y327003D01*
Y326952D01*
X390423Y326799D01*
X390474Y326697D01*
X390729Y326545D01*
X390983Y326443D01*
X391085D01*
X391951Y326392D01*
X392460Y326290D01*
X392816Y326137D01*
X393122Y325883D01*
X393275Y325577D01*
X393377Y325323D01*
X393478Y325068D01*
Y324915D01*
Y324864D01*
X393427Y324610D01*
X393377Y324355D01*
X393173Y323948D01*
X392918Y323744D01*
X392867Y323642D01*
X392816D01*
X392307Y323388D01*
X391849Y323286D01*
X391594Y323235D01*
X391289D01*
X390831Y323286D01*
X390372Y323388D01*
X390016Y323540D01*
X389659Y323693D01*
X389405Y323846D01*
X389201Y323999D01*
X389048Y324101D01*
X388997Y324151D01*
X389761Y324915D01*
X390016Y324661D01*
X390270Y324508D01*
X390780Y324304D01*
X390983Y324253D01*
X391187Y324202D01*
X391340D01*
X391696Y324253D01*
X391951Y324304D01*
X392155Y324406D01*
X392256Y324559D01*
X392409Y324813D01*
Y324864D01*
Y324915D01*
X392358Y325068D01*
X392307Y325170D01*
X392104Y325323D01*
X391849Y325374D01*
X391747D01*
X390831Y325475D01*
X390372Y325577D01*
X390067Y325679D01*
X389812Y325832D01*
X389761Y325883D01*
X389507Y326239D01*
X389405Y326596D01*
X389354Y326850D01*
Y326901D01*
Y326952D01*
X389405Y327207D01*
X389456Y327410D01*
X389659Y327767D01*
X389812Y328021D01*
X389914Y328072D01*
X390372Y328327D01*
X390780Y328480D01*
X391136Y328531D01*
X391238D01*
X391696Y328480D01*
D02*
G37*
G36*
X410588D02*
X410893Y328378D01*
X411453Y328072D01*
X411657Y327920D01*
X411861Y327767D01*
X411911Y327665D01*
X411962Y327614D01*
X411249Y326952D01*
X410893Y327258D01*
X410537Y327410D01*
X410282Y327461D01*
X410180D01*
X409722Y327410D01*
X409365Y327207D01*
X409162Y326952D01*
X408958Y326647D01*
X408856Y326341D01*
X408805Y326086D01*
Y325883D01*
Y325832D01*
X408856Y325323D01*
X409009Y324915D01*
X409264Y324661D01*
X409518Y324457D01*
X409722Y324355D01*
X409976Y324304D01*
X410129Y324253D01*
X410180D01*
X410384Y324304D01*
X410588Y324355D01*
X410944Y324559D01*
X411148Y324763D01*
X411249Y324864D01*
X411962Y324151D01*
X411708Y323846D01*
X411402Y323642D01*
X411097Y323439D01*
X410791Y323337D01*
X410537Y323286D01*
X410384Y323235D01*
X410180D01*
X409824Y323286D01*
X409467Y323337D01*
X408958Y323591D01*
X408754Y323693D01*
X408602Y323795D01*
X408500Y323846D01*
X408449Y323897D01*
X408245Y324151D01*
X408092Y324508D01*
X407889Y325119D01*
X407838Y325425D01*
X407787Y325679D01*
Y325832D01*
Y325883D01*
X407838Y326341D01*
X407889Y326748D01*
X407991Y327105D01*
X408143Y327359D01*
X408245Y327614D01*
X408347Y327767D01*
X408398Y327818D01*
X408449Y327869D01*
X408754Y328072D01*
X409009Y328276D01*
X409569Y328429D01*
X409824Y328480D01*
X410027Y328531D01*
X410180D01*
X410588Y328480D01*
D02*
G37*
G36*
X407227D02*
X407583Y328327D01*
X407787Y328174D01*
X407889Y328123D01*
X407176Y327258D01*
X406921Y327359D01*
X406667Y327461D01*
X406463D01*
X406157Y327410D01*
X405954Y327359D01*
X405801Y327258D01*
X405750Y327207D01*
X405597Y326952D01*
X405546Y326697D01*
X405496Y326494D01*
Y326443D01*
Y326392D01*
Y323286D01*
X404426D01*
Y328429D01*
X405496D01*
Y327920D01*
X405699Y328123D01*
X405903Y328276D01*
X406310Y328480D01*
X406514D01*
X406667Y328531D01*
X406819D01*
X407227Y328480D01*
D02*
G37*
G36*
X374791D02*
X375045Y328429D01*
X375504Y328225D01*
X375758Y327971D01*
X375860Y327920D01*
Y327869D01*
X375962Y327614D01*
X376064Y327359D01*
X376166Y326697D01*
X376217Y326392D01*
Y326137D01*
Y325934D01*
Y325883D01*
Y325374D01*
X376166Y324915D01*
X376115Y324610D01*
X376064Y324355D01*
X375962Y324151D01*
X375911Y324050D01*
X375860Y323948D01*
X375656Y323693D01*
X375453Y323540D01*
X374994Y323337D01*
X374791Y323286D01*
X374638Y323235D01*
X374485D01*
X374231Y323286D01*
X373976Y323337D01*
X373569Y323591D01*
X373263Y323795D01*
X373212Y323846D01*
X373161Y323897D01*
Y319721D01*
X373365Y319925D01*
X373569Y320129D01*
X373976Y320282D01*
X374180Y320333D01*
X374332Y320383D01*
X374485D01*
X374994Y320282D01*
X375351Y320129D01*
X375606Y319976D01*
X375707Y319874D01*
X376013Y319467D01*
X376166Y319059D01*
X376217Y318856D01*
Y318703D01*
Y318601D01*
Y318550D01*
Y315139D01*
X375198D01*
Y318245D01*
X375147Y318550D01*
X375045Y318805D01*
X374943Y318958D01*
X374893Y319009D01*
X374638Y319212D01*
X374383Y319263D01*
X374231Y319314D01*
X374129D01*
X373823Y319263D01*
X373620Y319161D01*
X373467Y319059D01*
X373416Y319009D01*
X373263Y318754D01*
X373212Y318499D01*
X373161Y318347D01*
Y318245D01*
Y315139D01*
X372092D01*
Y328429D01*
X373161D01*
Y327920D01*
X373365Y328123D01*
X373569Y328276D01*
X374027Y328480D01*
X374332Y328531D01*
X374485D01*
X374791Y328480D01*
D02*
G37*
G36*
X384924Y328429D02*
X385280Y328276D01*
X385535Y328123D01*
X385637Y328021D01*
X385840Y327818D01*
X385942Y327614D01*
X386146Y327207D01*
X386197Y326901D01*
Y326799D01*
Y326748D01*
Y323286D01*
X385178D01*
Y326392D01*
X385127Y326748D01*
X385026Y326952D01*
X384924Y327105D01*
X384873Y327156D01*
X384669Y327359D01*
X384415Y327410D01*
X384262Y327461D01*
X384160D01*
X383855Y327410D01*
X383600Y327309D01*
X383447Y327207D01*
X383396Y327156D01*
X383243Y326952D01*
X383193Y326697D01*
X383142Y326494D01*
Y326392D01*
Y323286D01*
X382072D01*
Y328429D01*
X383142D01*
Y327920D01*
X383345Y328123D01*
X383549Y328276D01*
X384007Y328480D01*
X384313Y328531D01*
X384466D01*
X384924Y328429D01*
D02*
G37*
G36*
X403306Y323286D02*
X402288D01*
Y323897D01*
X402237D01*
X402033Y323693D01*
X401829Y323540D01*
X401371Y323337D01*
X401065Y323235D01*
X400913D01*
X400403Y323286D01*
X399996Y323489D01*
X399742Y323642D01*
X399691Y323693D01*
X399640D01*
X399334Y324101D01*
X399181Y324559D01*
Y324763D01*
X399131Y324915D01*
Y325017D01*
Y325068D01*
Y328429D01*
X400200D01*
Y325374D01*
X400251Y325068D01*
X400353Y324813D01*
X400403Y324610D01*
X400454Y324559D01*
X400709Y324406D01*
X400964Y324304D01*
X401167Y324253D01*
X401218D01*
X401524Y324304D01*
X401778Y324406D01*
X401931Y324508D01*
X401982Y324559D01*
X402186Y324813D01*
X402237Y325119D01*
X402288Y325323D01*
Y325374D01*
Y328429D01*
X403306D01*
Y323286D01*
D02*
G37*
G36*
X394293Y367128D02*
X394395Y367077D01*
X394446Y366975D01*
Y366924D01*
X395362Y362036D01*
X395413Y361934D01*
X395464Y361832D01*
X395566Y361781D01*
X398876Y360457D01*
X398978Y360406D01*
X399080D01*
X399181Y360457D01*
X403306Y363258D01*
X403459Y363309D01*
X403561D01*
X403662Y363258D01*
X407074Y359795D01*
X407125Y359694D01*
Y359592D01*
X407074Y359541D01*
Y359490D01*
X404375Y355467D01*
X404324Y355365D01*
Y355213D01*
Y355111D01*
Y355060D01*
X405750Y351699D01*
X405852Y351597D01*
X405954Y351546D01*
X406005Y351496D01*
X406056D01*
X410791Y350579D01*
X410893Y350528D01*
X410995Y350477D01*
Y350426D01*
Y350375D01*
Y345487D01*
X410944Y345334D01*
X410893Y345232D01*
X410842Y345181D01*
X410791D01*
X406208Y344316D01*
X406056Y344265D01*
X405954Y344214D01*
X405903Y344163D01*
Y344112D01*
X404477Y340548D01*
X404426Y340395D01*
Y340242D01*
X404477Y340191D01*
Y340140D01*
X407074Y336321D01*
X407125Y336169D01*
Y336118D01*
X407074Y336016D01*
X403662Y332553D01*
X403561Y332502D01*
X403408Y332451D01*
X403357Y332502D01*
X403306D01*
X399589Y335099D01*
X399436Y335150D01*
X399334D01*
X399232Y335099D01*
X399181D01*
X397552Y334234D01*
X397348D01*
X397297Y334285D01*
X397247Y334335D01*
X393886Y342584D01*
X393835Y342737D01*
X393886Y342839D01*
X393937Y342890D01*
X394395Y343145D01*
X394599Y343247D01*
X394650Y343297D01*
X395057Y343603D01*
X395464Y343959D01*
X396075Y344723D01*
X396483Y345487D01*
X396788Y346200D01*
X396992Y346862D01*
X397043Y347371D01*
X397094Y347575D01*
Y347727D01*
Y347829D01*
Y347880D01*
X397043Y348695D01*
X396839Y349408D01*
X396585Y350019D01*
X396330Y350579D01*
X396024Y351037D01*
X395770Y351394D01*
X395566Y351597D01*
X395515Y351648D01*
X394904Y352208D01*
X394293Y352616D01*
X393631Y352870D01*
X393071Y353074D01*
X392562Y353176D01*
X392104Y353278D01*
X391747D01*
X390932Y353227D01*
X390219Y353023D01*
X389558Y352768D01*
X388997Y352463D01*
X388539Y352157D01*
X388234Y351903D01*
X387979Y351699D01*
X387928Y351648D01*
X387419Y351037D01*
X387012Y350375D01*
X386757Y349764D01*
X386553Y349153D01*
X386451Y348644D01*
X386401Y348237D01*
X386350Y347982D01*
Y347931D01*
Y347880D01*
X386401Y347320D01*
X386451Y346862D01*
X386757Y345945D01*
X387164Y345130D01*
X387623Y344469D01*
X388081Y343959D01*
X388437Y343603D01*
X388743Y343399D01*
X388794Y343297D01*
X388845D01*
X389048Y343196D01*
X389099Y343145D01*
X389558Y342890D01*
X389609Y342788D01*
X389659Y342686D01*
X389609Y342635D01*
Y342584D01*
X386197Y334335D01*
X386095Y334234D01*
X385942D01*
X384262Y335099D01*
X384160Y335150D01*
X384007D01*
X383956Y335099D01*
X383905D01*
X380188Y332502D01*
X380035Y332451D01*
X379934Y332502D01*
X379883Y332553D01*
X379832D01*
X376369Y336016D01*
X376318Y336118D01*
Y336220D01*
X376369Y336270D01*
Y336321D01*
X379017Y340140D01*
X379068Y340293D01*
Y340395D01*
X379017Y340497D01*
Y340548D01*
X377540Y344112D01*
X377489Y344214D01*
X377388Y344265D01*
X377337Y344316D01*
X377286D01*
X372652Y345181D01*
X372550Y345232D01*
X372499Y345334D01*
X372448Y345436D01*
Y345487D01*
Y350375D01*
X372499Y350477D01*
X372550Y350528D01*
X372601Y350579D01*
X372652D01*
X377388Y351496D01*
X377540Y351546D01*
X377642Y351597D01*
X377744Y351648D01*
Y351699D01*
X379170Y355060D01*
Y355213D01*
Y355365D01*
X379119Y355416D01*
Y355467D01*
X376369Y359490D01*
X376318Y359592D01*
Y359694D01*
X376369Y359795D01*
X379832Y363258D01*
X379934Y363309D01*
X380086D01*
X380137Y363258D01*
X380188D01*
X384262Y360457D01*
X384415Y360406D01*
X384517D01*
X384618Y360457D01*
X384669D01*
X387928Y361781D01*
X388030Y361832D01*
X388081Y361934D01*
X388132Y361985D01*
Y362036D01*
X389048Y366924D01*
X389099Y367077D01*
X389201Y367128D01*
X389252Y367179D01*
X394140D01*
X394293Y367128D01*
D02*
G37*
%LPC*%
G36*
X233469Y356444D02*
X233316D01*
X233215Y356342D01*
X233113Y356240D01*
X233011Y356138D01*
X232909Y355935D01*
X232756Y355680D01*
Y355629D01*
X232705Y355527D01*
X232604Y355375D01*
X232502Y355171D01*
X232298Y354865D01*
X232094Y354560D01*
X231585Y353745D01*
X231534Y353694D01*
X231432Y353541D01*
X231280Y353338D01*
X231127Y353032D01*
X230669Y352370D01*
X230261Y351658D01*
Y351607D01*
X230159Y351505D01*
X230058Y351352D01*
X229956Y351148D01*
X229650Y350639D01*
X229294Y350130D01*
Y350079D01*
X229243Y350028D01*
X229090Y349773D01*
X228937Y349519D01*
X228886Y349417D01*
Y349366D01*
X228785Y349213D01*
X228734Y349112D01*
X228632Y348959D01*
X228428Y348704D01*
X228224Y348399D01*
X228173Y348348D01*
X228123Y348246D01*
X227970Y348093D01*
X227817Y347838D01*
X227461Y347329D01*
X227053Y346667D01*
X227002Y346566D01*
X226799Y346362D01*
X226646Y346056D01*
X226544Y345853D01*
Y345751D01*
X226595Y345649D01*
X226697Y345496D01*
X226748Y345445D01*
X226850Y345394D01*
X227002Y345292D01*
X227155Y345191D01*
X227410Y345038D01*
X227766Y344834D01*
X228173Y344631D01*
X228224D01*
X228377Y344529D01*
X228581Y344427D01*
X228836Y344325D01*
X229294Y344121D01*
X229497Y344070D01*
X229599Y344020D01*
X229650D01*
X229803Y343969D01*
X230058Y343867D01*
X230414Y343612D01*
X230465D01*
X230516Y343561D01*
X230719Y343459D01*
X230974Y343307D01*
X231127Y343256D01*
X231178D01*
X231331Y343357D01*
X231585Y343561D01*
X231789Y343714D01*
X232043Y343918D01*
X232094Y343969D01*
X232145Y344020D01*
X232451Y344325D01*
X232858Y344783D01*
X233316Y345292D01*
X233367Y345394D01*
X233571Y345598D01*
X233826Y346005D01*
X234233Y346464D01*
X234691Y347075D01*
X235201Y347788D01*
X235811Y348500D01*
X236473Y349315D01*
X236524Y349366D01*
X236575Y349468D01*
X236677Y349621D01*
X236830Y349824D01*
X236983Y350079D01*
X237186Y350435D01*
X237441Y350843D01*
X237645Y351250D01*
X237696Y351301D01*
X237747Y351454D01*
X237848Y351658D01*
X237950Y351912D01*
X238205Y352472D01*
X238256Y352676D01*
Y352829D01*
X238205Y352880D01*
X238103Y353032D01*
X237848Y353287D01*
X237645Y353440D01*
X237390Y353643D01*
X237339Y353694D01*
X237288Y353745D01*
X236983Y354000D01*
X236524Y354407D01*
X236066Y354865D01*
X235964Y354967D01*
X235659Y355171D01*
X235201Y355476D01*
X234539Y355884D01*
X234488Y355935D01*
X234386Y355986D01*
X234029Y356189D01*
X233673Y356342D01*
X233469Y356444D01*
D02*
G37*
G36*
X239070Y351301D02*
X238867Y351250D01*
X238663Y351097D01*
X238459Y350894D01*
Y350843D01*
X238357Y350741D01*
X238256Y350537D01*
X238052Y350283D01*
X237747Y349875D01*
X237390Y349417D01*
X236881Y348857D01*
X236270Y348144D01*
X236219Y348093D01*
X236117Y347991D01*
X235913Y347737D01*
X235659Y347431D01*
X235302Y347024D01*
X234895Y346566D01*
X234437Y345954D01*
X233927Y345292D01*
X233877Y345242D01*
X233724Y345038D01*
X233520Y344783D01*
X233265Y344478D01*
X232705Y343816D01*
X232451Y343510D01*
X232298Y343307D01*
X232247Y343256D01*
X232145Y343052D01*
X231993Y342848D01*
X231942Y342696D01*
Y342645D01*
X231993Y342594D01*
X232094Y342492D01*
X232247Y342288D01*
X232451Y342085D01*
X232705Y341779D01*
X233113Y341372D01*
X233164Y341321D01*
X233316Y341168D01*
X233520Y341015D01*
X233724Y340811D01*
X233978Y340557D01*
X234233Y340404D01*
X234488Y340251D01*
X234640Y340200D01*
X234742D01*
X234844Y340251D01*
X234997Y340353D01*
X235201Y340455D01*
X235506Y340608D01*
X235862Y340862D01*
X236321Y341219D01*
X236372Y341270D01*
X236524Y341372D01*
X236728Y341575D01*
X237034Y341830D01*
X237441Y342186D01*
X237950Y342645D01*
X238510Y343154D01*
X239121Y343765D01*
X239223Y343867D01*
X239427Y344070D01*
X239732Y344376D01*
X240089Y344732D01*
X240954Y345649D01*
X241362Y346056D01*
X241667Y346464D01*
X241718Y346515D01*
X241769Y346566D01*
X241973Y346871D01*
X242126Y347278D01*
X242227Y347431D01*
Y347584D01*
Y347635D01*
X242126Y347889D01*
X242024Y348042D01*
X241871Y348297D01*
X241667Y348602D01*
X241413Y348959D01*
X241362Y349010D01*
X241260Y349162D01*
X241107Y349366D01*
X240903Y349621D01*
X240343Y350283D01*
X239631Y351046D01*
X239580Y351097D01*
X239529Y351148D01*
X239274Y351250D01*
X239070Y351301D01*
D02*
G37*
G36*
X216513Y358073D02*
X216360D01*
X216207Y358022D01*
X216004Y357921D01*
X215749Y357768D01*
X215443Y357564D01*
X215138Y357259D01*
X214832Y356851D01*
Y356800D01*
X214731Y356750D01*
X214527Y356393D01*
X214272Y355986D01*
X213967Y355578D01*
X213916Y355476D01*
X213763Y355273D01*
X213560Y354967D01*
X213356Y354611D01*
X213305Y354560D01*
X213203Y354305D01*
X212948Y354000D01*
X212694Y353541D01*
X212337Y353032D01*
X211981Y352472D01*
X211064Y351301D01*
X211014Y351250D01*
X210912Y351097D01*
X210708Y350843D01*
X210555Y350537D01*
X210351Y350232D01*
X210199Y349926D01*
X210148Y349621D01*
Y349417D01*
Y349366D01*
Y349264D01*
X210046Y349112D01*
X209842Y348857D01*
X209791Y348806D01*
X209639Y348602D01*
X209435Y348297D01*
X209180Y347889D01*
X209129Y347788D01*
X208977Y347533D01*
X208824Y347227D01*
X208620Y346871D01*
X208569Y346820D01*
X208518Y346667D01*
X208468Y346464D01*
Y346260D01*
X208518Y346158D01*
X208722Y345853D01*
X208824Y345649D01*
X209028Y345394D01*
X209282Y345038D01*
X209537Y344681D01*
X209588Y344631D01*
X209690Y344529D01*
X209995Y344172D01*
X210351Y343765D01*
X210504Y343663D01*
X210606Y343561D01*
X210657Y343510D01*
X210810Y343408D01*
X210963Y343205D01*
X211064Y342899D01*
Y342848D01*
X211166Y342645D01*
X211319Y342390D01*
X211523Y342186D01*
X211574Y342135D01*
X211777Y341983D01*
X211930Y341830D01*
X212083Y341626D01*
X212236Y341372D01*
X212388Y341066D01*
Y341015D01*
X212490Y340913D01*
X212592Y340710D01*
X212694Y340506D01*
X213050Y339844D01*
X213509Y339131D01*
Y339080D01*
X213560Y339029D01*
X213763Y338775D01*
X213967Y338469D01*
X214171Y338265D01*
X214221Y338215D01*
X214374Y338164D01*
X214578Y338011D01*
X214832Y337909D01*
X214883D01*
X215036Y337858D01*
X215189Y337807D01*
X215291Y337705D01*
X215342Y337654D01*
Y337604D01*
Y337451D01*
Y337400D01*
X215393Y337196D01*
X215443Y337043D01*
X215494Y336840D01*
X215596Y336585D01*
X215749Y336229D01*
Y336178D01*
X215851Y336076D01*
X216004Y335770D01*
X216258Y335414D01*
X216360Y335261D01*
X216462Y335159D01*
X216513D01*
Y335108D01*
X216615Y335007D01*
X216717Y334854D01*
X216869Y334650D01*
X217022Y334345D01*
X217277Y333988D01*
X217328Y333937D01*
X217378Y333836D01*
X217531Y333632D01*
X217684Y333377D01*
X217989Y332868D01*
X218142Y332613D01*
X218295Y332410D01*
X218346Y332359D01*
X218397Y332206D01*
X218499Y332053D01*
X218601Y331799D01*
X218855Y331340D01*
X218906Y331086D01*
X218957Y330933D01*
Y330882D01*
Y330780D01*
Y330627D01*
Y330373D01*
X218906Y330118D01*
X218855Y329711D01*
X218804Y329253D01*
Y329202D01*
X218753Y328947D01*
X218702Y328642D01*
X218652Y328285D01*
X218550Y327420D01*
X218448Y326961D01*
X218397Y326605D01*
Y326554D01*
Y326452D01*
X218346Y326248D01*
X218295Y326045D01*
X218244Y325739D01*
X218193Y325383D01*
X218091Y324568D01*
Y324466D01*
X218040Y324262D01*
X217989Y323906D01*
X217939Y323448D01*
X217837Y322888D01*
X217735Y322277D01*
X217633Y321564D01*
X217480Y320851D01*
Y320800D01*
X217429Y320647D01*
Y320444D01*
X217378Y320138D01*
X217328Y319782D01*
X217277Y319374D01*
Y318458D01*
X217328Y317032D01*
X217786Y316828D01*
X217888D01*
X217989Y316777D01*
X218142D01*
X218397Y316726D01*
X219059D01*
X219517Y316675D01*
X220077D01*
X220790Y316624D01*
X221605D01*
X222521Y316574D01*
X230210D01*
X231687Y316624D01*
X233011D01*
X233520Y316675D01*
X233927D01*
X234233Y316726D01*
X234335D01*
Y316777D01*
X234386Y316879D01*
Y317032D01*
X234437Y317236D01*
X234488Y317439D01*
Y317796D01*
X234539Y318152D01*
X234589Y318661D01*
Y319221D01*
X234640Y319934D01*
X234691Y320749D01*
Y321666D01*
X234742Y322735D01*
Y323906D01*
Y323957D01*
Y324161D01*
Y324415D01*
Y324772D01*
Y325179D01*
Y325637D01*
X234793Y326605D01*
Y327623D01*
Y328132D01*
X234844Y328540D01*
Y328947D01*
Y329253D01*
X234895Y329456D01*
Y329558D01*
X234946Y329609D01*
X235048Y329813D01*
X235251Y330169D01*
X235455Y330373D01*
X235659Y330627D01*
X235710Y330678D01*
X235761Y330729D01*
X236015Y331035D01*
X236270Y331391D01*
X236372Y331544D01*
X236423Y331697D01*
X236473Y331748D01*
X236575Y332002D01*
X236830Y332359D01*
X236983Y332562D01*
X237237Y332868D01*
X237288Y332919D01*
X237339Y333021D01*
X237492Y333224D01*
X237645Y333479D01*
X237848Y333785D01*
X238052Y334141D01*
X238357Y334956D01*
Y335007D01*
X238408Y335108D01*
X238459Y335312D01*
X238510Y335516D01*
X238714Y336127D01*
X238918Y336891D01*
X239070Y337654D01*
X239223Y338418D01*
X239274Y339131D01*
Y339386D01*
Y339640D01*
Y339742D01*
Y339997D01*
X239376Y340455D01*
X239580Y341066D01*
X239631Y341168D01*
X239732Y341423D01*
X239834Y341779D01*
X239936Y342186D01*
Y342237D01*
X239987Y342288D01*
X240038Y342543D01*
X240089Y342899D01*
Y343205D01*
Y343256D01*
Y343408D01*
X240038Y343561D01*
X239987Y343663D01*
X239936D01*
X239783Y343561D01*
X239631Y343459D01*
X239427Y343357D01*
X239172Y343154D01*
X238867Y342899D01*
X238816Y342848D01*
X238714Y342797D01*
X238357Y342492D01*
X237950Y342135D01*
X237797Y341983D01*
X237696Y341830D01*
X237645Y341779D01*
X237594Y341728D01*
X237492Y341677D01*
X237339Y341524D01*
X237135Y341372D01*
X236830Y341117D01*
X236473Y340811D01*
X236423Y340761D01*
X236321Y340659D01*
X236117Y340506D01*
X235862Y340302D01*
X235404Y339895D01*
X235251Y339742D01*
X235099Y339589D01*
X235048Y339539D01*
X234997Y339488D01*
X234844Y339437D01*
X234691D01*
X234589Y339539D01*
X234386Y339691D01*
X234080Y339997D01*
X234029Y340048D01*
X233978Y340099D01*
X233673Y340353D01*
X233316Y340710D01*
X232960Y341066D01*
X232909Y341117D01*
X232655Y341321D01*
X232349Y341626D01*
X231942Y341983D01*
X231432Y342339D01*
X230923Y342696D01*
X230363Y343001D01*
X229854Y343205D01*
X229803D01*
X229701Y343256D01*
X229548Y343307D01*
X229294Y343357D01*
X228734Y343510D01*
X228072Y343714D01*
X228021D01*
X227868Y343765D01*
X227664Y343816D01*
X227359Y343918D01*
X226951Y343969D01*
X226493Y344070D01*
X225984Y344172D01*
X225373Y344274D01*
X225322D01*
X225118Y344325D01*
X224813Y344376D01*
X224507Y344427D01*
X224202Y344478D01*
X223896Y344529D01*
X223540D01*
Y344478D01*
Y344325D01*
X223591Y344172D01*
X223693Y343969D01*
X223845Y343714D01*
X224100Y343357D01*
X224151Y343256D01*
X224355Y343052D01*
X224558Y342746D01*
X224915Y342339D01*
X225627Y341423D01*
X225984Y341015D01*
X226290Y340659D01*
X226340Y340608D01*
X226391Y340557D01*
X226646Y340251D01*
X227002Y339895D01*
X227308Y339539D01*
X227359Y339488D01*
X227410Y339335D01*
X227512Y339182D01*
X227613Y338978D01*
X227766Y338724D01*
X227919Y338367D01*
X228123Y337909D01*
X228173Y337858D01*
X228224Y337705D01*
X228326Y337451D01*
X228428Y337196D01*
X228734Y336483D01*
X229039Y335770D01*
Y335719D01*
X229090Y335669D01*
X229192Y335363D01*
X229345Y334956D01*
X229497Y334497D01*
Y334447D01*
X229548Y334396D01*
X229650Y334141D01*
X229752Y333734D01*
X229854Y333326D01*
Y333275D01*
X229905Y333173D01*
X229956Y333072D01*
X230108Y332868D01*
X230261Y332664D01*
X230465Y332410D01*
X230770Y332155D01*
X231127Y331901D01*
X231178Y331850D01*
X231229Y331799D01*
X231280Y331646D01*
X231178Y331493D01*
X231127Y331442D01*
X230974Y331340D01*
X230719Y331137D01*
X230312Y330933D01*
X230210Y330882D01*
X230007Y330780D01*
X229752Y330577D01*
X229599Y330424D01*
Y330322D01*
X229548Y330118D01*
Y329864D01*
X229497Y329405D01*
Y329100D01*
Y328794D01*
Y328387D01*
Y327929D01*
Y327420D01*
Y326859D01*
Y326809D01*
Y326707D01*
Y326554D01*
Y326350D01*
Y325790D01*
X229548Y325128D01*
Y324415D01*
X229599Y323753D01*
Y323142D01*
X229650Y322888D01*
Y322684D01*
Y322633D01*
X229701Y322480D01*
Y322277D01*
X229752Y322022D01*
Y321513D01*
Y321309D01*
X229701Y321156D01*
Y321106D01*
X229650Y321055D01*
X229599Y321106D01*
Y321156D01*
X229548Y321258D01*
X229497Y321411D01*
Y321462D01*
Y321564D01*
X229447Y321767D01*
X229396Y322124D01*
X229345Y322633D01*
X229294Y323244D01*
X229243Y323652D01*
X229192Y324110D01*
Y324568D01*
X229141Y325128D01*
Y325179D01*
Y325281D01*
Y325434D01*
X229090Y325637D01*
X229039Y326198D01*
X228988Y326859D01*
X228937Y327521D01*
X228886Y328183D01*
X228785Y328794D01*
Y328998D01*
X228734Y329202D01*
Y329253D01*
Y329355D01*
X228683Y329507D01*
X228632Y329711D01*
X228581Y330220D01*
X228479Y330780D01*
X228377Y331493D01*
X227461Y331544D01*
X227206D01*
X226951Y331595D01*
X226697Y331646D01*
X226391D01*
X226137Y331697D01*
X225984Y331799D01*
X225933Y331850D01*
Y331901D01*
X226035Y331951D01*
X226086Y332002D01*
X226290D01*
X226493Y332053D01*
X226799Y332257D01*
X227053Y332359D01*
X227359Y332562D01*
X227410Y332613D01*
X227512Y332664D01*
X227817Y332919D01*
X228224Y333173D01*
X228377Y333275D01*
X228530Y333377D01*
X228581D01*
X228632Y333428D01*
X228836Y333581D01*
X228988Y333785D01*
X229090Y333886D01*
Y334039D01*
Y334141D01*
X229039Y334396D01*
X228937Y334803D01*
X228785Y335108D01*
X228632Y335414D01*
Y335465D01*
X228530Y335618D01*
X228428Y335821D01*
X228275Y336076D01*
X227868Y336738D01*
X227308Y337502D01*
X227257Y337553D01*
X227155Y337705D01*
X227002Y337909D01*
X226799Y338215D01*
X226544Y338520D01*
X226290Y338928D01*
X225729Y339793D01*
X225678Y339844D01*
X225627Y339997D01*
X225424Y340200D01*
X225169Y340455D01*
X225118Y340506D01*
X224966Y340710D01*
X224813Y340862D01*
X224762Y341066D01*
Y341117D01*
Y341168D01*
X224660Y341321D01*
X224558Y341423D01*
X224456Y341524D01*
X224355Y341626D01*
X224202Y341830D01*
X223947Y342135D01*
X223693Y342543D01*
X223336Y343103D01*
X222878Y343765D01*
Y343816D01*
X222827Y343867D01*
X222623Y344172D01*
X222318Y344580D01*
X221910Y345038D01*
Y345089D01*
X221809Y345140D01*
X221605Y345343D01*
X221350Y345547D01*
X221248Y345649D01*
X221045D01*
X220943Y345700D01*
X220790Y345751D01*
X220535Y345802D01*
X220230Y345954D01*
X219823Y346107D01*
X219313Y346311D01*
X219263Y346362D01*
X219059Y346413D01*
X218855Y346566D01*
X218550Y346667D01*
X217888Y346973D01*
X217582Y347075D01*
X217328Y347126D01*
X217277D01*
X217226Y347177D01*
X216971Y347227D01*
X216767Y347329D01*
X216666Y347431D01*
Y347482D01*
Y347533D01*
X216717Y347584D01*
X216818Y347635D01*
X217022Y347686D01*
X217073Y347737D01*
X217277Y347838D01*
X217429Y347991D01*
X217582Y348144D01*
X217786Y348399D01*
X217989Y348704D01*
Y348755D01*
X218040Y348806D01*
X218244Y349061D01*
X218397Y349366D01*
X218499Y349621D01*
Y349672D01*
X218550Y349875D01*
Y350181D01*
X218499Y350639D01*
Y350690D01*
Y350792D01*
Y351046D01*
Y351352D01*
Y351403D01*
X218550Y351454D01*
X218601D01*
X218652Y351403D01*
X218804Y351250D01*
X219008Y351097D01*
X219313Y350843D01*
X219721Y350486D01*
X220230Y349977D01*
X220281Y349926D01*
X220383Y349824D01*
X220739Y349519D01*
X221096Y349162D01*
X221299Y349010D01*
X221401Y348908D01*
X221452Y348857D01*
X221605Y348806D01*
X221809Y348755D01*
X222165Y348704D01*
X222267D01*
X222572Y348755D01*
X222929Y348857D01*
X223336Y349010D01*
X223387D01*
X223438Y349061D01*
X223693Y349162D01*
X224049Y349264D01*
X224507Y349315D01*
X224609D01*
X224966Y349366D01*
X225424Y349468D01*
X225984Y349621D01*
X226035D01*
X226137Y349672D01*
X226442Y349824D01*
X226799Y350028D01*
X226951Y350130D01*
X227053Y350232D01*
Y350283D01*
X227104Y350334D01*
X227155Y350486D01*
X227257Y350741D01*
X227308Y351046D01*
X227410Y351505D01*
X227512Y352014D01*
X227613Y352625D01*
Y352676D01*
Y352880D01*
Y353083D01*
Y353236D01*
Y353287D01*
X227562Y353338D01*
X227410Y353541D01*
X227206Y353745D01*
X227104Y353796D01*
X226901Y353949D01*
X226646Y354153D01*
X226391Y354254D01*
X226340D01*
X226188Y354356D01*
X225882Y354458D01*
X225475Y354611D01*
X225424D01*
X225373Y354662D01*
X225220Y354713D01*
X225016Y354815D01*
X224762Y354916D01*
X224405Y355069D01*
X224049Y355222D01*
X223591Y355375D01*
X223540D01*
X223387Y355476D01*
X223183Y355527D01*
X222878Y355680D01*
X222318Y355884D01*
X222012Y355986D01*
X221809Y356087D01*
X221758Y356138D01*
X221554Y356189D01*
X221299Y356240D01*
X221096Y356291D01*
X221045D01*
X220892Y356342D01*
X220739Y356393D01*
X220535Y356495D01*
X220281Y356597D01*
X219975Y356750D01*
X219924D01*
X219874Y356800D01*
X219568Y356953D01*
X219110Y357157D01*
X218550Y357411D01*
X217989Y357666D01*
X217429Y357870D01*
X216920Y358022D01*
X216513Y358073D01*
D02*
G37*
G36*
X228173Y361230D02*
X227970Y361179D01*
X227613Y361078D01*
X227562D01*
X227512Y360976D01*
X227308Y360772D01*
X227002Y360365D01*
X226850Y360110D01*
X226595Y359805D01*
X226340Y359448D01*
X226086Y358990D01*
X225729Y358481D01*
X225373Y357870D01*
X224966Y357208D01*
X224507Y356444D01*
X224456Y356393D01*
X224405Y356189D01*
X224355Y355935D01*
X224304Y355680D01*
Y355629D01*
X224355Y355527D01*
X224405Y355426D01*
X224507Y355375D01*
X224558D01*
X224711Y355324D01*
X224864Y355273D01*
X225118Y355171D01*
X225475Y354967D01*
X225933Y354764D01*
X226493Y354458D01*
X226544Y354407D01*
X226748Y354305D01*
X227053Y354153D01*
X227359Y354000D01*
X227664Y353847D01*
X227919Y353643D01*
X228123Y353541D01*
X228224Y353440D01*
Y353389D01*
Y353185D01*
Y352880D01*
X228072Y352472D01*
Y352421D01*
X227970Y352218D01*
X227919Y351963D01*
X227868Y351658D01*
Y351607D01*
Y351403D01*
X227817Y351097D01*
Y350843D01*
Y350792D01*
X227868Y350690D01*
X227919Y350588D01*
X228021Y350537D01*
X228072D01*
X228173Y350639D01*
X228326Y350741D01*
X228479Y350843D01*
X228734Y351046D01*
X229039Y351301D01*
X229090Y351352D01*
X229192Y351454D01*
X229345Y351556D01*
X229548Y351759D01*
X230007Y352218D01*
X230363Y352676D01*
Y352727D01*
X230414Y352778D01*
X230618Y353032D01*
X230821Y353338D01*
X231025Y353643D01*
X231076Y353694D01*
X231229Y353898D01*
X231432Y354204D01*
X231687Y354611D01*
X231738Y354662D01*
X231840Y354865D01*
X231993Y355120D01*
X232196Y355426D01*
X232655Y356189D01*
X232807Y356546D01*
X232960Y356902D01*
Y356953D01*
X233011Y357004D01*
X233062Y357310D01*
X233113Y357666D01*
Y357972D01*
Y358022D01*
X233062Y358175D01*
X232960Y358328D01*
X232705Y358532D01*
X232655Y358583D01*
X232400Y358735D01*
X232043Y358990D01*
X231534Y359397D01*
X231483Y359448D01*
X231432Y359499D01*
X231127Y359754D01*
X230770Y360008D01*
X230618Y360110D01*
X230465Y360161D01*
X230414D01*
X230210Y360263D01*
X229905Y360416D01*
X229497Y360619D01*
X229396Y360670D01*
X229192Y360823D01*
X228886Y360976D01*
X228683Y361027D01*
X228581D01*
X228428Y361078D01*
X228326Y361179D01*
X228275D01*
X228173Y361230D01*
D02*
G37*
G36*
X226850Y348857D02*
X226595D01*
X226391Y348806D01*
X226188Y348755D01*
X225882Y348704D01*
X225831D01*
X225729Y348653D01*
X225577D01*
X225373Y348602D01*
X224813Y348500D01*
X224202Y348399D01*
X224100D01*
X223896Y348348D01*
X223693Y348297D01*
X223438Y348195D01*
X223132Y348144D01*
X222369Y347838D01*
X222318D01*
X222216Y347788D01*
X221859Y347584D01*
X221452Y347380D01*
X221350Y347278D01*
X221299Y347227D01*
Y347177D01*
X221401Y347126D01*
X221503Y347024D01*
X221656Y346922D01*
X221859Y346820D01*
X222114Y346667D01*
X222165D01*
X222267Y346616D01*
X222572Y346413D01*
X223031Y346158D01*
X223438Y345903D01*
X223540Y345853D01*
X223693Y345751D01*
X223947Y345598D01*
X224151Y345547D01*
X224202D01*
X224355Y345598D01*
X224558Y345700D01*
X224762Y345903D01*
X224813Y345954D01*
X224966Y346158D01*
X225169Y346413D01*
X225373Y346820D01*
Y346871D01*
X225424Y346922D01*
X225577Y347177D01*
X225780Y347431D01*
X225933Y347533D01*
X226086Y347584D01*
X226137D01*
X226239Y347686D01*
X226442Y347838D01*
X226646Y348144D01*
X226697Y348246D01*
X226799Y348449D01*
X226850Y348653D01*
Y348857D01*
D02*
G37*
G36*
X222420Y364795D02*
X222216Y364744D01*
X222012Y364642D01*
X221961D01*
X221910Y364591D01*
X221605Y364337D01*
X221452Y364184D01*
X221198Y363929D01*
X220994Y363675D01*
X220739Y363318D01*
Y363267D01*
X220688Y363216D01*
X220485Y362911D01*
X220230Y362503D01*
X219874Y362045D01*
X219568Y361536D01*
X219313Y361078D01*
X219110Y360721D01*
X219008Y360467D01*
Y360416D01*
X218957Y360263D01*
X218753Y360008D01*
X218601Y359805D01*
X218397Y359601D01*
X218295Y359499D01*
X218091Y359245D01*
X217888Y358939D01*
X217837Y358735D01*
X217786Y358583D01*
Y358532D01*
X217837Y358430D01*
X217888Y358277D01*
X218040Y358124D01*
X218091Y358073D01*
X218346Y357972D01*
X218499Y357921D01*
X218753Y357768D01*
X219008Y357615D01*
X219364Y357462D01*
X219415Y357411D01*
X219619Y357361D01*
X219823Y357259D01*
X220128Y357106D01*
X220434Y356953D01*
X220688Y356851D01*
X220892Y356800D01*
X221045Y356750D01*
X221096D01*
X221248Y356699D01*
X221503Y356597D01*
X221910Y356342D01*
X221961Y356291D01*
X222114Y356240D01*
X222369Y356138D01*
X222674Y356087D01*
X222980Y355986D01*
X223285D01*
X223540Y356087D01*
X223744Y356240D01*
X223794Y356291D01*
X223845Y356393D01*
X224100Y356699D01*
X224151Y356750D01*
X224304Y357004D01*
X224405Y357157D01*
X224558Y357411D01*
X224762Y357717D01*
X224966Y358073D01*
X225016Y358124D01*
X225067Y358226D01*
X225169Y358430D01*
X225322Y358633D01*
X225577Y359041D01*
X225627Y359143D01*
X225678Y359245D01*
Y359296D01*
X225729Y359346D01*
X225831Y359550D01*
X226086Y359907D01*
Y359957D01*
X226188Y360008D01*
X226340Y360263D01*
X226544Y360670D01*
X226748Y361129D01*
X226951Y361842D01*
X226239Y362453D01*
X226188D01*
X226137Y362554D01*
X225984Y362656D01*
X225780Y362809D01*
X225271Y363165D01*
X224558Y363624D01*
X224507Y363675D01*
X224405Y363725D01*
X224202Y363827D01*
X224049Y363980D01*
X223591Y364235D01*
X223438Y364286D01*
X223336Y364337D01*
X223234Y364387D01*
X223132Y364438D01*
X222980Y364591D01*
X222929Y364642D01*
X222725Y364744D01*
X222420Y364795D01*
D02*
G37*
G36*
X396279Y327461D02*
X396177D01*
X395821Y327410D01*
X395566Y327309D01*
X395413Y327156D01*
X395362Y327105D01*
X395261Y326952D01*
X395210Y326799D01*
X395108Y326392D01*
X395057Y326035D01*
Y325934D01*
Y325883D01*
X395108Y325323D01*
X395210Y324966D01*
X395311Y324712D01*
X395362Y324661D01*
X395617Y324406D01*
X395872Y324304D01*
X396075Y324253D01*
X396177D01*
X396534Y324304D01*
X396788Y324457D01*
X396941Y324610D01*
X396992Y324661D01*
X397094Y325017D01*
X397196Y325425D01*
Y325730D01*
Y325832D01*
Y325883D01*
Y326188D01*
X397145Y326443D01*
X397094Y326850D01*
X397043Y327054D01*
X396992Y327105D01*
X396737Y327309D01*
X396483Y327410D01*
X396279Y327461D01*
D02*
G37*
G36*
X379221Y327512D02*
X379068D01*
X378712Y327461D01*
X378457Y327309D01*
X378253Y327156D01*
X378151Y326952D01*
X378050Y326697D01*
X377999Y326545D01*
Y326392D01*
Y326341D01*
X380137D01*
X380086Y326748D01*
X379934Y327003D01*
X379781Y327207D01*
X379577Y327359D01*
X379374Y327461D01*
X379221Y327512D01*
D02*
G37*
G36*
X369190Y327461D02*
X369088D01*
X368731Y327410D01*
X368477Y327309D01*
X368324Y327156D01*
X368273Y327105D01*
X368171Y326952D01*
X368120Y326799D01*
X368069Y326392D01*
X368018Y326035D01*
Y325934D01*
Y325883D01*
X368069Y325323D01*
X368171Y324966D01*
X368222Y324712D01*
X368273Y324661D01*
X368528Y324406D01*
X368782Y324304D01*
X368986Y324253D01*
X369088D01*
X369444Y324304D01*
X369750Y324457D01*
X369902Y324610D01*
X369953Y324661D01*
X370106Y325017D01*
X370157Y325425D01*
X370208Y325730D01*
Y325832D01*
Y325883D01*
Y326188D01*
X370157Y326443D01*
X370106Y326850D01*
X370004Y327054D01*
X369953Y327105D01*
X369699Y327309D01*
X369393Y327410D01*
X369190Y327461D01*
D02*
G37*
G36*
X374282D02*
X374180D01*
X373823Y327410D01*
X373569Y327207D01*
X373416Y326952D01*
X373314Y326697D01*
X373212Y326392D01*
X373161Y326137D01*
Y325934D01*
Y325883D01*
X373212Y325323D01*
X373314Y324966D01*
X373467Y324661D01*
X373671Y324457D01*
X373874Y324355D01*
X374027Y324304D01*
X374129Y324253D01*
X374180D01*
X374434Y324304D01*
X374689Y324406D01*
X374791Y324457D01*
X374842Y324508D01*
X374994Y324712D01*
X375096Y324915D01*
X375147Y325017D01*
Y325068D01*
X375198Y325323D01*
Y325577D01*
Y325781D01*
Y325883D01*
X375147Y326392D01*
X375096Y326748D01*
X375045Y327003D01*
X374994Y327054D01*
X374791Y327309D01*
X374536Y327410D01*
X374282Y327461D01*
D02*
G37*
G36*
X414559Y327512D02*
X414406D01*
X414050Y327461D01*
X413796Y327309D01*
X413592Y327156D01*
X413439Y326952D01*
X413337Y326697D01*
Y326545D01*
X413286Y326392D01*
Y326341D01*
X415476D01*
X415425Y326748D01*
X415272Y327003D01*
X415119Y327207D01*
X414916Y327359D01*
X414712Y327461D01*
X414559Y327512D01*
D02*
G37*
G36*
X400964Y317328D02*
X399436D01*
X399232Y317226D01*
X399029Y317125D01*
X398927Y317023D01*
X398825Y316819D01*
Y316768D01*
Y316717D01*
X398876Y316513D01*
X398978Y316361D01*
X399334Y316157D01*
X399640Y316055D01*
X399793D01*
X400251Y316106D01*
X400505Y316157D01*
X400658Y316208D01*
X400709D01*
X400862Y316412D01*
X400913Y316666D01*
X400964Y316870D01*
Y316972D01*
Y317328D01*
D02*
G37*
G36*
X380086D02*
X378559D01*
X378355Y317226D01*
X378151Y317125D01*
X378050Y317023D01*
X377948Y316819D01*
Y316768D01*
Y316717D01*
X377999Y316513D01*
X378101Y316361D01*
X378457Y316157D01*
X378763Y316055D01*
X378915D01*
X379323Y316106D01*
X379628Y316157D01*
X379781Y316208D01*
X379832D01*
X379985Y316412D01*
X380035Y316666D01*
X380086Y316870D01*
Y316972D01*
Y317328D01*
D02*
G37*
G36*
X408907Y319416D02*
X408754D01*
X408398Y319365D01*
X408143Y319212D01*
X407991Y319009D01*
X407838Y318805D01*
X407736Y318601D01*
Y318397D01*
X407685Y318245D01*
Y318194D01*
X409875D01*
X409824Y318601D01*
X409671Y318907D01*
X409518Y319110D01*
X409314Y319263D01*
X409111Y319365D01*
X408907Y319416D01*
D02*
G37*
G36*
X387979Y319314D02*
X387826D01*
X387521Y319263D01*
X387317Y319212D01*
X387164Y319110D01*
X387113Y319059D01*
X387012Y318856D01*
X386910Y318703D01*
X386859Y318550D01*
Y318499D01*
X386808Y318296D01*
Y318041D01*
Y317837D01*
Y317736D01*
X386859Y317226D01*
X386910Y316870D01*
X386961Y316666D01*
Y316564D01*
X387164Y316310D01*
X387470Y316208D01*
X387724Y316157D01*
X387826D01*
X388183Y316208D01*
X388437Y316412D01*
X388590Y316666D01*
X388743Y316972D01*
X388794Y317226D01*
X388845Y317481D01*
Y317685D01*
Y317736D01*
X388794Y318245D01*
X388692Y318652D01*
X388539Y318907D01*
X388335Y319110D01*
X388132Y319212D01*
X387979Y319314D01*
D02*
G37*
%LPD*%
D37*
X296063Y426083D02*
G03*
X296063Y426083I-492J0D01*
G01*
D38*
X276905Y358685D02*
X287732D01*
X254268D02*
X265094D01*
X254268Y330142D02*
Y358685D01*
Y330142D02*
X265094Y319315D01*
X287732Y330142D02*
Y358685D01*
X276905Y319315D02*
X287732Y330142D01*
X207500Y436500D02*
X217500D01*
Y416500D02*
Y436500D01*
X207500Y416500D02*
X217500D01*
X207500D02*
Y436500D01*
Y445500D02*
X217500D01*
X207500D02*
Y465500D01*
X217500D01*
Y445500D02*
Y465500D01*
X407500Y445500D02*
X417500D01*
X407500D02*
Y465500D01*
X417500D01*
Y445500D02*
Y465500D01*
X407500Y436500D02*
X417500D01*
Y416500D02*
Y436500D01*
X407500Y416500D02*
X417500D01*
X407500D02*
Y436500D01*
X371000Y507500D02*
Y517500D01*
X411000D01*
X371000Y507500D02*
X411000D01*
Y517500D01*
X325000Y507500D02*
Y517500D01*
X365000D01*
X325000Y507500D02*
X365000D01*
Y517500D01*
X259500Y507500D02*
Y517500D01*
X299500D01*
X259500Y507500D02*
X299500D01*
Y517500D01*
X213500Y507500D02*
Y517500D01*
X253500D01*
X213500Y507500D02*
X253500D01*
Y517500D01*
X417750Y381000D02*
Y401000D01*
X407750D02*
X417750D01*
X407750Y381000D02*
Y401000D01*
Y381000D02*
X417750D01*
X218000Y379500D02*
Y399500D01*
X208000D02*
X218000D01*
X208000Y379500D02*
Y399500D01*
Y379500D02*
X218000D01*
X300500Y362250D02*
X320500D01*
X300500Y352250D02*
Y362250D01*
Y352250D02*
X320500D01*
Y362250D01*
X355323Y387898D02*
X370677D01*
X355323Y375102D02*
X370677D01*
X386648Y417573D02*
Y432927D01*
X373852Y417573D02*
Y432927D01*
X254073Y375102D02*
X269427D01*
X254073Y387898D02*
X269427D01*
X250398Y417323D02*
Y432677D01*
X237602Y417323D02*
Y432677D01*
X352656Y358685D02*
X363482D01*
X330018D02*
X340844D01*
X330018Y330142D02*
Y358685D01*
Y330142D02*
X340844Y319315D01*
X363482Y330142D02*
Y358685D01*
X352656Y319315D02*
X363482Y330142D01*
D39*
X252249Y322248D02*
X251249Y323248D01*
X249250D01*
X248250Y322248D01*
Y318250D01*
X249250Y317250D01*
X251249D01*
X252249Y318250D01*
X254248Y322248D02*
X255248Y323248D01*
X257247D01*
X258247Y322248D01*
Y321249D01*
X257247Y320249D01*
X258247Y319249D01*
Y318250D01*
X257247Y317250D01*
X255248D01*
X254248Y318250D01*
Y319249D01*
X255248Y320249D01*
X254248Y321249D01*
Y322248D01*
X255248Y320249D02*
X257247D01*
X267749Y407748D02*
X266749Y408748D01*
X264750D01*
X263750Y407748D01*
Y403750D01*
X264750Y402750D01*
X266749D01*
X267749Y403750D01*
X273747Y408748D02*
X271747Y407748D01*
X269748Y405749D01*
Y403750D01*
X270748Y402750D01*
X272747D01*
X273747Y403750D01*
Y404749D01*
X272747Y405749D01*
X269748D01*
X341499Y415998D02*
X340499Y416998D01*
X338500D01*
X337500Y415998D01*
Y412000D01*
X338500Y411000D01*
X340499D01*
X341499Y412000D01*
X347497Y416998D02*
X343498D01*
Y413999D01*
X345497Y414999D01*
X346497D01*
X347497Y413999D01*
Y412000D01*
X346497Y411000D01*
X344498D01*
X343498Y412000D01*
X291249Y463498D02*
X290249Y464498D01*
X288250D01*
X287250Y463498D01*
Y459500D01*
X288250Y458500D01*
X290249D01*
X291249Y459500D01*
X296247Y458500D02*
Y464498D01*
X293248Y461499D01*
X297247D01*
X239250Y442250D02*
Y448248D01*
X242249D01*
X243249Y447248D01*
Y445249D01*
X242249Y444249D01*
X239250D01*
X241249D02*
X243249Y442250D01*
X248247D02*
Y448248D01*
X245248Y445249D01*
X249247D01*
X251750Y366250D02*
Y372248D01*
X254749D01*
X255749Y371248D01*
Y369249D01*
X254749Y368249D01*
X251750D01*
X253749D02*
X255749Y366250D01*
X257748Y371248D02*
X258748Y372248D01*
X260747D01*
X261747Y371248D01*
Y370249D01*
X260747Y369249D01*
X259747D01*
X260747D01*
X261747Y368249D01*
Y367250D01*
X260747Y366250D01*
X258748D01*
X257748Y367250D01*
X360250Y422750D02*
Y428748D01*
X363249D01*
X364249Y427748D01*
Y425749D01*
X363249Y424749D01*
X360250D01*
X362249D02*
X364249Y422750D01*
X370247D02*
X366248D01*
X370247Y426749D01*
Y427748D01*
X369247Y428748D01*
X367248D01*
X366248Y427748D01*
X353000Y366500D02*
Y372498D01*
X355999D01*
X356999Y371498D01*
Y369499D01*
X355999Y368499D01*
X353000D01*
X354999D02*
X356999Y366500D01*
X358998D02*
X360997D01*
X359998D01*
Y372498D01*
X358998Y371498D01*
X341249Y445998D02*
X340249Y446998D01*
X338250D01*
X337250Y445998D01*
Y442000D01*
X338250Y441000D01*
X340249D01*
X341249Y442000D01*
X343248Y445998D02*
X344248Y446998D01*
X346247D01*
X347247Y445998D01*
Y444999D01*
X346247Y443999D01*
X345247D01*
X346247D01*
X347247Y442999D01*
Y442000D01*
X346247Y441000D01*
X344248D01*
X343248Y442000D01*
X278999Y442248D02*
X277999Y443248D01*
X276000D01*
X275000Y442248D01*
Y438250D01*
X276000Y437250D01*
X277999D01*
X278999Y438250D01*
X284997Y437250D02*
X280998D01*
X284997Y441249D01*
Y442248D01*
X283997Y443248D01*
X281998D01*
X280998Y442248D01*
X322752Y366999D02*
X321752Y365999D01*
Y364000D01*
X322752Y363000D01*
X326750D01*
X327750Y364000D01*
Y365999D01*
X326750Y366999D01*
X327750Y368998D02*
Y370997D01*
Y369998D01*
X321752D01*
X322752Y368998D01*
X289750Y396498D02*
Y391500D01*
X290750Y390500D01*
X292749D01*
X293749Y391500D01*
Y396498D01*
X295748Y390500D02*
X297747D01*
X296748D01*
Y396498D01*
X295748Y395498D01*
X328749Y320498D02*
X327749Y321498D01*
X325750D01*
X324750Y320498D01*
Y316500D01*
X325750Y315500D01*
X327749D01*
X328749Y316500D01*
X330748Y321498D02*
X334747D01*
Y320498D01*
X330748Y316500D01*
Y315500D01*
X303102Y333250D02*
X307101D01*
X309100Y335249D01*
X307101Y337249D01*
X303102D01*
Y339248D02*
X309100D01*
Y342247D01*
X308100Y343247D01*
X304102D01*
X303102Y342247D01*
Y339248D01*
Y345246D02*
X309100D01*
Y348245D01*
X308100Y349245D01*
X304102D01*
X303102Y348245D01*
Y345246D01*
X220500Y397498D02*
Y393499D01*
X222499Y391500D01*
X224499Y393499D01*
Y397498D01*
X226498D02*
Y391500D01*
X229497D01*
X230497Y392500D01*
Y393499D01*
X229497Y394499D01*
X226498D01*
X229497D01*
X230497Y395499D01*
Y396498D01*
X229497Y397498D01*
X226498D01*
X232496D02*
Y391500D01*
X235495D01*
X236495Y392500D01*
Y393499D01*
X235495Y394499D01*
X232496D01*
X235495D01*
X236495Y395499D01*
Y396498D01*
X235495Y397498D01*
X232496D01*
X238494Y391500D02*
X240493D01*
X239494D01*
Y397498D01*
X238494Y396498D01*
X382500Y399498D02*
Y395499D01*
X384499Y393500D01*
X386499Y395499D01*
Y399498D01*
X388498D02*
Y393500D01*
X391497D01*
X392497Y394500D01*
Y395499D01*
X391497Y396499D01*
X388498D01*
X391497D01*
X392497Y397499D01*
Y398498D01*
X391497Y399498D01*
X388498D01*
X394496D02*
Y393500D01*
X397495D01*
X398495Y394500D01*
Y395499D01*
X397495Y396499D01*
X394496D01*
X397495D01*
X398495Y397499D01*
Y398498D01*
X397495Y399498D01*
X394496D01*
X404493Y393500D02*
X400494D01*
X404493Y397499D01*
Y398498D01*
X403493Y399498D01*
X401494D01*
X400494Y398498D01*
X224499Y385998D02*
X223499Y386998D01*
X221500D01*
X220500Y385998D01*
Y382000D01*
X221500Y381000D01*
X223499D01*
X224499Y382000D01*
Y383999D01*
X222499D01*
X226498Y381000D02*
Y386998D01*
X230497Y381000D01*
Y386998D01*
X232496D02*
Y381000D01*
X235495D01*
X236495Y382000D01*
Y385998D01*
X235495Y386998D01*
X232496D01*
X226498Y462001D02*
Y464000D01*
X225498Y465000D01*
X221500D01*
X220500Y464000D01*
Y462001D01*
X221500Y461001D01*
X225498D01*
X226498Y462001D01*
Y459002D02*
X221500D01*
X220500Y458002D01*
Y456003D01*
X221500Y455003D01*
X226498D01*
Y453004D02*
Y449005D01*
Y451005D01*
X220500D01*
Y447006D02*
Y445007D01*
Y446006D01*
X226498D01*
X225498Y447006D01*
X226498Y433501D02*
Y435500D01*
X225498Y436500D01*
X221500D01*
X220500Y435500D01*
Y433501D01*
X221500Y432501D01*
X225498D01*
X226498Y433501D01*
Y430502D02*
X221500D01*
X220500Y429502D01*
Y427503D01*
X221500Y426503D01*
X226498D01*
Y424504D02*
Y420505D01*
Y422505D01*
X220500D01*
Y414507D02*
Y418506D01*
X224499Y414507D01*
X225498D01*
X226498Y415507D01*
Y417506D01*
X225498Y418506D01*
X399002Y446999D02*
Y445000D01*
X400002Y444000D01*
X404000D01*
X405000Y445000D01*
Y446999D01*
X404000Y447999D01*
X400002D01*
X399002Y446999D01*
Y449998D02*
X404000D01*
X405000Y450998D01*
Y452997D01*
X404000Y453997D01*
X399002D01*
Y455996D02*
Y459995D01*
Y457996D01*
X405000D01*
X400002Y461994D02*
X399002Y462994D01*
Y464993D01*
X400002Y465993D01*
X401001D01*
X402001Y464993D01*
Y463994D01*
Y464993D01*
X403001Y465993D01*
X404000D01*
X405000Y464993D01*
Y462994D01*
X404000Y461994D01*
X399002Y417506D02*
Y415507D01*
X400002Y414507D01*
X404000D01*
X405000Y415507D01*
Y417506D01*
X404000Y418506D01*
X400002D01*
X399002Y417506D01*
Y420505D02*
X404000D01*
X405000Y421505D01*
Y423504D01*
X404000Y424504D01*
X399002D01*
Y426503D02*
Y430502D01*
Y428503D01*
X405000D01*
Y435500D02*
X399002D01*
X402001Y432501D01*
Y436500D01*
X245502Y492000D02*
Y493999D01*
Y493000D01*
X251500D01*
Y492000D01*
Y493999D01*
Y496998D02*
Y498998D01*
Y497998D01*
X245502D01*
X246502Y496998D01*
X251500Y501997D02*
Y503996D01*
Y502996D01*
X245502D01*
X246502Y501997D01*
X235502Y491000D02*
Y492999D01*
Y492000D01*
X241500D01*
Y491000D01*
Y492999D01*
X236502Y495998D02*
X235502Y496998D01*
Y498997D01*
X236502Y499997D01*
X240500D01*
X241500Y498997D01*
Y496998D01*
X240500Y495998D01*
X236502D01*
X241500Y501996D02*
Y503996D01*
Y502996D01*
X235502D01*
X236502Y501996D01*
X231500Y472000D02*
X225502D01*
Y474999D01*
X226502Y475999D01*
X228501D01*
X229501Y474999D01*
Y472000D01*
X225502Y477998D02*
X231500D01*
X228501D01*
Y481997D01*
X225502D01*
X231500D01*
Y483996D02*
X227501D01*
X225502Y485995D01*
X227501Y487995D01*
X231500D01*
X228501D01*
Y483996D01*
X226502Y493993D02*
X225502Y492993D01*
Y490994D01*
X226502Y489994D01*
X227501D01*
X228501Y490994D01*
Y492993D01*
X229501Y493993D01*
X230500D01*
X231500Y492993D01*
Y490994D01*
X230500Y489994D01*
X225502Y499991D02*
Y495992D01*
X231500D01*
Y499991D01*
X228501Y495992D02*
Y497992D01*
X231500Y501990D02*
Y503990D01*
Y502990D01*
X225502D01*
X226502Y501990D01*
X215502Y478000D02*
X219501D01*
X221500Y479999D01*
X219501Y481999D01*
X215502D01*
X221500Y483998D02*
X215502D01*
Y486997D01*
X216502Y487997D01*
X218501D01*
X219501Y486997D01*
Y483998D01*
Y485997D02*
X221500Y487997D01*
X215502Y493995D02*
Y489996D01*
X221500D01*
Y493995D01*
X218501Y489996D02*
Y491995D01*
X215502Y499993D02*
Y495994D01*
X218501D01*
Y497994D01*
Y495994D01*
X221500D01*
Y501992D02*
Y503992D01*
Y502992D01*
X215502D01*
X216502Y501992D01*
X392499Y387498D02*
X391499Y388498D01*
X389500D01*
X388500Y387498D01*
Y383500D01*
X389500Y382500D01*
X391499D01*
X392499Y383500D01*
Y385499D01*
X390499D01*
X394498Y382500D02*
Y388498D01*
X398497Y382500D01*
Y388498D01*
X400496D02*
Y382500D01*
X403495D01*
X404495Y383500D01*
Y387498D01*
X403495Y388498D01*
X400496D01*
X313752Y337249D02*
X312752Y336249D01*
Y334250D01*
X313752Y333250D01*
X317750D01*
X318750Y334250D01*
Y336249D01*
X317750Y337249D01*
X315751D01*
Y335249D01*
X318750Y339248D02*
X312752D01*
X318750Y343247D01*
X312752D01*
Y345246D02*
X318750D01*
Y348245D01*
X317750Y349245D01*
X313752D01*
X312752Y348245D01*
Y345246D01*
X261502Y476000D02*
X265501D01*
X267500Y477999D01*
X265501Y479999D01*
X261502D01*
X267500Y481998D02*
X261502D01*
Y484997D01*
X262502Y485997D01*
X264501D01*
X265501Y484997D01*
Y481998D01*
Y483997D02*
X267500Y485997D01*
X261502Y491995D02*
Y487996D01*
X267500D01*
Y491995D01*
X264501Y487996D02*
Y489995D01*
X261502Y497993D02*
Y493994D01*
X264501D01*
Y495994D01*
Y493994D01*
X267500D01*
Y503991D02*
Y499992D01*
X263501Y503991D01*
X262502D01*
X261502Y502991D01*
Y500992D01*
X262502Y499992D01*
X277500Y470007D02*
X271502D01*
Y473005D01*
X272502Y474005D01*
X274501D01*
X275501Y473005D01*
Y470007D01*
X271502Y476005D02*
X277500D01*
X274501D01*
Y480003D01*
X271502D01*
X277500D01*
Y482003D02*
X273501D01*
X271502Y484002D01*
X273501Y486001D01*
X277500D01*
X274501D01*
Y482003D01*
X272502Y491999D02*
X271502Y491000D01*
Y489000D01*
X272502Y488001D01*
X273501D01*
X274501Y489000D01*
Y491000D01*
X275501Y491999D01*
X276500D01*
X277500Y491000D01*
Y489000D01*
X276500Y488001D01*
X271502Y497997D02*
Y493999D01*
X277500D01*
Y497997D01*
X274501Y493999D02*
Y495998D01*
X277500Y503996D02*
Y499997D01*
X273501Y503996D01*
X272502D01*
X271502Y502996D01*
Y500996D01*
X272502Y499997D01*
X281502Y489000D02*
Y490999D01*
Y490000D01*
X287500D01*
Y489000D01*
Y490999D01*
X282502Y493998D02*
X281502Y494998D01*
Y496997D01*
X282502Y497997D01*
X286500D01*
X287500Y496997D01*
Y494998D01*
X286500Y493998D01*
X282502D01*
X287500Y503995D02*
Y499996D01*
X283501Y503995D01*
X282502D01*
X281502Y502995D01*
Y500996D01*
X282502Y499996D01*
X291502Y490000D02*
Y491999D01*
Y491000D01*
X297500D01*
Y490000D01*
Y491999D01*
Y494998D02*
Y496998D01*
Y495998D01*
X291502D01*
X292502Y494998D01*
X297500Y503996D02*
Y499997D01*
X293501Y503996D01*
X292502D01*
X291502Y502996D01*
Y500996D01*
X292502Y499997D01*
X357002Y490000D02*
Y491999D01*
Y491000D01*
X363000D01*
Y490000D01*
Y491999D01*
Y494998D02*
Y496998D01*
Y495998D01*
X357002D01*
X358002Y494998D01*
Y499997D02*
X357002Y500996D01*
Y502996D01*
X358002Y503996D01*
X359001D01*
X360001Y502996D01*
Y501996D01*
Y502996D01*
X361001Y503996D01*
X362000D01*
X363000Y502996D01*
Y500996D01*
X362000Y499997D01*
X347002Y489000D02*
Y490999D01*
Y490000D01*
X353000D01*
Y489000D01*
Y490999D01*
X348002Y493998D02*
X347002Y494998D01*
Y496997D01*
X348002Y497997D01*
X352000D01*
X353000Y496997D01*
Y494998D01*
X352000Y493998D01*
X348002D01*
Y499996D02*
X347002Y500996D01*
Y502995D01*
X348002Y503995D01*
X349001D01*
X350001Y502995D01*
Y501996D01*
Y502995D01*
X351001Y503995D01*
X352000D01*
X353000Y502995D01*
Y500996D01*
X352000Y499996D01*
X343000Y470007D02*
X337002D01*
Y473005D01*
X338002Y474005D01*
X340001D01*
X341001Y473005D01*
Y470007D01*
X337002Y476005D02*
X343000D01*
X340001D01*
Y480003D01*
X337002D01*
X343000D01*
Y482003D02*
X339001D01*
X337002Y484002D01*
X339001Y486001D01*
X343000D01*
X340001D01*
Y482003D01*
X338002Y491999D02*
X337002Y491000D01*
Y489000D01*
X338002Y488001D01*
X339001D01*
X340001Y489000D01*
Y491000D01*
X341001Y491999D01*
X342000D01*
X343000Y491000D01*
Y489000D01*
X342000Y488001D01*
X337002Y497997D02*
Y493999D01*
X343000D01*
Y497997D01*
X340001Y493999D02*
Y495998D01*
X338002Y499997D02*
X337002Y500996D01*
Y502996D01*
X338002Y503996D01*
X339001D01*
X340001Y502996D01*
Y501996D01*
Y502996D01*
X341001Y503996D01*
X342000D01*
X343000Y502996D01*
Y500996D01*
X342000Y499997D01*
X327002Y476000D02*
X331001D01*
X333000Y477999D01*
X331001Y479999D01*
X327002D01*
X333000Y481998D02*
X327002D01*
Y484997D01*
X328002Y485997D01*
X330001D01*
X331001Y484997D01*
Y481998D01*
Y483997D02*
X333000Y485997D01*
X327002Y491995D02*
Y487996D01*
X333000D01*
Y491995D01*
X330001Y487996D02*
Y489995D01*
X327002Y497993D02*
Y493994D01*
X330001D01*
Y495994D01*
Y493994D01*
X333000D01*
X328002Y499992D02*
X327002Y500992D01*
Y502991D01*
X328002Y503991D01*
X329001D01*
X330001Y502991D01*
Y501992D01*
Y502991D01*
X331001Y503991D01*
X332000D01*
X333000Y502991D01*
Y500992D01*
X332000Y499992D01*
X403002Y490000D02*
Y491999D01*
Y491000D01*
X409000D01*
Y490000D01*
Y491999D01*
Y494998D02*
Y496998D01*
Y495998D01*
X403002D01*
X404002Y494998D01*
X409000Y502996D02*
X403002D01*
X406001Y499997D01*
Y503996D01*
X393002Y489000D02*
Y490999D01*
Y490000D01*
X399000D01*
Y489000D01*
Y490999D01*
X394002Y493998D02*
X393002Y494998D01*
Y496997D01*
X394002Y497997D01*
X398000D01*
X399000Y496997D01*
Y494998D01*
X398000Y493998D01*
X394002D01*
X399000Y502995D02*
X393002D01*
X396001Y499996D01*
Y503995D01*
X389000Y470007D02*
X383002D01*
Y473005D01*
X384002Y474005D01*
X386001D01*
X387001Y473005D01*
Y470007D01*
X383002Y476005D02*
X389000D01*
X386001D01*
Y480003D01*
X383002D01*
X389000D01*
Y482003D02*
X385001D01*
X383002Y484002D01*
X385001Y486001D01*
X389000D01*
X386001D01*
Y482003D01*
X384002Y491999D02*
X383002Y491000D01*
Y489000D01*
X384002Y488001D01*
X385001D01*
X386001Y489000D01*
Y491000D01*
X387001Y491999D01*
X388000D01*
X389000Y491000D01*
Y489000D01*
X388000Y488001D01*
X383002Y497997D02*
Y493999D01*
X389000D01*
Y497997D01*
X386001Y493999D02*
Y495998D01*
X389000Y502996D02*
X383002D01*
X386001Y499997D01*
Y503996D01*
X373002Y476000D02*
X377001D01*
X379000Y477999D01*
X377001Y479999D01*
X373002D01*
X379000Y481998D02*
X373002D01*
Y484997D01*
X374002Y485997D01*
X376001D01*
X377001Y484997D01*
Y481998D01*
Y483997D02*
X379000Y485997D01*
X373002Y491995D02*
Y487996D01*
X379000D01*
Y491995D01*
X376001Y487996D02*
Y489995D01*
X373002Y497993D02*
Y493994D01*
X376001D01*
Y495994D01*
Y493994D01*
X379000D01*
Y502991D02*
X373002D01*
X376001Y499992D01*
Y503991D01*
X234000Y310999D02*
Y308750D01*
X234750Y308000D01*
X235500Y308750D01*
X236249Y308000D01*
X236999Y308750D01*
Y310999D01*
X238498D02*
Y308750D01*
X239248Y308000D01*
X239998Y308750D01*
X240748Y308000D01*
X241498Y308750D01*
Y310999D01*
X242997D02*
Y308750D01*
X243747Y308000D01*
X244497Y308750D01*
X245246Y308000D01*
X245996Y308750D01*
Y310999D01*
X247496Y308000D02*
Y308750D01*
X248245D01*
Y308000D01*
X247496D01*
X251244Y310999D02*
X254243D01*
X251244Y308000D01*
X254243D01*
X256493Y310999D02*
X257992D01*
X258742Y310249D01*
Y308000D01*
X256493D01*
X255743Y308750D01*
X256493Y309500D01*
X258742D01*
X260242Y310999D02*
Y308000D01*
Y309500D01*
X260991Y310249D01*
X261741Y310999D01*
X262491D01*
X265490Y311749D02*
Y310999D01*
X264740D01*
X266240D01*
X265490D01*
Y308750D01*
X266240Y308000D01*
X268489Y312498D02*
Y308000D01*
Y310249D01*
X269239Y310999D01*
X270738D01*
X271488Y310249D01*
Y308000D01*
X275987Y310999D02*
X273737D01*
X272987Y310249D01*
Y308750D01*
X273737Y308000D01*
X275987D01*
X278236D02*
X279735D01*
X280485Y308750D01*
Y310249D01*
X279735Y310999D01*
X278236D01*
X277486Y310249D01*
Y308750D01*
X278236Y308000D01*
X284984Y312498D02*
Y308000D01*
X282734D01*
X281984Y308750D01*
Y310249D01*
X282734Y310999D01*
X284984D01*
X288732Y308000D02*
X287233D01*
X286483Y308750D01*
Y310249D01*
X287233Y310999D01*
X288732D01*
X289482Y310249D01*
Y309500D01*
X286483D01*
X290982Y308000D02*
Y308750D01*
X291731D01*
Y308000D01*
X290982D01*
X297729Y310999D02*
X295480D01*
X294730Y310249D01*
Y308750D01*
X295480Y308000D01*
X297729D01*
X299979D02*
X301478D01*
X302228Y308750D01*
Y310249D01*
X301478Y310999D01*
X299979D01*
X299229Y310249D01*
Y308750D01*
X299979Y308000D01*
X303728D02*
Y310999D01*
X304477D01*
X305227Y310249D01*
Y308000D01*
Y310249D01*
X305977Y310999D01*
X306727Y310249D01*
Y308000D01*
X330000D02*
Y310999D01*
X331500Y312498D01*
X332999Y310999D01*
Y308000D01*
Y310249D01*
X330000D01*
X334499Y311749D02*
X335248Y312498D01*
X336748D01*
X337498Y311749D01*
Y310999D01*
X336748Y310249D01*
X335998D01*
X336748D01*
X337498Y309500D01*
Y308750D01*
X336748Y308000D01*
X335248D01*
X334499Y308750D01*
X338997D02*
X339747Y308000D01*
X341246D01*
X341996Y308750D01*
Y311749D01*
X341246Y312498D01*
X339747D01*
X338997Y311749D01*
Y310999D01*
X339747Y310249D01*
X341996D01*
X343496Y311749D02*
X344245Y312498D01*
X345745D01*
X346495Y311749D01*
Y310999D01*
X345745Y310249D01*
X346495Y309500D01*
Y308750D01*
X345745Y308000D01*
X344245D01*
X343496Y308750D01*
Y309500D01*
X344245Y310249D01*
X343496Y310999D01*
Y311749D01*
X344245Y310249D02*
X345745D01*
X347994Y311749D02*
X348744Y312498D01*
X350243D01*
X350993Y311749D01*
Y310999D01*
X350243Y310249D01*
X350993Y309500D01*
Y308750D01*
X350243Y308000D01*
X348744D01*
X347994Y308750D01*
Y309500D01*
X348744Y310249D01*
X347994Y310999D01*
Y311749D01*
X348744Y310249D02*
X350243D01*
X356991Y312498D02*
Y308000D01*
X359241D01*
X359990Y308750D01*
Y309500D01*
X359241Y310249D01*
X356991D01*
X359241D01*
X359990Y310999D01*
Y311749D01*
X359241Y312498D01*
X356991D01*
X361490Y310999D02*
Y308000D01*
Y309500D01*
X362240Y310249D01*
X362989Y310999D01*
X363739D01*
X368238Y308000D02*
X366738D01*
X365988Y308750D01*
Y310249D01*
X366738Y310999D01*
X368238D01*
X368987Y310249D01*
Y309500D01*
X365988D01*
X371237Y310999D02*
X372736D01*
X373486Y310249D01*
Y308000D01*
X371237D01*
X370487Y308750D01*
X371237Y309500D01*
X373486D01*
X374986Y308000D02*
Y312498D01*
Y309500D02*
X377235Y310999D01*
X374986Y309500D02*
X377235Y308000D01*
X380234D02*
X381733D01*
X382483Y308750D01*
Y310249D01*
X381733Y310999D01*
X380234D01*
X379484Y310249D01*
Y308750D01*
X380234Y308000D01*
X383983Y310999D02*
Y308750D01*
X384732Y308000D01*
X386982D01*
Y310999D01*
X389231Y311749D02*
Y310999D01*
X388481D01*
X389981D01*
X389231D01*
Y308750D01*
X389981Y308000D01*
M02*
