%FSLAX25Y25*%
%MOIN*%
G70*
G01*
G75*
G04 Layer_Color=8421504*
%ADD10R,0.07874X0.15748*%
%ADD11R,0.05906X0.04921*%
%ADD12R,0.04921X0.05906*%
%ADD13R,0.19685X0.19685*%
%ADD14R,0.01181X0.06693*%
%ADD15R,0.06693X0.01181*%
%ADD16R,0.05118X0.13583*%
%ADD17R,0.13583X0.05118*%
%ADD18C,0.01181*%
%ADD19C,0.03000*%
%ADD20C,0.02000*%
%ADD21R,0.05906X0.05906*%
%ADD22C,0.05906*%
%ADD23R,0.05906X0.05906*%
%ADD24C,0.02362*%
%ADD25C,0.05000*%
%ADD26C,0.04000*%
%ADD27C,0.02598*%
%ADD28R,0.27000X0.27000*%
%ADD29C,0.04000*%
%ADD30C,0.07543*%
G04:AMPARAMS|DCode=31|XSize=95.433mil|YSize=95.433mil|CornerRadius=0mil|HoleSize=0mil|Usage=FLASHONLY|Rotation=0.000|XOffset=0mil|YOffset=0mil|HoleType=Round|Shape=Relief|Width=10mil|Gap=10mil|Entries=4|*
%AMTHD31*
7,0,0,0.09543,0.07543,0.01000,45*
%
%ADD31THD31*%
%ADD32C,0.05378*%
%ADD33C,0.06800*%
%ADD34C,0.06500*%
G04:AMPARAMS|DCode=35|XSize=88mil|YSize=88mil|CornerRadius=0mil|HoleSize=0mil|Usage=FLASHONLY|Rotation=0.000|XOffset=0mil|YOffset=0mil|HoleType=Round|Shape=Relief|Width=10mil|Gap=10mil|Entries=4|*
%AMTHD35*
7,0,0,0.08800,0.06800,0.01000,45*
%
%ADD35THD35*%
%ADD36C,0.05299*%
%ADD37C,0.00984*%
%ADD38C,0.00787*%
%ADD39C,0.01000*%
D10*
X271000Y325024D02*
D03*
Y352976D02*
D03*
X346750Y325024D02*
D03*
Y352976D02*
D03*
D11*
X303500Y464695D02*
D03*
Y457805D02*
D03*
X265750Y420195D02*
D03*
Y413305D02*
D03*
D12*
X338555Y453000D02*
D03*
X345445D02*
D03*
X283945Y450000D02*
D03*
X277055D02*
D03*
X307305Y368000D02*
D03*
X314195D02*
D03*
X353055Y413500D02*
D03*
X359945D02*
D03*
D13*
X312500Y412500D02*
D03*
D14*
X301673Y429429D02*
D03*
X303642D02*
D03*
X305610D02*
D03*
X307579D02*
D03*
X309547D02*
D03*
X311516D02*
D03*
X313484D02*
D03*
X315453D02*
D03*
X317421D02*
D03*
X319390D02*
D03*
X321358D02*
D03*
X323327D02*
D03*
Y395571D02*
D03*
X321358D02*
D03*
X319390D02*
D03*
X317421D02*
D03*
X315453D02*
D03*
X313484D02*
D03*
X311516D02*
D03*
X309547D02*
D03*
X307579D02*
D03*
X305610D02*
D03*
X303642D02*
D03*
X301673D02*
D03*
D15*
X329429Y423327D02*
D03*
Y421358D02*
D03*
Y419390D02*
D03*
Y417421D02*
D03*
Y415453D02*
D03*
Y413484D02*
D03*
Y411516D02*
D03*
Y409547D02*
D03*
Y407579D02*
D03*
Y405610D02*
D03*
Y403642D02*
D03*
Y401673D02*
D03*
X295571D02*
D03*
Y403642D02*
D03*
Y405610D02*
D03*
Y407579D02*
D03*
Y409547D02*
D03*
Y411516D02*
D03*
Y413484D02*
D03*
Y415453D02*
D03*
Y417421D02*
D03*
Y419390D02*
D03*
Y421358D02*
D03*
Y423327D02*
D03*
D16*
X351189Y381500D02*
D03*
X374811D02*
D03*
X273561D02*
D03*
X249939D02*
D03*
D17*
X380250Y437061D02*
D03*
Y413439D02*
D03*
X244000Y436811D02*
D03*
Y413189D02*
D03*
M02*
