%FSLAX25Y25*%
%MOIN*%
G70*
G01*
G75*
G04 Layer_Color=16711935*
%ADD10R,0.07874X0.15748*%
%ADD11R,0.05906X0.04921*%
%ADD12R,0.04921X0.05906*%
%ADD13R,0.19685X0.19685*%
%ADD14R,0.01181X0.06693*%
%ADD15R,0.06693X0.01181*%
%ADD16R,0.05118X0.13583*%
%ADD17R,0.13583X0.05118*%
%ADD18C,0.01181*%
%ADD19C,0.03000*%
%ADD20C,0.02000*%
%ADD21R,0.05906X0.05906*%
%ADD22C,0.05906*%
%ADD23R,0.05906X0.05906*%
%ADD24C,0.02362*%
%ADD25C,0.05000*%
%ADD26C,0.04000*%
%ADD27C,0.02598*%
%ADD28R,0.27000X0.27000*%
%ADD29C,0.04000*%
%ADD30C,0.07543*%
G04:AMPARAMS|DCode=31|XSize=95.433mil|YSize=95.433mil|CornerRadius=0mil|HoleSize=0mil|Usage=FLASHONLY|Rotation=0.000|XOffset=0mil|YOffset=0mil|HoleType=Round|Shape=Relief|Width=10mil|Gap=10mil|Entries=4|*
%AMTHD31*
7,0,0,0.09543,0.07543,0.01000,45*
%
%ADD31THD31*%
%ADD32C,0.05378*%
%ADD33C,0.06800*%
%ADD34C,0.06500*%
G04:AMPARAMS|DCode=35|XSize=88mil|YSize=88mil|CornerRadius=0mil|HoleSize=0mil|Usage=FLASHONLY|Rotation=0.000|XOffset=0mil|YOffset=0mil|HoleType=Round|Shape=Relief|Width=10mil|Gap=10mil|Entries=4|*
%AMTHD35*
7,0,0,0.08800,0.06800,0.01000,45*
%
%ADD35THD35*%
%ADD36C,0.05299*%
%ADD37C,0.00984*%
%ADD38C,0.00787*%
%ADD39C,0.01000*%
%ADD40R,0.08674X0.16548*%
%ADD41R,0.06706X0.05721*%
%ADD42R,0.05721X0.06706*%
%ADD43R,0.20485X0.20485*%
%ADD44R,0.01981X0.07493*%
%ADD45R,0.07493X0.01981*%
%ADD46R,0.05918X0.14383*%
%ADD47R,0.14383X0.05918*%
%ADD48R,0.06706X0.06706*%
%ADD49C,0.06706*%
%ADD50R,0.06706X0.06706*%
%ADD51C,0.03162*%
%ADD52C,0.05800*%
%ADD53C,0.04800*%
%ADD54C,0.03398*%
D48*
X212500Y421500D02*
D03*
Y460500D02*
D03*
X412500D02*
D03*
Y421500D02*
D03*
X412750Y396000D02*
D03*
X213000Y394500D02*
D03*
D49*
X212500Y431500D02*
D03*
Y450500D02*
D03*
X412500D02*
D03*
Y431500D02*
D03*
X406000Y512500D02*
D03*
X396000D02*
D03*
X386000D02*
D03*
X360000D02*
D03*
X350000D02*
D03*
X340000D02*
D03*
X294500D02*
D03*
X284500D02*
D03*
X274500D02*
D03*
X248500D02*
D03*
X238500D02*
D03*
X228500D02*
D03*
X412750Y386000D02*
D03*
X213000Y384500D02*
D03*
X315500Y357250D02*
D03*
D50*
X376000Y512500D02*
D03*
X330000D02*
D03*
X264500D02*
D03*
X218500D02*
D03*
X305500Y357250D02*
D03*
D51*
X287500Y395750D02*
D03*
X301000Y374000D02*
D03*
X298250Y485500D02*
D03*
X323250Y478750D02*
D03*
Y472000D02*
D03*
X386000Y453000D02*
D03*
X296500Y369750D02*
D03*
X366500Y452500D02*
D03*
X307750Y378500D02*
D03*
X299000Y437750D02*
D03*
X299250Y443500D02*
D03*
X298250Y450000D02*
D03*
X303500Y482250D02*
D03*
Y449750D02*
D03*
X305500Y383000D02*
D03*
X340000Y388000D02*
D03*
X332750Y446500D02*
D03*
X283750Y392750D02*
D03*
X318000Y438000D02*
D03*
X280750Y477750D02*
D03*
X291250Y480250D02*
D03*
X323750Y442750D02*
D03*
X315000Y486000D02*
D03*
X315250Y381750D02*
D03*
X313000Y377750D02*
D03*
D52*
X359250Y395750D02*
D03*
X254250Y394500D02*
D03*
X368500Y413500D02*
D03*
X257500Y413000D02*
D03*
X391750Y348000D02*
D03*
X237250Y370750D02*
D03*
D53*
X353000Y453000D02*
D03*
X353055Y420945D02*
D03*
X257555Y449945D02*
D03*
Y420195D02*
D03*
D54*
X319587Y405413D02*
D03*
X314862D02*
D03*
X310138D02*
D03*
X305413D02*
D03*
X319587Y410138D02*
D03*
X314862D02*
D03*
X310138D02*
D03*
X305413D02*
D03*
X319587Y414862D02*
D03*
X314862D02*
D03*
X310138D02*
D03*
X305413D02*
D03*
X319587Y419587D02*
D03*
X314862D02*
D03*
X310138D02*
D03*
X305413D02*
D03*
M02*
