%FSLAX25Y25*%
%MOIN*%
G70*
G01*
G75*
G04 Layer_Color=32768*
%ADD10R,0.07874X0.15748*%
%ADD11R,0.05906X0.04921*%
%ADD12R,0.04921X0.05906*%
%ADD13R,0.19685X0.19685*%
%ADD14R,0.01181X0.06693*%
%ADD15R,0.06693X0.01181*%
%ADD16R,0.05118X0.13583*%
%ADD17R,0.13583X0.05118*%
%ADD18C,0.01181*%
%ADD19C,0.03000*%
%ADD20C,0.02000*%
%ADD21R,0.05906X0.05906*%
%ADD22C,0.05906*%
%ADD23R,0.05906X0.05906*%
%ADD24C,0.02362*%
%ADD25C,0.05000*%
%ADD26C,0.04000*%
%ADD27C,0.02598*%
%ADD28R,0.27000X0.27000*%
%ADD29C,0.04000*%
%ADD30C,0.07543*%
G04:AMPARAMS|DCode=31|XSize=95.433mil|YSize=95.433mil|CornerRadius=0mil|HoleSize=0mil|Usage=FLASHONLY|Rotation=0.000|XOffset=0mil|YOffset=0mil|HoleType=Round|Shape=Relief|Width=10mil|Gap=10mil|Entries=4|*
%AMTHD31*
7,0,0,0.09543,0.07543,0.01000,45*
%
%ADD31THD31*%
%ADD32C,0.05378*%
%ADD33C,0.06800*%
%ADD34C,0.06500*%
G04:AMPARAMS|DCode=35|XSize=88mil|YSize=88mil|CornerRadius=0mil|HoleSize=0mil|Usage=FLASHONLY|Rotation=0.000|XOffset=0mil|YOffset=0mil|HoleType=Round|Shape=Relief|Width=10mil|Gap=10mil|Entries=4|*
%AMTHD35*
7,0,0,0.08800,0.06800,0.01000,45*
%
%ADD35THD35*%
%ADD36C,0.05299*%
%ADD37C,0.00984*%
%ADD38C,0.00787*%
%ADD39C,0.01000*%
%ADD40R,0.08674X0.16548*%
%ADD41R,0.06706X0.05721*%
%ADD42R,0.05721X0.06706*%
%ADD43R,0.20485X0.20485*%
%ADD44R,0.01981X0.07493*%
%ADD45R,0.07493X0.01981*%
%ADD46R,0.05918X0.14383*%
%ADD47R,0.14383X0.05918*%
%ADD48R,0.06706X0.06706*%
%ADD49C,0.06706*%
%ADD50R,0.06706X0.06706*%
%ADD51C,0.03162*%
%ADD52C,0.05800*%
%ADD53C,0.04800*%
%ADD54C,0.03398*%
%ADD55C,0.00600*%
%ADD56C,0.00394*%
D56*
X282470Y461250D02*
X278533D01*
X280501Y459281D02*
Y463218D01*
X276564Y454262D02*
Y468238D01*
X284438Y454262D02*
Y468238D01*
X276564D01*
X284438Y454262D02*
X276564D01*
X320219Y416750D02*
X316283D01*
X318251Y414782D02*
Y418718D01*
X314314Y409762D02*
Y423738D01*
X322188Y409762D02*
Y423738D01*
X314314D01*
X322188Y409762D02*
X314314D01*
X242001Y451031D02*
Y454969D01*
X243969Y453000D02*
X240033D01*
X248989Y456937D02*
X235013D01*
X248989Y449063D02*
X235013D01*
X248989D02*
Y456937D01*
X235013Y449063D02*
Y456937D01*
X303501Y448032D02*
Y451968D01*
X305469Y450000D02*
X301533D01*
X310489Y446063D02*
X296513D01*
X310489Y453937D02*
X296513D01*
Y446063D02*
Y453937D01*
X310489Y446063D02*
Y453937D01*
X273251Y366032D02*
Y369969D01*
X275219Y368000D02*
X271283D01*
X280239Y371937D02*
X266263D01*
X280239Y364063D02*
X266263D01*
X280239D02*
Y371937D01*
X266263Y364063D02*
Y371937D01*
X271501Y410532D02*
Y414468D01*
X273469Y412500D02*
X269532D01*
X291973Y392028D02*
X251028D01*
X291973Y432972D02*
X251028D01*
Y392028D02*
Y432972D01*
X291973Y392028D02*
Y432972D01*
X227501Y411531D02*
Y415469D01*
X229469Y413500D02*
X225533D01*
X234489Y417437D02*
X220513D01*
X234489Y409563D02*
X220513D01*
X234489D02*
Y417437D01*
X220513Y409563D02*
Y417437D01*
X236454Y373724D02*
Y389276D01*
X205548Y373724D02*
Y389276D01*
X236454D02*
X205548D01*
X236454Y373724D02*
X205548D01*
X222970Y381500D02*
X219033D01*
X221001Y379532D02*
Y383469D01*
X211526Y440703D02*
X195975D01*
X211526Y409797D02*
X195975D01*
Y440703D01*
X211526Y409797D02*
Y440703D01*
X203751Y423281D02*
Y427218D01*
X205719Y425250D02*
X201782D01*
X306798Y373724D02*
Y389276D01*
X337704Y373724D02*
Y389276D01*
Y373724D02*
X306798D01*
X337704Y389276D02*
X306798D01*
X324219Y381500D02*
X320283D01*
X322251Y379532D02*
Y383469D01*
X347777Y440453D02*
X332225D01*
X347777Y409547D02*
X332225D01*
Y440453D01*
X347777Y409547D02*
Y440453D01*
X340001Y423032D02*
Y426968D01*
X341969Y425000D02*
X338033D01*
M02*
