%FSLAX25Y25*%
%MOIN*%
G70*
G01*
G75*
G04 Layer_Color=2752767*
%ADD10R,0.07874X0.15748*%
%ADD11R,0.05906X0.04921*%
%ADD12R,0.04921X0.05906*%
%ADD13R,0.19685X0.19685*%
%ADD14R,0.01181X0.06693*%
%ADD15R,0.06693X0.01181*%
%ADD16R,0.05118X0.13583*%
%ADD17R,0.13583X0.05118*%
%ADD18C,0.01181*%
%ADD19C,0.03000*%
%ADD20C,0.02000*%
%ADD21R,0.05906X0.05906*%
%ADD22C,0.05906*%
%ADD23R,0.05906X0.05906*%
%ADD24C,0.02362*%
%ADD25C,0.05000*%
%ADD26C,0.04000*%
%ADD27C,0.02598*%
%ADD28R,0.27000X0.27000*%
%ADD29C,0.04000*%
%ADD30C,0.07543*%
G04:AMPARAMS|DCode=31|XSize=95.433mil|YSize=95.433mil|CornerRadius=0mil|HoleSize=0mil|Usage=FLASHONLY|Rotation=0.000|XOffset=0mil|YOffset=0mil|HoleType=Round|Shape=Relief|Width=10mil|Gap=10mil|Entries=4|*
%AMTHD31*
7,0,0,0.09543,0.07543,0.01000,45*
%
%ADD31THD31*%
%ADD32C,0.05378*%
%ADD33C,0.06800*%
%ADD34C,0.06500*%
G04:AMPARAMS|DCode=35|XSize=88mil|YSize=88mil|CornerRadius=0mil|HoleSize=0mil|Usage=FLASHONLY|Rotation=0.000|XOffset=0mil|YOffset=0mil|HoleType=Round|Shape=Relief|Width=10mil|Gap=10mil|Entries=4|*
%AMTHD35*
7,0,0,0.08800,0.06800,0.01000,45*
%
%ADD35THD35*%
%ADD36C,0.05299*%
%ADD37C,0.00984*%
%ADD38C,0.00787*%
%ADD39C,0.01000*%
%ADD40R,0.08674X0.16548*%
%ADD41R,0.06706X0.05721*%
%ADD42R,0.05721X0.06706*%
%ADD43R,0.20485X0.20485*%
%ADD44R,0.01981X0.07493*%
%ADD45R,0.07493X0.01981*%
%ADD46R,0.05918X0.14383*%
%ADD47R,0.14383X0.05918*%
%ADD48R,0.06706X0.06706*%
%ADD49C,0.06706*%
%ADD50R,0.06706X0.06706*%
%ADD51C,0.03162*%
%ADD52C,0.05800*%
%ADD53C,0.04800*%
%ADD54C,0.03398*%
%ADD55C,0.00500*%
%ADD56C,0.00667*%
D55*
X210500Y419500D02*
Y423500D01*
X214500D01*
Y419500D01*
X210500D01*
Y429500D02*
Y433500D01*
X214500D01*
Y429500D01*
X210500D01*
Y458500D02*
Y462500D01*
X214500D01*
Y458500D01*
X210500D01*
Y448500D02*
Y452500D01*
X214500D01*
Y448500D01*
X210500D01*
X410500Y458500D02*
Y462500D01*
X414500D01*
Y458500D01*
X410500D01*
Y448500D02*
Y452500D01*
X414500D01*
Y448500D01*
X410500D01*
Y419500D02*
Y423500D01*
X414500D01*
Y419500D01*
X410500D01*
Y429500D02*
Y433500D01*
X414500D01*
Y429500D01*
X410500D01*
X404000Y510500D02*
Y514500D01*
X408000D01*
Y510500D01*
X404000D01*
X394000D02*
Y514500D01*
X398000D01*
Y510500D01*
X394000D01*
X384000D02*
Y514500D01*
X388000D01*
Y510500D01*
X384000D01*
X374000D02*
Y514500D01*
X378000D01*
Y510500D01*
X374000D01*
X358000D02*
Y514500D01*
X362000D01*
Y510500D01*
X358000D01*
X348000D02*
Y514500D01*
X352000D01*
Y510500D01*
X348000D01*
X338000D02*
Y514500D01*
X342000D01*
Y510500D01*
X338000D01*
X328000D02*
Y514500D01*
X332000D01*
Y510500D01*
X328000D01*
X292500D02*
Y514500D01*
X296500D01*
Y510500D01*
X292500D01*
X282500D02*
Y514500D01*
X286500D01*
Y510500D01*
X282500D01*
X272500D02*
Y514500D01*
X276500D01*
Y510500D01*
X272500D01*
X262500D02*
Y514500D01*
X266500D01*
Y510500D01*
X262500D01*
X246500D02*
Y514500D01*
X250500D01*
Y510500D01*
X246500D01*
X236500D02*
Y514500D01*
X240500D01*
Y510500D01*
X236500D01*
X226500D02*
Y514500D01*
X230500D01*
Y510500D01*
X226500D01*
X216500D02*
Y514500D01*
X220500D01*
Y510500D01*
X216500D01*
X410750Y384000D02*
Y388000D01*
X414750D01*
Y384000D01*
X410750D01*
Y394000D02*
Y398000D01*
X414750D01*
Y394000D01*
X410750D01*
X211000Y382500D02*
Y386500D01*
X215000D01*
Y382500D01*
X211000D01*
Y392500D02*
Y396500D01*
X215000D01*
Y392500D01*
X211000D01*
X313500Y355250D02*
Y359250D01*
X317500D01*
Y355250D01*
X313500D01*
X303500D02*
Y359250D01*
X307500D01*
Y355250D01*
X303500D01*
X359250Y393750D02*
X357250Y397750D01*
X361250D01*
X359250Y393750D01*
X254250Y392500D02*
X252250Y396500D01*
X256250D01*
X254250Y392500D01*
X353000Y451000D02*
X354000Y452000D01*
X355000D01*
X354000Y453000D01*
X355000Y454000D01*
X354000D01*
X353000Y455000D01*
X352000Y454000D01*
X351000D01*
X352000Y453000D01*
X351000Y452000D01*
X352000D01*
X353000Y451000D01*
X353055Y418945D02*
X354055Y419945D01*
X355055D01*
X354055Y420945D01*
X355055Y421945D01*
X354055D01*
X353055Y422945D01*
X352055Y421945D01*
X351055D01*
X352055Y420945D01*
X351055Y419945D01*
X352055D01*
X353055Y418945D01*
X368500Y411500D02*
X366500Y415500D01*
X370500D01*
X368500Y411500D01*
X257555Y447945D02*
X258555Y448945D01*
X259555D01*
X258555Y449945D01*
X259555Y450945D01*
X258555D01*
X257555Y451945D01*
X256555Y450945D01*
X255555D01*
X256555Y449945D01*
X255555Y448945D01*
X256555D01*
X257555Y447945D01*
Y418195D02*
X258555Y419195D01*
X259555D01*
X258555Y420195D01*
X259555Y421195D01*
X258555D01*
X257555Y422195D01*
X256555Y421195D01*
X255555D01*
X256555Y420195D01*
X255555Y419195D01*
X256555D01*
X257555Y418195D01*
X257500Y411000D02*
X255500Y415000D01*
X259500D01*
X257500Y411000D01*
X391750Y346000D02*
X389750Y350000D01*
X393750D01*
X391750Y346000D01*
X237250Y368750D02*
X235250Y372750D01*
X239250D01*
X237250Y368750D01*
X317587Y403413D02*
X318587Y405413D01*
X317587Y407413D01*
X319587Y406413D01*
X321587Y407413D01*
X320587Y405413D01*
X321587Y403413D01*
X319587Y404413D01*
X317587Y403413D01*
X312862D02*
X313862Y405413D01*
X312862Y407413D01*
X314862Y406413D01*
X316862Y407413D01*
X315862Y405413D01*
X316862Y403413D01*
X314862Y404413D01*
X312862Y403413D01*
X308138D02*
X309138Y405413D01*
X308138Y407413D01*
X310138Y406413D01*
X312138Y407413D01*
X311138Y405413D01*
X312138Y403413D01*
X310138Y404413D01*
X308138Y403413D01*
X303413D02*
X304413Y405413D01*
X303413Y407413D01*
X305413Y406413D01*
X307413Y407413D01*
X306413Y405413D01*
X307413Y403413D01*
X305413Y404413D01*
X303413Y403413D01*
X317587Y408138D02*
X318587Y410138D01*
X317587Y412138D01*
X319587Y411138D01*
X321587Y412138D01*
X320587Y410138D01*
X321587Y408138D01*
X319587Y409138D01*
X317587Y408138D01*
X312862D02*
X313862Y410138D01*
X312862Y412138D01*
X314862Y411138D01*
X316862Y412138D01*
X315862Y410138D01*
X316862Y408138D01*
X314862Y409138D01*
X312862Y408138D01*
X308138D02*
X309138Y410138D01*
X308138Y412138D01*
X310138Y411138D01*
X312138Y412138D01*
X311138Y410138D01*
X312138Y408138D01*
X310138Y409138D01*
X308138Y408138D01*
X303413D02*
X304413Y410138D01*
X303413Y412138D01*
X305413Y411138D01*
X307413Y412138D01*
X306413Y410138D01*
X307413Y408138D01*
X305413Y409138D01*
X303413Y408138D01*
X317587Y412862D02*
X318587Y414862D01*
X317587Y416862D01*
X319587Y415862D01*
X321587Y416862D01*
X320587Y414862D01*
X321587Y412862D01*
X319587Y413862D01*
X317587Y412862D01*
X312862D02*
X313862Y414862D01*
X312862Y416862D01*
X314862Y415862D01*
X316862Y416862D01*
X315862Y414862D01*
X316862Y412862D01*
X314862Y413862D01*
X312862Y412862D01*
X308138D02*
X309138Y414862D01*
X308138Y416862D01*
X310138Y415862D01*
X312138Y416862D01*
X311138Y414862D01*
X312138Y412862D01*
X310138Y413862D01*
X308138Y412862D01*
X303413D02*
X304413Y414862D01*
X303413Y416862D01*
X305413Y415862D01*
X307413Y416862D01*
X306413Y414862D01*
X307413Y412862D01*
X305413Y413862D01*
X303413Y412862D01*
X317587Y417587D02*
X318587Y419587D01*
X317587Y421587D01*
X319587Y420587D01*
X321587Y421587D01*
X320587Y419587D01*
X321587Y417587D01*
X319587Y418587D01*
X317587Y417587D01*
X312862D02*
X313862Y419587D01*
X312862Y421587D01*
X314862Y420587D01*
X316862Y421587D01*
X315862Y419587D01*
X316862Y417587D01*
X314862Y418587D01*
X312862Y417587D01*
X308138D02*
X309138Y419587D01*
X308138Y421587D01*
X310138Y420587D01*
X312138Y421587D01*
X311138Y419587D01*
X312138Y417587D01*
X310138Y418587D01*
X308138Y417587D01*
X303413D02*
X304413Y419587D01*
X303413Y421587D01*
X305413Y420587D01*
X307413Y421587D01*
X306413Y419587D01*
X307413Y417587D01*
X305413Y418587D01*
X303413Y417587D01*
D56*
X289500Y395750D02*
G03*
X289500Y395750I-2000J0D01*
G01*
X303000Y374000D02*
G03*
X303000Y374000I-2000J0D01*
G01*
X300250Y485500D02*
G03*
X300250Y485500I-2000J0D01*
G01*
X325250Y478750D02*
G03*
X325250Y478750I-2000J0D01*
G01*
Y472000D02*
G03*
X325250Y472000I-2000J0D01*
G01*
X388000Y453000D02*
G03*
X388000Y453000I-2000J0D01*
G01*
X298500Y369750D02*
G03*
X298500Y369750I-2000J0D01*
G01*
X368500Y452500D02*
G03*
X368500Y452500I-2000J0D01*
G01*
X309750Y378500D02*
G03*
X309750Y378500I-2000J0D01*
G01*
X301000Y437750D02*
G03*
X301000Y437750I-2000J0D01*
G01*
X301250Y443500D02*
G03*
X301250Y443500I-2000J0D01*
G01*
X300250Y450000D02*
G03*
X300250Y450000I-2000J0D01*
G01*
X305500Y482250D02*
G03*
X305500Y482250I-2000J0D01*
G01*
Y449750D02*
G03*
X305500Y449750I-2000J0D01*
G01*
X307500Y383000D02*
G03*
X307500Y383000I-2000J0D01*
G01*
X342000Y388000D02*
G03*
X342000Y388000I-2000J0D01*
G01*
X334750Y446500D02*
G03*
X334750Y446500I-2000J0D01*
G01*
X285750Y392750D02*
G03*
X285750Y392750I-2000J0D01*
G01*
X320000Y438000D02*
G03*
X320000Y438000I-2000J0D01*
G01*
X282750Y477750D02*
G03*
X282750Y477750I-2000J0D01*
G01*
X293250Y480250D02*
G03*
X293250Y480250I-2000J0D01*
G01*
X325750Y442750D02*
G03*
X325750Y442750I-2000J0D01*
G01*
X317000Y486000D02*
G03*
X317000Y486000I-2000J0D01*
G01*
X317250Y381750D02*
G03*
X317250Y381750I-2000J0D01*
G01*
X315000Y377750D02*
G03*
X315000Y377750I-2000J0D01*
G01*
M02*
